TF2CProfessor.sfdir
StartChar: exclam
Encoding: 33 33 1
Width: 112
GlyphClass: 2
Flags: W
LayerCount: 2
Fore
SplineSet
64 176 m 1,0,-1
 52 180 l 1,1,-1
 48 192 l 1,2,-1
 46 309 l 1,3,-1
 38 406 l 1,4,-1
 35 431 l 1,5,-1
 34 452 l 1,6,-1
 32 508 l 1,7,-1
 36 520 l 1,8,-1
 48 524 l 1,9,-1
 60 520 l 1,10,-1
 64 508 l 1,11,-1
 67 482 l 1,12,-1
 69 460 l 1,13,-1
 72 436 l 1,14,-1
 75 417 l 1,15,-1
 80 192 l 1,16,-1
 76 180 l 1,17,-1
 64 176 l 1,0,-1
64 48 m 1,18,-1
 52 52 l 1,19,-1
 36 68 l 1,20,-1
 32 80 l 1,21,-1
 36 92 l 1,22,-1
 48 96 l 1,23,-1
 64 96 l 1,24,-1
 76 92 l 1,25,-1
 80 80 l 1,26,-1
 80 64 l 1,27,-1
 76 52 l 1,28,-1
 64 48 l 1,18,-1
EndSplineSet
EndChar
StartChar: quotedbl
Encoding: 34 34 2
Width: 192
GlyphClass: 2
Flags: W
LayerCount: 2
Fore
SplineSet
76 532 m 1,0,-1
 60 516 l 1,1,-1
 52 516 l 1,2,-1
 36 532 l 1,3,-1
 32 544 l 1,4,-1
 32 656 l 1,5,-1
 36 668 l 1,6,-1
 48 672 l 1,7,-1
 60 668 l 1,8,-1
 64 656 l 1,9,-1
 64 640 l 1,10,-1
 68 628 l 1,11,-1
 76 620 l 1,12,-1
 80 608 l 1,13,-1
 80 544 l 1,14,-1
 76 532 l 1,0,-1
144 640 m 1,15,-1
 144 560 l 1,16,-1
 140 548 l 1,17,-1
 124 532 l 1,18,-1
 116 532 l 1,19,-1
 112 544 l 1,20,-1
 112 640 l 1,21,-1
 116 652 l 1,22,-1
 128 656 l 1,23,-1
 140 652 l 1,24,-1
 144 640 l 1,15,-1
EndSplineSet
EndChar
StartChar: numbersign
Encoding: 35 35 3
Width: 464
GlyphClass: 2
Flags: W
LayerCount: 2
Fore
SplineSet
291 346 m 1,0,-1
 268 352 l 1,1,-1
 176 346 l 1,2,-1
 172 320 l 1,3,-1
 172 304 l 1,4,-1
 176 292 l 1,5,-1
 188 288 l 1,6,-1
 268 288 l 1,7,-1
 299 292 l 1,8,-1
 291 346 l 1,0,-1
412 272 m 1,9,-1
 396 272 l 1,10,-1
 352 264 l 1,11,-1
 348 240 l 1,12,-1
 352 228 l 1,13,-1
 360 220 l 1,14,-1
 360 212 l 1,15,-1
 348 208 l 1,16,-1
 332 208 l 1,17,-1
 320 212 l 1,18,-1
 312 236 l 1,19,-1
 296 252 l 1,20,-1
 284 256 l 1,21,-1
 204 256 l 1,22,-1
 192 252 l 1,23,-1
 188 240 l 1,24,-1
 204 192 l 1,25,-1
 204 176 l 1,26,-1
 200 164 l 1,27,-1
 188 160 l 1,28,-1
 166 161 l 1,29,-1
 156 192 l 1,30,-1
 156 224 l 1,31,-1
 152 236 l 1,32,-1
 140 240 l 1,33,-1
 60 240 l 1,34,-1
 48 244 l 1,35,-1
 44 256 l 1,36,-1
 48 268 l 1,37,-1
 60 272 l 1,38,-1
 92 272 l 1,39,-1
 104 276 l 1,40,-1
 112 284 l 1,41,-1
 136 292 l 1,42,-1
 140 304 l 1,43,-1
 140 336 l 1,44,-1
 136 348 l 1,45,-1
 124 352 l 1,46,-1
 112 348 l 1,47,-1
 44 336 l 1,48,-1
 32 340 l 1,49,-1
 31 367 l 1,50,-1
 48 373 l 1,51,-1
 72 372 l 1,52,-1
 80 380 l 1,53,-1
 92 384 l 1,54,-1
 108 384 l 1,55,-1
 120 388 l 1,56,-1
 124 448 l 1,57,-1
 124 464 l 1,58,-1
 128 476 l 1,59,-1
 144 492 l 1,60,-1
 152 492 l 1,61,-1
 156 480 l 1,62,-1
 156 464 l 1,63,-1
 160 400 l 1,64,-1
 164 388 l 1,65,-1
 176 384 l 1,66,-1
 268 384 l 1,67,-1
 280 388 l 1,68,-1
 284 400 l 1,69,-1
 284 416 l 1,70,-1
 280 428 l 1,71,-1
 272 436 l 1,72,-1
 268 448 l 1,73,-1
 268 464 l 1,74,-1
 272 476 l 1,75,-1
 284 480 l 1,76,-1
 296 476 l 1,77,-1
 312 460 l 1,78,-1
 316 448 l 1,79,-1
 316 416 l 1,80,-1
 322 387 l 1,81,-1
 376 380 l 1,82,-1
 380 368 l 1,83,-1
 376 356 l 1,84,-1
 361 345 l 1,85,-1
 336 345 l 1,86,-1
 332 320 l 1,87,-1
 336 308 l 1,88,-1
 352 292 l 1,89,-1
 360 292 l 1,90,-1
 408 300 l 1,91,-1
 424 284 l 1,92,-1
 424 276 l 1,93,-1
 412 272 l 1,9,-1
EndSplineSet
EndChar
StartChar: dollar
Encoding: 36 36 4
Width: 320
GlyphClass: 2
Flags: W
LayerCount: 2
Fore
SplineSet
144 432 m 1,0,-1
 134 531 l 1,1,-1
 130 543 l 1,2,-1
 124 556 l 1,3,-1
 116 556 l 1,4,-1
 68 508 l 1,5,-1
 64 496 l 1,6,-1
 64 480 l 1,7,-1
 68 468 l 1,8,-1
 84 436 l 1,9,-1
 116 420 l 1,10,-1
 128 416 l 1,11,-1
 140 420 l 1,12,-1
 144 432 l 1,0,-1
236 212 m 1,13,-1
 249 255 l 1,14,-1
 245 267 l 1,15,-1
 237 284 l 1,16,-1
 220 300 l 1,17,-1
 194 317 l 1,18,-1
 192 288 l 1,19,-1
 192 224 l 1,20,-1
 196 212 l 1,21,-1
 208 208 l 1,22,-1
 224 208 l 1,23,-1
 236 212 l 1,13,-1
276 236 m 1,24,-1
 268 212 l 1,25,-1
 252 196 l 1,26,-1
 240 192 l 1,27,-1
 224 192 l 1,28,-1
 212 188 l 1,29,-1
 208 176 l 1,30,-1
 208 64 l 1,31,-1
 212 52 l 1,32,-1
 220 44 l 1,33,-1
 224 32 l 1,34,-1
 224 16 l 1,35,-1
 220 4 l 1,36,-1
 208 0 l 1,37,-1
 192 0 l 1,38,-1
 180 4 l 1,39,-1
 168 147 l 1,40,-1
 160 160 l 1,41,-1
 158 184 l 1,42,-1
 140 188 l 1,43,-1
 116 196 l 1,44,-1
 68 244 l 1,45,-1
 64 256 l 1,46,-1
 68 268 l 1,47,-1
 80 272 l 1,48,-1
 96 272 l 1,49,-1
 108 268 l 1,50,-1
 116 244 l 1,51,-1
 148 212 l 1,52,-1
 156 212 l 1,53,-1
 160 224 l 1,54,-1
 160 320 l 1,55,-1
 151 364 l 1,56,-1
 108 396 l 1,57,-1
 84 404 l 1,58,-1
 36 452 l 1,59,-1
 32 464 l 1,60,-1
 32 496 l 1,61,-1
 36 508 l 1,62,-1
 40 522 l 1,63,-1
 52 540 l 1,64,-1
 84 572 l 1,65,-1
 108 580 l 1,66,-1
 124 596 l 1,67,-1
 128 608 l 1,68,-1
 128 640 l 1,69,-1
 132 652 l 1,70,-1
 144 656 l 1,71,-1
 156 652 l 1,72,-1
 160 640 l 1,73,-1
 160 608 l 1,74,-1
 164 596 l 1,75,-1
 176 592 l 1,76,-1
 208 592 l 1,77,-1
 220 588 l 1,78,-1
 228 580 l 1,79,-1
 252 572 l 1,80,-1
 268 556 l 1,81,-1
 272 544 l 1,82,-1
 244 532 l 1,83,-1
 220 556 l 1,84,-1
 208 560 l 1,85,-1
 176 560 l 1,86,-1
 164 556 l 1,87,-1
 164 548 l 1,88,-1
 162 543 l 1,89,-1
 166 531 l 1,90,-1
 176 400 l 1,91,-1
 180 388 l 1,92,-1
 252 316 l 1,93,-1
 260 292 l 1,94,-1
 268 284 l 1,95,-1
 276 260 l 1,96,-1
 276 236 l 1,24,-1
EndSplineSet
EndChar
StartChar: percent
Encoding: 37 37 5
Width: 528
GlyphClass: 2
Flags: W
LayerCount: 2
Fore
SplineSet
188 515 m 1,0,-1
 183 540 l 1,1,-1
 156 556 l 1,2,-1
 144 560 l 1,3,-1
 132 556 l 1,4,-1
 100 524 l 1,5,-1
 92 500 l 1,6,-1
 84 492 l 1,7,-1
 80 480 l 1,8,-1
 80 448 l 1,9,-1
 84 436 l 1,10,-1
 104 434 l 1,11,-1
 135 442 l 1,12,-1
 156 468 l 1,13,-1
 188 515 l 1,0,-1
212 524 m 1,14,-1
 204 500 l 1,15,-1
 196 492 l 1,16,-1
 188 468 l 1,17,-1
 132 412 l 1,18,-1
 96 400 l 1,19,-1
 84 404 l 1,20,-1
 76 412 l 1,21,-1
 52 420 l 1,22,-1
 48 432 l 1,23,-1
 48 480 l 1,24,-1
 52 492 l 1,25,-1
 58 505 l 1,26,-1
 68 524 l 1,27,-1
 92 548 l 1,28,-1
 106 566 l 1,29,-1
 124 580 l 1,30,-1
 132 588 l 1,31,-1
 144 592 l 1,32,-1
 176 592 l 1,33,-1
 188 588 l 1,34,-1
 220 556 l 1,35,-1
 224 544 l 1,36,-1
 220 532 l 1,37,-1
 212 524 l 1,14,-1
412 548 m 1,38,-1
 260 396 l 1,39,-1
 252 372 l 1,40,-1
 100 220 l 1,41,-1
 92 196 l 1,42,-1
 60 164 l 1,43,-1
 48 160 l 1,44,-1
 36 164 l 1,45,-1
 32 176 l 1,46,-1
 32 192 l 1,47,-1
 36 204 l 1,48,-1
 388 556 l 1,49,-1
 400 560 l 1,50,-1
 412 556 l 1,51,-1
 412 548 l 1,38,-1
460 260 m 1,52,-1
 473 298 l 1,53,-1
 463 320 l 1,54,-1
 416 336 l 1,55,-1
 393 332 l 1,56,-1
 404 324 l 1,57,-1
 412 316 l 1,58,-1
 416 304 l 1,59,-1
 412 292 l 1,60,-1
 400 288 l 1,61,-1
 388 292 l 1,62,-1
 380 300 l 1,63,-1
 368 304 l 1,64,-1
 336 304 l 1,65,-1
 324 300 l 1,66,-1
 308 284 l 1,67,-1
 300 260 l 1,68,-1
 292 252 l 1,69,-1
 288 240 l 1,70,-1
 288 224 l 1,71,-1
 292 212 l 1,72,-1
 308 196 l 1,73,-1
 320 192 l 1,74,-1
 400 192 l 1,75,-1
 412 196 l 1,76,-1
 444 228 l 1,77,-1
 460 260 l 1,52,-1
484 268 m 1,78,-1
 476 244 l 1,79,-1
 468 236 l 1,80,-1
 460 212 l 1,81,-1
 428 180 l 1,82,-1
 404 172 l 1,83,-1
 396 164 l 1,84,-1
 384 160 l 1,85,-1
 288 160 l 1,86,-1
 276 164 l 1,87,-1
 260 180 l 1,88,-1
 252 204 l 1,89,-1
 244 212 l 1,90,-1
 240 224 l 1,91,-1
 244 236 l 1,92,-1
 252 244 l 1,93,-1
 260 268 l 1,94,-1
 292 316 l 1,95,-1
 308 332 l 1,96,-1
 340 348 l 1,97,-1
 352 352 l 1,98,-1
 387 351 l 1,99,-1
 415 362 l 1,100,-1
 439 363 l 1,101,-1
 451 359 l 1,102,-1
 492 332 l 1,103,-1
 496 320 l 1,104,-1
 496 288 l 1,105,-1
 492 276 l 1,106,-1
 484 268 l 1,78,-1
EndSplineSet
EndChar
StartChar: ampersand
Encoding: 38 38 6
Width: 367
GlyphClass: 2
Flags: W
LayerCount: 2
Fore
SplineSet
144 512 m 1,0,-1
 144 560 l 1,1,-1
 140 572 l 1,2,-1
 128 576 l 1,3,-1
 112 576 l 1,4,-1
 100 572 l 1,5,-1
 96 560 l 1,6,-1
 96 544 l 1,7,-1
 100 532 l 1,8,-1
 108 524 l 1,9,-1
 116 500 l 1,10,-1
 130 480 l 1,11,-1
 140 500 l 1,12,-1
 144 512 l 1,0,-1
208 240 m 1,13,-1
 208 256 l 1,14,-1
 204 268 l 1,15,-1
 180 292 l 1,16,-1
 172 316 l 1,17,-1
 164 316 l 1,18,-1
 148 300 l 1,19,-1
 144 288 l 1,20,-1
 144 240 l 1,21,-1
 140 228 l 1,22,-1
 132 228 l 1,23,-1
 116 244 l 1,24,-1
 112 256 l 1,25,-1
 112 288 l 1,26,-1
 116 300 l 1,27,-1
 124 308 l 1,28,-1
 132 332 l 1,29,-1
 140 340 l 1,30,-1
 144 352 l 1,31,-1
 144 368 l 1,32,-1
 132 388 l 1,33,-1
 124 412 l 1,34,-1
 116 412 l 1,35,-1
 100 396 l 1,36,-1
 92 372 l 1,37,-1
 75 329 l 1,38,-1
 71 317 l 1,39,-1
 68 300 l 1,40,-1
 64 288 l 1,41,-1
 64 256 l 1,42,-1
 68 244 l 1,43,-1
 69 230 l 1,44,-1
 80 208 l 1,45,-1
 84 196 l 1,46,-1
 108 188 l 1,47,-1
 116 180 l 1,48,-1
 128 176 l 1,49,-1
 144 176 l 1,50,-1
 156 180 l 1,51,-1
 204 228 l 1,52,-1
 208 240 l 1,13,-1
240 304 m 1,53,-1
 240 368 l 1,54,-1
 236 380 l 1,55,-1
 224 384 l 1,56,-1
 212 380 l 1,57,-1
 180 348 l 1,58,-1
 180 340 l 1,59,-1
 196 308 l 1,60,-1
 212 292 l 1,61,-1
 224 288 l 1,62,-1
 236 292 l 1,63,-1
 240 304 l 1,53,-1
260 300 m 1,64,-1
 252 276 l 1,65,-1
 244 268 l 1,66,-1
 240 256 l 1,67,-1
 244 244 l 1,68,-1
 252 236 l 1,69,-1
 256 224 l 1,70,-1
 252 212 l 1,71,-1
 244 212 l 1,72,-1
 236 220 l 1,73,-1
 228 220 l 1,74,-1
 172 164 l 1,75,-1
 160 160 l 1,76,-1
 96 160 l 1,77,-1
 84 164 l 1,78,-1
 52 196 l 1,79,-1
 42 217 l 1,80,-1
 36 228 l 1,81,-1
 32 240 l 1,82,-1
 27 281 l 1,83,-1
 31 293 l 1,84,-1
 33 321 l 1,85,-1
 52 380 l 1,86,-1
 68 412 l 1,87,-1
 92 436 l 1,88,-1
 109 451 l 1,89,-1
 96 480 l 1,90,-1
 92 492 l 1,91,-1
 84 500 l 1,92,-1
 76 524 l 1,93,-1
 68 532 l 1,94,-1
 64 544 l 1,95,-1
 64 560 l 1,96,-1
 68 572 l 1,97,-1
 100 604 l 1,98,-1
 112 608 l 1,99,-1
 124 604 l 1,100,-1
 132 596 l 1,101,-1
 156 588 l 1,102,-1
 172 572 l 1,103,-1
 176 560 l 1,104,-1
 176 528 l 1,105,-1
 173 504 l 1,106,-1
 169 492 l 1,107,-1
 160 480 l 1,108,-1
 156 468 l 1,109,-1
 148 460 l 1,110,-1
 144 448 l 1,111,-1
 144 416 l 1,112,-1
 148 404 l 1,113,-1
 164 388 l 1,114,-1
 172 388 l 1,115,-1
 207 411 l 1,116,-1
 219 415 l 1,117,-1
 240 416 l 1,118,-1
 252 412 l 1,119,-1
 260 388 l 1,120,-1
 268 380 l 1,121,-1
 272 368 l 1,122,-1
 272 320 l 1,123,-1
 268 308 l 1,124,-1
 260 300 l 1,64,-1
260 180 m 1,125,-1
 256 192 l 1,126,-1
 260 204 l 1,127,-1
 268 204 l 1,128,-1
 272 192 l 1,129,-1
 268 180 l 1,130,-1
 260 180 l 1,125,-1
292 132 m 1,131,-1
 276 148 l 1,132,-1
 272 160 l 1,133,-1
 276 172 l 1,134,-1
 284 172 l 1,135,-1
 300 156 l 1,136,-1
 304 144 l 1,137,-1
 300 132 l 1,138,-1
 292 132 l 1,131,-1
308 100 m 1,139,-1
 304 112 l 1,140,-1
 308 124 l 1,141,-1
 316 124 l 1,142,-1
 320 112 l 1,143,-1
 316 100 l 1,144,-1
 308 100 l 1,139,-1
324 84 m 1,145,-1
 324 92 l 1,146,-1
 332 92 l 1,147,-1
 332 84 l 1,148,-1
 324 84 l 1,145,-1
EndSplineSet
EndChar
StartChar: quotesingle
Encoding: 39 39 7
Width: 160
GlyphClass: 2
Flags: W
LayerCount: 2
Fore
SplineSet
116 604 m 1,0,-1
 112 592 l 1,1,-1
 112 576 l 1,2,-1
 108 564 l 1,3,-1
 76 500 l 1,4,-1
 60 484 l 1,5,-1
 48 480 l 1,6,-1
 36 484 l 1,7,-1
 32 496 l 1,8,-1
 32 512 l 1,9,-1
 36 524 l 1,10,-1
 44 532 l 1,11,-1
 62 555 l 1,12,-1
 76 580 l 1,13,-1
 84 604 l 1,14,-1
 100 620 l 1,15,-1
 112 624 l 1,16,-1
 124 620 l 1,17,-1
 124 612 l 1,18,-1
 116 604 l 1,0,-1
EndSplineSet
EndChar
StartChar: parenleft
Encoding: 40 40 8
Width: 256
GlyphClass: 2
Flags: W
LayerCount: 2
Fore
SplineSet
172 36 m 1,0,-1
 156 20 l 1,1,-1
 144 16 l 1,2,-1
 132 20 l 1,3,-1
 100 52 l 1,4,-1
 92 76 l 1,5,-1
 84 84 l 1,6,-1
 76 108 l 1,7,-1
 68 116 l 1,8,-1
 64 128 l 1,9,-1
 64 144 l 1,10,-1
 60 156 l 1,11,-1
 52 164 l 1,12,-1
 48 176 l 1,13,-1
 36 244 l 1,14,-1
 32 256 l 1,15,-1
 48 336 l 1,16,-1
 48 416 l 1,17,-1
 52 428 l 1,18,-1
 60 436 l 1,19,-1
 64 448 l 1,20,-1
 64 512 l 1,21,-1
 68 524 l 1,22,-1
 84 556 l 1,23,-1
 92 564 l 1,24,-1
 100 588 l 1,25,-1
 140 628 l 1,26,-1
 148 652 l 1,27,-1
 160 656 l 1,28,-1
 172 652 l 1,29,-1
 176 640 l 1,30,-1
 172 628 l 1,31,-1
 164 620 l 1,32,-1
 156 596 l 1,33,-1
 116 556 l 1,34,-1
 96 496 l 1,35,-1
 89 401 l 1,36,-1
 85 389 l 1,37,-1
 84 364 l 1,38,-1
 80 352 l 1,39,-1
 80 243 l 1,40,-1
 96 176 l 1,41,-1
 100 164 l 1,42,-1
 108 156 l 1,43,-1
 116 132 l 1,44,-1
 140 108 l 1,45,-1
 148 84 l 1,46,-1
 156 76 l 1,47,-1
 164 52 l 1,48,-1
 172 44 l 1,49,-1
 172 36 l 1,0,-1
220 4 m 1,50,-1
 204 -12 l 1,51,-1
 192 -16 l 1,52,-1
 180 -12 l 1,53,-1
 176 0 l 1,54,-1
 176 16 l 1,55,-1
 180 28 l 1,56,-1
 192 32 l 1,57,-1
 204 28 l 1,58,-1
 220 12 l 1,59,-1
 220 4 l 1,50,-1
EndSplineSet
EndChar
StartChar: parenright
Encoding: 41 41 9
Width: 272
GlyphClass: 2
Flags: W
LayerCount: 2
Fore
SplineSet
228 236 m 1,0,-1
 224 224 l 1,1,-1
 224 192 l 1,2,-1
 208 144 l 1,3,-1
 174 95 l 1,4,-1
 76 4 l 1,5,-1
 64 0 l 1,6,-1
 48 0 l 1,7,-1
 36 4 l 1,8,-1
 32 16 l 1,9,-1
 32 32 l 1,10,-1
 51 46 l 1,11,-1
 73 59 l 1,12,-1
 126 101 l 1,13,-1
 178 186 l 1,14,-1
 192 240 l 1,15,-1
 196 252 l 1,16,-1
 204 260 l 1,17,-1
 208 272 l 1,18,-1
 208 384 l 1,19,-1
 204 396 l 1,20,-1
 196 404 l 1,21,-1
 192 416 l 1,22,-1
 192 432 l 1,23,-1
 188 444 l 1,24,-1
 180 452 l 1,25,-1
 172 476 l 1,26,-1
 92 556 l 1,27,-1
 68 564 l 1,28,-1
 36 596 l 1,29,-1
 32 608 l 1,30,-1
 36 620 l 1,31,-1
 48 624 l 1,32,-1
 60 620 l 1,33,-1
 68 612 l 1,34,-1
 92 604 l 1,35,-1
 100 596 l 1,36,-1
 124 588 l 1,37,-1
 156 556 l 1,38,-1
 164 532 l 1,39,-1
 188 508 l 1,40,-1
 196 484 l 1,41,-1
 204 476 l 1,42,-1
 219 433 l 1,43,-1
 240 368 l 1,44,-1
 240 256 l 1,45,-1
 236 244 l 1,46,-1
 228 236 l 1,0,-1
EndSplineSet
EndChar
StartChar: asterisk
Encoding: 42 42 10
Width: 256
GlyphClass: 2
Flags: W
LayerCount: 2
Fore
SplineSet
204 576 m 1,0,-1
 172 576 l 1,1,-1
 160 572 l 1,2,-1
 160 564 l 1,3,-1
 168 556 l 1,4,-1
 176 532 l 1,5,-1
 184 524 l 1,6,-1
 188 512 l 1,7,-1
 184 500 l 1,8,-1
 176 500 l 1,9,-1
 152 556 l 1,10,-1
 136 572 l 1,11,-1
 128 572 l 1,12,-1
 112 556 l 1,13,-1
 104 532 l 1,14,-1
 72 484 l 1,15,-1
 60 480 l 1,16,-1
 48 484 l 1,17,-1
 48 492 l 1,18,-1
 56 500 l 1,19,-1
 64 524 l 1,20,-1
 72 532 l 1,21,-1
 80 556 l 1,22,-1
 88 564 l 1,23,-1
 92 576 l 1,24,-1
 88 588 l 1,25,-1
 76 592 l 1,26,-1
 44 592 l 1,27,-1
 32 596 l 1,28,-1
 32 604 l 1,29,-1
 44 608 l 1,30,-1
 92 608 l 1,31,-1
 104 612 l 1,32,-1
 104 620 l 1,33,-1
 80 644 l 1,34,-1
 76 656 l 1,35,-1
 80 668 l 1,36,-1
 88 668 l 1,37,-1
 112 644 l 1,38,-1
 128 630 l 1,39,-1
 138 641 l 1,40,-1
 152 660 l 1,41,-1
 160 684 l 1,42,-1
 168 684 l 1,43,-1
 172 672 l 1,44,-1
 172 656 l 1,45,-1
 168 644 l 1,46,-1
 160 636 l 1,47,-1
 156 624 l 1,48,-1
 160 612 l 1,49,-1
 172 608 l 1,50,-1
 204 608 l 1,51,-1
 216 604 l 1,52,-1
 220 592 l 1,53,-1
 216 580 l 1,54,-1
 204 576 l 1,0,-1
EndSplineSet
EndChar
StartChar: plus
Encoding: 43 43 11
Width: 448
GlyphClass: 2
Flags: W
LayerCount: 2
Fore
SplineSet
408 356 m 1,0,-1
 392 340 l 1,1,-1
 380 336 l 1,2,-1
 268 336 l 1,3,-1
 256 332 l 1,4,-1
 252 320 l 1,5,-1
 252 240 l 1,6,-1
 256 228 l 1,7,-1
 264 220 l 1,8,-1
 268 208 l 1,9,-1
 264 196 l 1,10,-1
 248 180 l 1,11,-1
 240 180 l 1,12,-1
 236 192 l 1,13,-1
 236 208 l 1,14,-1
 232 220 l 1,15,-1
 224 228 l 1,16,-1
 216 252 l 1,17,-1
 200 332 l 1,18,-1
 188 336 l 1,19,-1
 44 336 l 1,20,-1
 32 340 l 1,21,-1
 32 348 l 1,22,-1
 48 364 l 1,23,-1
 72 372 l 1,24,-1
 80 380 l 1,25,-1
 92 384 l 1,26,-1
 172 384 l 1,27,-1
 184 388 l 1,28,-1
 188 400 l 1,29,-1
 188 464 l 1,30,-1
 192 476 l 1,31,-1
 200 484 l 1,32,-1
 204 496 l 1,33,-1
 204 512 l 1,34,-1
 208 524 l 1,35,-1
 216 524 l 1,36,-1
 232 508 l 1,37,-1
 236 496 l 1,38,-1
 236 416 l 1,39,-1
 240 404 l 1,40,-1
 256 388 l 1,41,-1
 268 384 l 1,42,-1
 364 384 l 1,43,-1
 376 388 l 1,44,-1
 384 396 l 1,45,-1
 392 396 l 1,46,-1
 408 380 l 1,47,-1
 412 368 l 1,48,-1
 408 356 l 1,0,-1
EndSplineSet
EndChar
StartChar: comma
Encoding: 44 44 12
Width: 176
GlyphClass: 2
Flags: W
LayerCount: 2
Fore
SplineSet
140 -28 m 1,0,-1
 124 -44 l 1,1,-1
 100 -52 l 1,2,-1
 68 -76 l 1,3,-1
 36 -76 l 1,4,-1
 32 -64 l 1,5,-1
 36 -52 l 1,6,-1
 60 -44 l 1,7,-1
 103 -15 l 1,8,-1
 107 7 l 1,9,-1
 115 15 l 1,10,-1
 112 32 l 1,11,-1
 108 44 l 1,12,-1
 100 44 l 1,13,-1
 92 36 l 1,14,-1
 84 36 l 1,15,-1
 52 68 l 1,16,-1
 48 80 l 1,17,-1
 52 92 l 1,18,-1
 68 108 l 1,19,-1
 80 112 l 1,20,-1
 128 112 l 1,21,-1
 140 108 l 1,22,-1
 144 96 l 1,23,-1
 144 -16 l 1,24,-1
 140 -28 l 1,0,-1
EndSplineSet
EndChar
StartChar: period
Encoding: 46 46 14
Width: 128
GlyphClass: 2
Flags: W
LayerCount: 2
Fore
SplineSet
92 39 m 1,0,-1
 76 20 l 1,1,-1
 68 20 l 1,2,-1
 40 35 l 1,3,-1
 32 64 l 1,4,-1
 36 76 l 1,5,-1
 59 85 l 1,6,-1
 68 108 l 1,7,-1
 80 112 l 1,8,-1
 92 108 l 1,9,-1
 105 68 l 1,10,-1
 100 47 l 1,11,-1
 92 39 l 1,0,-1
EndSplineSet
EndChar
StartChar: slash
Encoding: 47 47 15
Width: 242
GlyphClass: 2
Flags: W
LayerCount: 2
Fore
SplineSet
189 335 m 1,0,-1
 154 260 l 1,1,-1
 124 189 l 1,2,-1
 119 175 l 1,3,-1
 115 170 l 1,4,-1
 110 156 l 1,5,-1
 106 151 l 1,6,-1
 89 113 l 1,7,-1
 84 99 l 1,8,-1
 75 80 l 1,9,-1
 58 61 l 1,10,-1
 51 59 l 1,11,-1
 45 61 l 1,12,-1
 43 68 l 1,13,-1
 43 78 l 1,14,-1
 45 85 l 1,15,-1
 49 90 l 1,16,-1
 53 104 l 1,17,-1
 58 109 l 1,18,-1
 97 208 l 1,19,-1
 128 278 l 1,20,-1
 163 363 l 1,21,-1
 167 377 l 1,22,-1
 172 382 l 1,23,-1
 176 396 l 1,24,-1
 194 415 l 1,25,-1
 200 418 l 1,26,-1
 207 415 l 1,27,-1
 209 408 l 1,28,-1
 209 389 l 1,29,-1
 189 335 l 1,0,-1
EndSplineSet
EndChar
StartChar: zero
Encoding: 48 48 16
Width: 400
GlyphClass: 2
Flags: W
LayerCount: 2
Fore
SplineSet
272 352 m 1,0,-1
 268 364 l 1,1,-1
 252 377 l 1,2,-1
 238 384 l 1,3,-1
 226 388 l 1,4,-1
 196 388 l 1,5,-1
 180 380 l 1,6,-1
 165 362 l 1,7,-1
 153 340 l 1,8,-1
 148 330 l 1,9,-1
 129 274 l 1,10,-1
 122 249 l 1,11,-1
 119 237 l 1,12,-1
 116 220 l 1,13,-1
 115 206 l 1,14,-1
 118 174 l 1,15,-1
 139 199 l 1,16,-1
 157 214 l 1,17,-1
 268 340 l 1,18,-1
 272 352 l 1,0,-1
304 288 m 1,19,-1
 300 300 l 1,20,-1
 293 307 l 1,21,-1
 262 277 l 1,22,-1
 204 212 l 1,23,-1
 132 140 l 1,24,-1
 132 132 l 1,25,-1
 137 119 l 1,26,-1
 148 100 l 1,27,-1
 180 68 l 1,28,-1
 199 57 l 1,29,-1
 212 52 l 1,30,-1
 234 50 l 1,31,-1
 251 57 l 1,32,-1
 268 68 l 1,33,-1
 281 86 l 1,34,-1
 285 98 l 1,35,-1
 292 108 l 1,36,-1
 300 132 l 1,37,-1
 306 154 l 1,38,-1
 310 205 l 1,39,-1
 304 288 l 1,19,-1
364 388 m 1,40,-1
 340 364 l 1,41,-1
 336 352 l 1,42,-1
 348 313 l 1,43,-1
 354 273 l 1,44,-1
 356 249 l 1,45,-1
 352 176 l 1,46,-1
 345 148 l 1,47,-1
 341 136 l 1,48,-1
 325 99 l 1,49,-1
 316 84 l 1,50,-1
 280 37 l 1,51,-1
 264 26 l 1,52,-1
 218 13 l 1,53,-1
 198 15 l 1,54,-1
 173 23 l 1,55,-1
 154 35 l 1,56,-1
 110 78 l 1,57,-1
 96 96 l 1,58,-1
 86 86 l 1,59,-1
 44 52 l 1,60,-1
 36 52 l 1,61,-1
 32 64 l 1,62,-1
 32 80 l 1,63,-1
 36 92 l 1,64,-1
 76 132 l 1,65,-1
 73 145 l 1,66,-1
 70 202 l 1,67,-1
 72 222 l 1,68,-1
 73 244 l 1,69,-1
 78 273 l 1,70,-1
 101 338 l 1,71,-1
 128 388 l 1,72,-1
 148 412 l 1,73,-1
 171 420 l 1,74,-1
 189 420 l 1,75,-1
 252 412 l 1,76,-1
 278 400 l 1,77,-1
 304 384 l 1,78,-1
 316 388 l 1,79,-1
 335 409 l 1,80,-1
 348 420 l 1,81,-1
 356 428 l 1,82,-1
 364 428 l 1,83,-1
 368 416 l 1,84,-1
 368 400 l 1,85,-1
 364 388 l 1,40,-1
EndSplineSet
EndChar
StartChar: one
Encoding: 49 49 17
Width: 304
GlyphClass: 2
Flags: W
LayerCount: 2
Fore
SplineSet
268 36 m 1,0,-1
 252 20 l 1,1,-1
 240 16 l 1,2,-1
 112 0 l 1,3,-1
 100 -4 l 1,4,-1
 48 -16 l 1,5,-1
 36 -12 l 1,6,-1
 32 0 l 1,7,-1
 32 16 l 1,8,-1
 38 23 l 1,9,-1
 115 42 l 1,10,-1
 139 50 l 1,11,-1
 135 110 l 1,12,-1
 132 164 l 1,13,-1
 130 197 l 1,14,-1
 128 384 l 1,15,-1
 124 396 l 1,16,-1
 116 396 l 1,17,-1
 108 372 l 1,18,-1
 76 308 l 1,19,-1
 64 304 l 1,20,-1
 52 308 l 1,21,-1
 52 316 l 1,22,-1
 68 348 l 1,23,-1
 108 420 l 1,24,-1
 116 444 l 1,25,-1
 132 460 l 1,26,-1
 144 464 l 1,27,-1
 156 460 l 1,28,-1
 156 452 l 1,29,-1
 160 414 l 1,30,-1
 174 121 l 1,31,-1
 174 98 l 1,32,-1
 176 80 l 1,33,-1
 180 68 l 1,34,-1
 192 64 l 1,35,-1
 208 64 l 1,36,-1
 249 70 l 1,37,-1
 259 67 l 1,38,-1
 268 36 l 1,0,-1
EndSplineSet
EndChar
StartChar: two
Encoding: 50 50 18
Width: 368
GlyphClass: 2
Flags: W
LayerCount: 2
Fore
SplineSet
314 11 m 1,0,-1
 296 4 l 1,1,-1
 266 11 l 1,2,-1
 76 0 l 1,3,-1
 52 3 l 1,4,-1
 40 12 l 1,5,-1
 32 20 l 1,6,-1
 32 28 l 1,7,-1
 48 44 l 1,8,-1
 72 52 l 1,9,-1
 136 116 l 1,10,-1
 157 141 l 1,11,-1
 184 180 l 1,12,-1
 200 212 l 1,13,-1
 218 266 l 1,14,-1
 220 288 l 1,15,-1
 220 384 l 1,16,-1
 216 396 l 1,17,-1
 205 408 l 1,18,-1
 188 416 l 1,19,-1
 156 416 l 1,20,-1
 137 405 l 1,21,-1
 124 387 l 1,22,-1
 112 359 l 1,23,-1
 100 323 l 1,24,-1
 75 322 l 1,25,-1
 71 334 l 1,26,-1
 76 368 l 1,27,-1
 91 405 l 1,28,-1
 107 426 l 1,29,-1
 142 452 l 1,30,-1
 153 455 l 1,31,-1
 189 457 l 1,32,-1
 208 448 l 1,33,-1
 240 419 l 1,34,-1
 252 400 l 1,35,-1
 258 380 l 1,36,-1
 252 249 l 1,37,-1
 248 228 l 1,38,-1
 241 203 l 1,39,-1
 228 177 l 1,40,-1
 200 132 l 1,41,-1
 168 92 l 1,42,-1
 152 68 l 1,43,-1
 144 60 l 1,44,-1
 144 52 l 1,45,-1
 156 48 l 1,46,-1
 300 64 l 1,47,-1
 312 60 l 1,48,-1
 328 44 l 1,49,-1
 328 36 l 1,50,-1
 314 11 l 1,0,-1
EndSplineSet
EndChar
StartChar: three
Encoding: 51 51 19
Width: 256
GlyphClass: 2
Flags: W
LayerCount: 2
Fore
SplineSet
220 132 m 1,0,-1
 189 70 l 1,1,-1
 176 48 l 1,2,-1
 140 3 l 1,3,-1
 112 -12 l 1,4,-1
 48 -16 l 1,5,-1
 36 -12 l 1,6,-1
 32 0 l 1,7,-1
 32 16 l 1,8,-1
 36 28 l 1,9,-1
 48 32 l 1,10,-1
 80 32 l 1,11,-1
 92 36 l 1,12,-1
 124 52 l 1,13,-1
 140 68 l 1,14,-1
 172 116 l 1,15,-1
 188 148 l 1,16,-1
 189 163 l 1,17,-1
 189 185 l 1,18,-1
 185 203 l 1,19,-1
 177 215 l 1,20,-1
 167 224 l 1,21,-1
 64 224 l 1,22,-1
 52 228 l 1,23,-1
 48 240 l 1,24,-1
 52 252 l 1,25,-1
 92 279 l 1,26,-1
 112 310 l 1,27,-1
 120 334 l 1,28,-1
 128 369 l 1,29,-1
 128 384 l 1,30,-1
 127 394 l 1,31,-1
 115 398 l 1,32,-1
 103 394 l 1,33,-1
 60 372 l 1,34,-1
 48 368 l 1,35,-1
 36 372 l 1,36,-1
 32 384 l 1,37,-1
 32 400 l 1,38,-1
 36 412 l 1,39,-1
 96 432 l 1,40,-1
 112 432 l 1,41,-1
 124 428 l 1,42,-1
 156 396 l 1,43,-1
 160 384 l 1,44,-1
 160 368 l 1,45,-1
 159 347 l 1,46,-1
 146 304 l 1,47,-1
 132 276 l 1,48,-1
 156 268 l 1,49,-1
 188 252 l 1,50,-1
 204 236 l 1,51,-1
 220 204 l 1,52,-1
 224 192 l 1,53,-1
 224 144 l 1,54,-1
 220 132 l 1,0,-1
EndSplineSet
EndChar
StartChar: four
Encoding: 52 52 20
Width: 320
GlyphClass: 2
Flags: W
LayerCount: 2
Fore
SplineSet
169 273 m 1,0,-1
 168 330 l 1,1,-1
 164 340 l 1,2,-1
 156 342 l 1,3,-1
 108 244 l 1,4,-1
 96 224 l 1,5,-1
 89 211 l 1,6,-1
 112 208 l 1,7,-1
 128 208 l 1,8,-1
 158 210 l 1,9,-1
 171 215 l 1,10,-1
 169 273 l 1,0,-1
272 192 m 1,11,-1
 240 192 l 1,12,-1
 228 188 l 1,13,-1
 224 176 l 1,14,-1
 224 16 l 1,15,-1
 220 4 l 1,16,-1
 208 0 l 1,17,-1
 196 4 l 1,18,-1
 180 20 l 1,19,-1
 176 32 l 1,20,-1
 176 160 l 1,21,-1
 172 172 l 1,22,-1
 160 176 l 1,23,-1
 48 176 l 1,24,-1
 36 180 l 1,25,-1
 32 192 l 1,26,-1
 36 204 l 1,27,-1
 56 230 l 1,28,-1
 68 252 l 1,29,-1
 100 300 l 1,30,-1
 143 398 l 1,31,-1
 151 406 l 1,32,-1
 155 418 l 1,33,-1
 157 431 l 1,34,-1
 156 444 l 1,35,-1
 157 454 l 1,36,-1
 157 462 l 1,37,-1
 164 476 l 1,38,-1
 172 476 l 1,39,-1
 188 460 l 1,40,-1
 192 448 l 1,41,-1
 208 336 l 1,42,-1
 214 240 l 1,43,-1
 218 228 l 1,44,-1
 230 224 l 1,45,-1
 272 224 l 1,46,-1
 284 220 l 1,47,-1
 288 208 l 1,48,-1
 284 196 l 1,49,-1
 272 192 l 1,11,-1
EndSplineSet
EndChar
StartChar: five
Encoding: 53 53 21
Width: 336
GlyphClass: 2
Flags: W
LayerCount: 2
Fore
SplineSet
296 452 m 1,0,-1
 280 436 l 1,1,-1
 272 436 l 1,2,-1
 252 432 l 1,3,-1
 188 432 l 1,4,-1
 146 434 l 1,5,-1
 130 434 l 1,6,-1
 118 430 l 1,7,-1
 114 418 l 1,8,-1
 116 336 l 1,9,-1
 119 306 l 1,10,-1
 128 235 l 1,11,-1
 179 235 l 1,12,-1
 203 229 l 1,13,-1
 218 222 l 1,14,-1
 246 186 l 1,15,-1
 260 163 l 1,16,-1
 268 128 l 1,17,-1
 268 48 l 1,18,-1
 264 36 l 1,19,-1
 232 4 l 1,20,-1
 220 0 l 1,21,-1
 204 0 l 1,22,-1
 192 4 l 1,23,-1
 160 36 l 1,24,-1
 156 48 l 1,25,-1
 156 64 l 1,26,-1
 160 76 l 1,27,-1
 168 76 l 1,28,-1
 192 52 l 1,29,-1
 204 48 l 1,30,-1
 220 48 l 1,31,-1
 232 52 l 1,32,-1
 238 75 l 1,33,-1
 234 105 l 1,34,-1
 216 156 l 1,35,-1
 208 167 l 1,36,-1
 186 186 l 1,37,-1
 156 195 l 1,38,-1
 109 194 l 1,39,-1
 93 194 l 1,40,-1
 81 198 l 1,41,-1
 77 210 l 1,42,-1
 64 324 l 1,43,-1
 60 432 l 1,44,-1
 56 444 l 1,45,-1
 32 452 l 1,46,-1
 32 469 l 1,47,-1
 67 469 l 1,48,-1
 75 477 l 1,49,-1
 99 473 l 1,50,-1
 107 465 l 1,51,-1
 119 461 l 1,52,-1
 284 464 l 1,53,-1
 296 460 l 1,54,-1
 296 452 l 1,0,-1
EndSplineSet
EndChar
StartChar: six
Encoding: 54 54 22
Width: 272
GlyphClass: 2
Flags: W
LayerCount: 2
Fore
SplineSet
196 49 m 1,0,-1
 188 62 l 1,1,-1
 168 76 l 1,2,-1
 150 82 l 1,3,-1
 125 86 l 1,4,-1
 113 82 l 1,5,-1
 109 70 l 1,6,-1
 112 53 l 1,7,-1
 125 33 l 1,8,-1
 144 20 l 1,9,-1
 162 17 l 1,10,-1
 185 20 l 1,11,-1
 198 33 l 1,12,-1
 196 49 l 1,0,-1
216 60 m 1,13,-1
 208 60 l 1,14,-1
 208 52 l 1,15,-1
 216 52 l 1,16,-1
 216 60 l 1,13,-1
232 20 m 1,17,-1
 216 4 l 1,18,-1
 197 -8 l 1,19,-1
 172 -16 l 1,20,-1
 140 -16 l 1,21,-1
 107 -5 l 1,22,-1
 87 15 l 1,23,-1
 77 39 l 1,24,-1
 65 75 l 1,25,-1
 48 84 l 1,26,-1
 32 100 l 1,27,-1
 32 108 l 1,28,-1
 58 117 l 1,29,-1
 64 154 l 1,30,-1
 70 200 l 1,31,-1
 76 240 l 1,32,-1
 112 348 l 1,33,-1
 128 380 l 1,34,-1
 147 409 l 1,35,-1
 192 460 l 1,36,-1
 204 464 l 1,37,-1
 220 464 l 1,38,-1
 232 460 l 1,39,-1
 232 452 l 1,40,-1
 212 435 l 1,41,-1
 183 399 l 1,42,-1
 157 351 l 1,43,-1
 148 332 l 1,44,-1
 140 304 l 1,45,-1
 128 252 l 1,46,-1
 122 223 l 1,47,-1
 112 162 l 1,48,-1
 108 144 l 1,49,-1
 108 128 l 1,50,-1
 119 122 l 1,51,-1
 153 116 l 1,52,-1
 177 107 l 1,53,-1
 211 86 l 1,54,-1
 232 60 l 1,55,-1
 236 48 l 1,56,-1
 236 32 l 1,57,-1
 232 20 l 1,17,-1
EndSplineSet
EndChar
StartChar: seven
Encoding: 55 55 23
Width: 352
GlyphClass: 2
Flags: W
LayerCount: 2
Fore
SplineSet
304 336 m 1,0,-1
 240 112 l 1,1,-1
 236 100 l 1,2,-1
 224 48 l 1,3,-1
 220 36 l 1,4,-1
 212 28 l 1,5,-1
 208 16 l 1,6,-1
 208 0 l 1,7,-1
 204 -12 l 1,8,-1
 189 -16 l 1,9,-1
 181 -16 l 1,10,-1
 164 -12 l 1,11,-1
 160 0 l 1,12,-1
 160 32 l 1,13,-1
 180 92 l 1,14,-1
 240 304 l 1,15,-1
 260 364 l 1,16,-1
 268 372 l 1,17,-1
 272 384 l 1,18,-1
 272 400 l 1,19,-1
 268 412 l 1,20,-1
 204 404 l 1,21,-1
 192 400 l 1,22,-1
 80 384 l 1,23,-1
 48 384 l 1,24,-1
 36 388 l 1,25,-1
 32 400 l 1,26,-1
 36 412 l 1,27,-1
 48 416 l 1,28,-1
 132 428 l 1,29,-1
 144 432 l 1,30,-1
 244 444 l 1,31,-1
 256 448 l 1,32,-1
 310 455 l 1,33,-1
 322 451 l 1,34,-1
 326 439 l 1,35,-1
 319 390 l 1,36,-1
 316 372 l 1,37,-1
 304 336 l 1,0,-1
EndSplineSet
EndChar
StartChar: eight
Encoding: 56 56 24
Width: 272
GlyphClass: 2
Flags: W
LayerCount: 2
Fore
SplineSet
171 353 m 1,0,-1
 171 401 l 1,1,-1
 163 425 l 1,2,-1
 151 440 l 1,3,-1
 129 446 l 1,4,-1
 110 439 l 1,5,-1
 96 419 l 1,6,-1
 88 387 l 1,7,-1
 91 353 l 1,8,-1
 99 336 l 1,9,-1
 111 325 l 1,10,-1
 123 321 l 1,11,-1
 139 321 l 1,12,-1
 151 325 l 1,13,-1
 163 335 l 1,14,-1
 171 353 l 1,0,-1
206 145 m 1,15,-1
 206 188 l 1,16,-1
 204 220 l 1,17,-1
 200 238 l 1,18,-1
 196 249 l 1,19,-1
 188 263 l 1,20,-1
 172 279 l 1,21,-1
 160 283 l 1,22,-1
 128 280 l 1,23,-1
 116 276 l 1,24,-1
 100 263 l 1,25,-1
 90 249 l 1,26,-1
 84 236 l 1,27,-1
 76 212 l 1,28,-1
 70 188 l 1,29,-1
 66 168 l 1,30,-1
 65 154 l 1,31,-1
 67 133 l 1,32,-1
 70 115 l 1,33,-1
 73 100 l 1,34,-1
 79 83 l 1,35,-1
 97 65 l 1,36,-1
 116 58 l 1,37,-1
 146 58 l 1,38,-1
 175 78 l 1,39,-1
 189 98 l 1,40,-1
 203 127 l 1,41,-1
 206 145 l 1,15,-1
231 91 m 1,42,-1
 221 67 l 1,43,-1
 205 40 l 1,44,-1
 187 21 l 1,45,-1
 171 12 l 1,46,-1
 155 5 l 1,47,-1
 139 2 l 1,48,-1
 98 5 l 1,49,-1
 78 11 l 1,50,-1
 55 27 l 1,51,-1
 43 46 l 1,52,-1
 27 110 l 1,53,-1
 29 192 l 1,54,-1
 34 215 l 1,55,-1
 41 243 l 1,56,-1
 47 255 l 1,57,-1
 76 298 l 1,58,-1
 86 304 l 1,59,-1
 73 314 l 1,60,-1
 63 333 l 1,61,-1
 59 369 l 1,62,-1
 61 402 l 1,63,-1
 70 429 l 1,64,-1
 82 451 l 1,65,-1
 96 468 l 1,66,-1
 128 481 l 1,67,-1
 155 481 l 1,68,-1
 167 477 l 1,69,-1
 183 461 l 1,70,-1
 194 443 l 1,71,-1
 203 417 l 1,72,-1
 203 369 l 1,73,-1
 200 350 l 1,74,-1
 198 342 l 1,75,-1
 179 314 l 1,76,-1
 188 316 l 1,77,-1
 212 302 l 1,78,-1
 228 281 l 1,79,-1
 240 256 l 1,80,-1
 247 233 l 1,81,-1
 250 207 l 1,82,-1
 246 154 l 1,83,-1
 240 120 l 1,84,-1
 231 91 l 1,42,-1
EndSplineSet
EndChar
StartChar: nine
Encoding: 57 57 25
Width: 304
GlyphClass: 2
Flags: W
LayerCount: 2
Fore
SplineSet
194 333 m 1,0,-1
 191 347 l 1,1,-1
 185 359 l 1,2,-1
 169 375 l 1,3,-1
 157 379 l 1,4,-1
 125 377 l 1,5,-1
 105 367 l 1,6,-1
 84 347 l 1,7,-1
 79 339 l 1,8,-1
 77 324 l 1,9,-1
 84 300 l 1,10,-1
 100 281 l 1,11,-1
 113 274 l 1,12,-1
 131 272 l 1,13,-1
 148 273 l 1,14,-1
 161 278 l 1,15,-1
 170 284 l 1,16,-1
 181 297 l 1,17,-1
 188 307 l 1,18,-1
 191 316 l 1,19,-1
 194 333 l 1,0,-1
269 230 m 1,20,-1
 262 186 l 1,21,-1
 258 166 l 1,22,-1
 254 150 l 1,23,-1
 244 120 l 1,24,-1
 240 107 l 1,25,-1
 232 88 l 1,26,-1
 223 70 l 1,27,-1
 200 33 l 1,28,-1
 176 4 l 1,29,-1
 141 -25 l 1,30,-1
 115 -39 l 1,31,-1
 81 -48 l 1,32,-1
 48 -48 l 1,33,-1
 38 -39 l 1,34,-1
 38 -23 l 1,35,-1
 44 -19 l 1,36,-1
 88 -8 l 1,37,-1
 105 0 l 1,38,-1
 140 28 l 1,39,-1
 170 68 l 1,40,-1
 186 99 l 1,41,-1
 195 119 l 1,42,-1
 204 148 l 1,43,-1
 210 185 l 1,44,-1
 215 253 l 1,45,-1
 213 267 l 1,46,-1
 200 255 l 1,47,-1
 180 245 l 1,48,-1
 165 240 l 1,49,-1
 121 235 l 1,50,-1
 100 237 l 1,51,-1
 85 242 l 1,52,-1
 68 253 l 1,53,-1
 44 287 l 1,54,-1
 37 306 l 1,55,-1
 37 322 l 1,56,-1
 43 343 l 1,57,-1
 57 364 l 1,58,-1
 83 388 l 1,59,-1
 87 391 l 1,60,-1
 114 405 l 1,61,-1
 159 411 l 1,62,-1
 169 410 l 1,63,-1
 199 403 l 1,64,-1
 226 385 l 1,65,-1
 249 356 l 1,66,-1
 258 331 l 1,67,-1
 265 293 l 1,68,-1
 268 275 l 1,69,-1
 269 256 l 1,70,-1
 269 230 l 1,20,-1
EndSplineSet
EndChar
StartChar: colon
Encoding: 58 58 26
Width: 144
GlyphClass: 2
Flags: W
LayerCount: 2
Fore
SplineSet
92 313 m 1,0,-1
 76 297 l 1,1,-1
 64 293 l 1,2,-1
 52 297 l 1,3,-1
 36 313 l 1,4,-1
 32 325 l 1,5,-1
 36 337 l 1,6,-1
 44 345 l 1,7,-1
 52 369 l 1,8,-1
 68 385 l 1,9,-1
 76 385 l 1,10,-1
 92 369 l 1,11,-1
 96 357 l 1,12,-1
 96 325 l 1,13,-1
 92 313 l 1,0,-1
96 85 m 1,14,-1
 64 85 l 1,15,-1
 52 89 l 1,16,-1
 36 105 l 1,17,-1
 32 117 l 1,18,-1
 36 129 l 1,19,-1
 48 133 l 1,20,-1
 80 133 l 1,21,-1
 92 129 l 1,22,-1
 108 113 l 1,23,-1
 112 101 l 1,24,-1
 108 89 l 1,25,-1
 96 85 l 1,14,-1
EndSplineSet
EndChar
StartChar: semicolon
Encoding: 59 59 27
Width: 192
GlyphClass: 2
Flags: W
LayerCount: 2
Fore
SplineSet
120 360 m 1,0,-1
 104 344 l 1,1,-1
 92 340 l 1,2,-1
 60 340 l 1,3,-1
 48 344 l 1,4,-1
 44 356 l 1,5,-1
 44 372 l 1,6,-1
 48 384 l 1,7,-1
 64 400 l 1,8,-1
 76 404 l 1,9,-1
 92 404 l 1,10,-1
 104 400 l 1,11,-1
 120 384 l 1,12,-1
 124 372 l 1,13,-1
 120 360 l 1,0,-1
147 151 m 1,14,-1
 136 136 l 1,15,-1
 88 88 l 1,16,-1
 76 84 l 1,17,-1
 60 84 l 1,18,-1
 48 88 l 1,19,-1
 32 104 l 1,20,-1
 32 112 l 1,21,-1
 44 116 l 1,22,-1
 76 116 l 1,23,-1
 88 120 l 1,24,-1
 104 136 l 1,25,-1
 114 154 l 1,26,-1
 120 168 l 1,27,-1
 124 180 l 1,28,-1
 120 192 l 1,29,-1
 96 193 l 1,30,-1
 82 215 l 1,31,-1
 82 231 l 1,32,-1
 86 243 l 1,33,-1
 98 247 l 1,34,-1
 124 248 l 1,35,-1
 136 240 l 1,36,-1
 149 223 l 1,37,-1
 156 207 l 1,38,-1
 156 180 l 1,39,-1
 152 168 l 1,40,-1
 147 151 l 1,14,-1
EndSplineSet
EndChar
StartChar: less
Encoding: 60 60 28
Width: 272
GlyphClass: 2
Flags: W
LayerCount: 2
Fore
SplineSet
224 224 m 1,0,-1
 212 228 l 1,1,-1
 180 244 l 1,2,-1
 112 272 l 1,3,-1
 99 283 l 1,4,-1
 64 304 l 1,5,-1
 48 304 l 1,6,-1
 36 308 l 1,7,-1
 32 320 l 1,8,-1
 36 332 l 1,9,-1
 60 340 l 1,10,-1
 212 492 l 1,11,-1
 224 496 l 1,12,-1
 236 492 l 1,13,-1
 236 484 l 1,14,-1
 228 476 l 1,15,-1
 220 452 l 1,16,-1
 100 332 l 1,17,-1
 100 324 l 1,18,-1
 116 308 l 1,19,-1
 180 276 l 1,20,-1
 192 272 l 1,21,-1
 208 272 l 1,22,-1
 220 268 l 1,23,-1
 236 252 l 1,24,-1
 240 240 l 1,25,-1
 236 228 l 1,26,-1
 224 224 l 1,0,-1
EndSplineSet
EndChar
StartChar: equal
Encoding: 61 61 29
Width: 336
GlyphClass: 2
Flags: W
LayerCount: 2
Fore
SplineSet
268 368 m 1,0,-1
 206 367 l 1,1,-1
 194 363 l 1,2,-1
 168 356 l 1,3,-1
 152 354 l 1,4,-1
 76 352 l 1,5,-1
 64 348 l 1,6,-1
 56 340 l 1,7,-1
 44 336 l 1,8,-1
 32 340 l 1,9,-1
 32 348 l 1,10,-1
 48 364 l 1,11,-1
 72 372 l 1,12,-1
 80 380 l 1,13,-1
 92 384 l 1,14,-1
 156 384 l 1,15,-1
 252 400 l 1,16,-1
 268 400 l 1,17,-1
 280 396 l 1,18,-1
 284 384 l 1,19,-1
 280 372 l 1,20,-1
 268 368 l 1,0,-1
296 276 m 1,21,-1
 280 260 l 1,22,-1
 268 256 l 1,23,-1
 44 256 l 1,24,-1
 32 260 l 1,25,-1
 32 268 l 1,26,-1
 48 284 l 1,27,-1
 60 288 l 1,28,-1
 188 288 l 1,29,-1
 200 292 l 1,30,-1
 224 292 l 1,31,-1
 236 288 l 1,32,-1
 284 288 l 1,33,-1
 296 284 l 1,34,-1
 296 276 l 1,21,-1
EndSplineSet
EndChar
StartChar: greater
Encoding: 62 62 30
Width: 304
GlyphClass: 2
Flags: W
LayerCount: 2
Fore
SplineSet
264 340 m 1,0,-1
 240 332 l 1,1,-1
 88 180 l 1,2,-1
 76 176 l 1,3,-1
 60 176 l 1,4,-1
 48 180 l 1,5,-1
 44 192 l 1,6,-1
 48 204 l 1,7,-1
 179 324 l 1,8,-1
 201 352 l 1,9,-1
 198 366 l 1,10,-1
 184 380 l 1,11,-1
 96 436 l 1,12,-1
 32 500 l 1,13,-1
 32 508 l 1,14,-1
 44 512 l 1,15,-1
 56 508 l 1,16,-1
 88 492 l 1,17,-1
 154 437 l 1,18,-1
 195 410 l 1,19,-1
 224 388 l 1,20,-1
 248 380 l 1,21,-1
 264 364 l 1,22,-1
 268 352 l 1,23,-1
 264 340 l 1,0,-1
EndSplineSet
EndChar
StartChar: question
Encoding: 63 63 31
Width: 320
GlyphClass: 2
Flags: W
LayerCount: 2
Fore
SplineSet
175 44 m 1,0,-1
 179 57 l 1,1,-1
 187 67 l 1,2,-1
 200 71 l 1,3,-1
 218 70 l 1,4,-1
 232 66 l 1,5,-1
 236 52 l 1,6,-1
 236 16 l 1,7,-1
 232 3 l 1,8,-1
 218 -2 l 1,9,-1
 200 -1 l 1,10,-1
 187 4 l 1,11,-1
 169 22 l 1,12,-1
 169 31 l 1,13,-1
 175 44 l 1,0,-1
37 477 m 1,14,-1
 43 486 l 1,15,-1
 48 500 l 1,16,-1
 62 522 l 1,17,-1
 69 535 l 1,18,-1
 78 544 l 1,19,-1
 91 554 l 1,20,-1
 121 572 l 1,21,-1
 134 575 l 1,22,-1
 206 575 l 1,23,-1
 220 570 l 1,24,-1
 233 568 l 1,25,-1
 246 563 l 1,26,-1
 274 549 l 1,27,-1
 310 515 l 1,28,-1
 314 501 l 1,29,-1
 309 488 l 1,30,-1
 305 476 l 1,31,-1
 300 465 l 1,32,-1
 291 453 l 1,33,-1
 256 421 l 1,34,-1
 240 412 l 1,35,-1
 200 400 l 1,36,-1
 186 395 l 1,37,-1
 173 391 l 1,38,-1
 168 377 l 1,39,-1
 173 294 l 1,40,-1
 177 276 l 1,41,-1
 181 265 l 1,42,-1
 185 251 l 1,43,-1
 187 216 l 1,44,-1
 189 202 l 1,45,-1
 189 175 l 1,46,-1
 179 148 l 1,47,-1
 170 148 l 1,48,-1
 153 166 l 1,49,-1
 148 179 l 1,50,-1
 133 284 l 1,51,-1
 131 305 l 1,52,-1
 132 413 l 1,53,-1
 138 427 l 1,54,-1
 151 431 l 1,55,-1
 187 431 l 1,56,-1
 201 436 l 1,57,-1
 224 446 l 1,58,-1
 237 453 l 1,59,-1
 252 472 l 1,60,-1
 259 484 l 1,61,-1
 264 498 l 1,62,-1
 267 510 l 1,63,-1
 267 519 l 1,64,-1
 260 529 l 1,65,-1
 242 538 l 1,66,-1
 211 544 l 1,67,-1
 166 544 l 1,68,-1
 151 543 l 1,69,-1
 134 539 l 1,70,-1
 123 535 l 1,71,-1
 86 499 l 1,72,-1
 79 486 l 1,73,-1
 75 473 l 1,74,-1
 71 462 l 1,75,-1
 65 449 l 1,76,-1
 58 438 l 1,77,-1
 47 431 l 1,78,-1
 34 437 l 1,79,-1
 29 450 l 1,80,-1
 30 465 l 1,81,-1
 37 477 l 1,14,-1
EndSplineSet
EndChar
StartChar: at
Encoding: 64 64 32
Width: 432
GlyphClass: 2
Flags: W
LayerCount: 2
Fore
SplineSet
216 315 m 1,0,-1
 212 327 l 1,1,-1
 192 330 l 1,2,-1
 137 283 l 1,3,-1
 135 257 l 1,4,-1
 141 252 l 1,5,-1
 152 249 l 1,6,-1
 209 284 l 1,7,-1
 216 315 l 1,0,-1
388 156 m 1,8,-1
 380 132 l 1,9,-1
 332 84 l 1,10,-1
 320 80 l 1,11,-1
 268 52 l 1,12,-1
 256 48 l 1,13,-1
 204 36 l 1,14,-1
 192 32 l 1,15,-1
 160 32 l 1,16,-1
 148 36 l 1,17,-1
 116 52 l 1,18,-1
 68 100 l 1,19,-1
 52 132 l 1,20,-1
 48 144 l 1,21,-1
 32 208 l 1,22,-1
 32 320 l 1,23,-1
 36 332 l 1,24,-1
 38 342 l 1,25,-1
 42 354 l 1,26,-1
 48 368 l 1,27,-1
 52 380 l 1,28,-1
 116 444 l 1,29,-1
 192 480 l 1,30,-1
 272 480 l 1,31,-1
 284 476 l 1,32,-1
 332 428 l 1,33,-1
 336 416 l 1,34,-1
 336 288 l 1,35,-1
 332 276 l 1,36,-1
 316 244 l 1,37,-1
 284 212 l 1,38,-1
 272 208 l 1,39,-1
 248 216 l 1,40,-1
 220 252 l 1,41,-1
 212 252 l 1,42,-1
 184 226 l 1,43,-1
 176 218 l 1,44,-1
 153 209 l 1,45,-1
 140 207 l 1,46,-1
 128 203 l 1,47,-1
 100 212 l 1,48,-1
 93 242 l 1,49,-1
 99 274 l 1,50,-1
 104 289 l 1,51,-1
 115 306 l 1,52,-1
 160 345 l 1,53,-1
 184 353 l 1,54,-1
 220 356 l 1,55,-1
 224 368 l 1,56,-1
 224 384 l 1,57,-1
 235 390 l 1,58,-1
 243 390 l 1,59,-1
 252 380 l 1,60,-1
 256 368 l 1,61,-1
 256 272 l 1,62,-1
 260 260 l 1,63,-1
 272 256 l 1,64,-1
 284 260 l 1,65,-1
 300 292 l 1,66,-1
 304 304 l 1,67,-1
 304 400 l 1,68,-1
 300 412 l 1,69,-1
 268 444 l 1,70,-1
 256 448 l 1,71,-1
 208 448 l 1,72,-1
 148 428 l 1,73,-1
 84 364 l 1,74,-1
 80 352 l 1,75,-1
 74 338 l 1,76,-1
 70 326 l 1,77,-1
 68 316 l 1,78,-1
 64 304 l 1,79,-1
 64 208 l 1,80,-1
 68 196 l 1,81,-1
 77 173 l 1,82,-1
 80 160 l 1,83,-1
 84 148 l 1,84,-1
 92 140 l 1,85,-1
 130 83 l 1,86,-1
 149 73 l 1,87,-1
 221 72 l 1,88,-1
 284 93 l 1,89,-1
 312 112 l 1,90,-1
 367 183 l 1,91,-1
 388 204 l 1,92,-1
 396 204 l 1,93,-1
 400 192 l 1,94,-1
 400 176 l 1,95,-1
 396 164 l 1,96,-1
 388 156 l 1,8,-1
EndSplineSet
EndChar
StartChar: B
Encoding: 66 66 34
AltUni2: 000392.ffffffff.0 000412.ffffffff.0
Width: 352
GlyphClass: 2
Flags: W
AnchorPoint: "bottomattside" 243 145 basechar 0
AnchorPoint: "bottom" 220 77 basechar 0
AnchorPoint: "top" 133 604 basechar 0
LayerCount: 2
Fore
SplineSet
192 480 m 1,0,-1
 192 496 l 1,1,-1
 188 508 l 1,2,-1
 165 531 l 1,3,-1
 140 539 l 1,4,-1
 124 539 l 1,5,-1
 112 535 l 1,6,-1
 108 523 l 1,7,-1
 107 454 l 1,8,-1
 105 425 l 1,9,-1
 116 420 l 1,10,-1
 124 420 l 1,11,-1
 147 425 l 1,12,-1
 167 437 l 1,13,-1
 188 468 l 1,14,-1
 192 480 l 1,0,-1
276 286 m 1,15,-1
 268 310 l 1,16,-1
 252 326 l 1,17,-1
 240 336 l 1,18,-1
 196 352 l 1,19,-1
 184 356 l 1,20,-1
 130 367 l 1,21,-1
 116 364 l 1,22,-1
 112 352 l 1,23,-1
 119 253 l 1,24,-1
 120 230 l 1,25,-1
 122 211 l 1,26,-1
 125 190 l 1,27,-1
 129 147 l 1,28,-1
 133 135 l 1,29,-1
 141 135 l 1,30,-1
 157 137 l 1,31,-1
 181 143 l 1,32,-1
 203 156 l 1,33,-1
 234 183 l 1,34,-1
 268 233 l 1,35,-1
 276 262 l 1,36,-1
 276 286 l 1,15,-1
316 244 m 1,37,-1
 284 180 l 1,38,-1
 246 142 l 1,39,-1
 188 100 l 1,40,-1
 156 84 l 1,41,-1
 144 80 l 1,42,-1
 112 80 l 1,43,-1
 100 84 l 1,44,-1
 96 96 l 1,45,-1
 80 288 l 1,46,-1
 73 352 l 1,47,-1
 69 364 l 1,48,-1
 48 368 l 1,49,-1
 36 372 l 1,50,-1
 32 384 l 1,51,-1
 36 396 l 1,52,-1
 48 400 l 1,53,-1
 64 400 l 1,54,-1
 70 404 l 1,55,-1
 74 416 l 1,56,-1
 74 512 l 1,57,-1
 70 524 l 1,58,-1
 60 540 l 1,59,-1
 36 548 l 1,60,-1
 32 560 l 1,61,-1
 36 572 l 1,62,-1
 48 576 l 1,63,-1
 144 576 l 1,64,-1
 156 572 l 1,65,-1
 188 556 l 1,66,-1
 204 540 l 1,67,-1
 220 508 l 1,68,-1
 224 496 l 1,69,-1
 219 456 l 1,70,-1
 204 436 l 1,71,-1
 191 422 l 1,72,-1
 164 404 l 1,73,-1
 236 380 l 1,74,-1
 280 358 l 1,75,-1
 295 345 l 1,76,-1
 317 309 l 1,77,-1
 321 290 l 1,78,-1
 320 256 l 1,79,-1
 316 244 l 1,37,-1
EndSplineSet
EndChar
StartChar: C
Encoding: 67 67 35
AltUni2: 000421.ffffffff.0
Width: 320
GlyphClass: 2
Flags: W
AnchorPoint: "bottomattside" 268 21 basechar 0
AnchorPoint: "bottom" 189 -10 basechar 0
AnchorPoint: "top" 184 568 basechar 0
LayerCount: 2
Fore
SplineSet
284 36 m 1,0,-1
 268 20 l 1,1,-1
 256 16 l 1,2,-1
 209 17 l 1,3,-1
 196 20 l 1,4,-1
 176 26 l 1,5,-1
 129 43 l 1,6,-1
 83 78 l 1,7,-1
 56 113 l 1,8,-1
 44 147 l 1,9,-1
 38 173 l 1,10,-1
 26 263 l 1,11,-1
 30 321 l 1,12,-1
 31 337 l 1,13,-1
 40 375 l 1,14,-1
 53 411 l 1,15,-1
 70 440 l 1,16,-1
 115 491 l 1,17,-1
 144 514 l 1,18,-1
 163 523 l 1,19,-1
 188 529 l 1,20,-1
 204 530 l 1,21,-1
 224 528 l 1,22,-1
 236 524 l 1,23,-1
 236 516 l 1,24,-1
 220 500 l 1,25,-1
 208 496 l 1,26,-1
 196 493 l 1,27,-1
 184 489 l 1,28,-1
 172 484 l 1,29,-1
 128 440 l 1,30,-1
 107 410 l 1,31,-1
 93 377 l 1,32,-1
 89 365 l 1,33,-1
 79 312 l 1,34,-1
 94 165 l 1,35,-1
 111 128 l 1,36,-1
 122 113 l 1,37,-1
 146 97 l 1,38,-1
 172 85 l 1,39,-1
 187 81 l 1,40,-1
 215 75 l 1,41,-1
 239 72 l 1,42,-1
 256 64 l 1,43,-1
 268 60 l 1,44,-1
 284 44 l 1,45,-1
 284 36 l 1,0,-1
EndSplineSet
EndChar
StartChar: D
Encoding: 68 68 36
Width: 352
GlyphClass: 2
Flags: W
AnchorPoint: "bottomattside" 235 133 basechar 0
AnchorPoint: "bottom" 154 20 basechar 0
AnchorPoint: "top" 184 584 basechar 0
LayerCount: 2
Fore
SplineSet
280 385 m 1,0,-1
 277 446 l 1,1,-1
 273 458 l 1,2,-1
 257 476 l 1,3,-1
 230 493 l 1,4,-1
 199 501 l 1,5,-1
 174 500 l 1,6,-1
 139 498 l 1,7,-1
 126 497 l 1,8,-1
 95 491 l 1,9,-1
 89 487 l 1,10,-1
 84 482 l 1,11,-1
 90 154 l 1,12,-1
 91 137 l 1,13,-1
 92 112 l 1,14,-1
 96 100 l 1,15,-1
 117 98 l 1,16,-1
 153 115 l 1,17,-1
 165 124 l 1,18,-1
 196 159 l 1,19,-1
 221 199 l 1,20,-1
 243 246 l 1,21,-1
 265 302 l 1,22,-1
 273 333 l 1,23,-1
 280 385 l 1,0,-1
312 324 m 1,24,-1
 299 272 l 1,25,-1
 278 213 l 1,26,-1
 260 173 l 1,27,-1
 236 133 l 1,28,-1
 200 98 l 1,29,-1
 137 56 l 1,30,-1
 108 48 l 1,31,-1
 92 48 l 1,32,-1
 67 50 l 1,33,-1
 57 59 l 1,34,-1
 48 114 l 1,35,-1
 48 500 l 1,36,-1
 40 524 l 1,37,-1
 32 532 l 1,38,-1
 32 540 l 1,39,-1
 40 550 l 1,40,-1
 48 550 l 1,41,-1
 64 548 l 1,42,-1
 76 544 l 1,43,-1
 161 550 l 1,44,-1
 174 548 l 1,45,-1
 182 546 l 1,46,-1
 201 544 l 1,47,-1
 248 527 l 1,48,-1
 267 516 l 1,49,-1
 277 511 l 1,50,-1
 299 493 l 1,51,-1
 312 476 l 1,52,-1
 320 454 l 1,53,-1
 322 405 l 1,54,-1
 312 324 l 1,24,-1
EndSplineSet
EndChar
StartChar: E
Encoding: 69 69 37
AltUni2: 000395.ffffffff.0 000415.ffffffff.0 000388.ffffffff.0
Width: 337
GlyphClass: 2
Flags: W
AnchorPoint: "bottomattside" 268 50 basechar 0
AnchorPoint: "bottom" 184 0 basechar 0
AnchorPoint: "top" 133 609 basechar 0
LayerCount: 2
Fore
SplineSet
295 67 m 1,0,-1
 268 50 l 1,1,-1
 196 50 l 1,2,-1
 159 47 l 1,3,-1
 144 46 l 1,4,-1
 112 47 l 1,5,-1
 79 46 l 1,6,-1
 67 55 l 1,7,-1
 67 83 l 1,8,-1
 71 95 l 1,9,-1
 71 273 l 1,10,-1
 67 285 l 1,11,-1
 59 299 l 1,12,-1
 47 303 l 1,13,-1
 31 303 l 1,14,-1
 19 307 l 1,15,-1
 15 319 l 1,16,-1
 19 331 l 1,17,-1
 31 335 l 1,18,-1
 51 334 l 1,19,-1
 63 338 l 1,20,-1
 67 350 l 1,21,-1
 67 500 l 1,22,-1
 63 512 l 1,23,-1
 55 520 l 1,24,-1
 51 538 l 1,25,-1
 55 550 l 1,26,-1
 63 558 l 1,27,-1
 116 554 l 1,28,-1
 148 562 l 1,29,-1
 160 566 l 1,30,-1
 224 566 l 1,31,-1
 236 562 l 1,32,-1
 240 550 l 1,33,-1
 236 538 l 1,34,-1
 224 534 l 1,35,-1
 208 534 l 1,36,-1
 196 530 l 1,37,-1
 154 522 l 1,38,-1
 131 519 l 1,39,-1
 119 515 l 1,40,-1
 114 506 l 1,41,-1
 110 494 l 1,42,-1
 112 368 l 1,43,-1
 116 356 l 1,44,-1
 132 340 l 1,45,-1
 164 340 l 1,46,-1
 214 338 l 1,47,-1
 236 340 l 1,48,-1
 268 332 l 1,49,-1
 272 320 l 1,50,-1
 268 308 l 1,51,-1
 256 304 l 1,52,-1
 228 300 l 1,53,-1
 212 300 l 1,54,-1
 161 301 l 1,55,-1
 138 300 l 1,56,-1
 126 296 l 1,57,-1
 121 287 l 1,58,-1
 123 220 l 1,59,-1
 128 192 l 1,60,-1
 128 110 l 1,61,-1
 132 98 l 1,62,-1
 145 86 l 1,63,-1
 272 93 l 1,64,-1
 292 106 l 1,65,-1
 300 106 l 1,66,-1
 304 94 l 1,67,-1
 295 67 l 1,0,-1
EndSplineSet
EndChar
StartChar: F
Encoding: 70 70 38
Width: 288
GlyphClass: 2
Flags: W
AnchorPoint: "bottomattside" 70 89 basechar 0
AnchorPoint: "bottom" 82 10 basechar 0
AnchorPoint: "top" 138 553 basechar 0
LayerCount: 2
Fore
SplineSet
240 336 m 1,0,-1
 228 340 l 1,1,-1
 219 341 l 1,2,-1
 207 345 l 1,3,-1
 191 345 l 1,4,-1
 179 341 l 1,5,-1
 172 340 l 1,6,-1
 160 336 l 1,7,-1
 96 336 l 1,8,-1
 84 332 l 1,9,-1
 80 320 l 1,10,-1
 80 128 l 1,11,-1
 84 116 l 1,12,-1
 92 108 l 1,13,-1
 96 96 l 1,14,-1
 96 80 l 1,15,-1
 92 68 l 1,16,-1
 80 62 l 1,17,-1
 48 73 l 1,18,-1
 44 85 l 1,19,-1
 38 186 l 1,20,-1
 39 336 l 1,21,-1
 35 348 l 1,22,-1
 27 356 l 1,23,-1
 27 364 l 1,24,-1
 35 372 l 1,25,-1
 39 384 l 1,26,-1
 39 464 l 1,27,-1
 35 476 l 1,28,-1
 27 484 l 1,29,-1
 23 496 l 1,30,-1
 27 508 l 1,31,-1
 39 512 l 1,32,-1
 208 512 l 1,33,-1
 220 508 l 1,34,-1
 236 492 l 1,35,-1
 236 484 l 1,36,-1
 224 480 l 1,37,-1
 208 480 l 1,38,-1
 196 476 l 1,39,-1
 190 477 l 1,40,-1
 178 473 l 1,41,-1
 146 473 l 1,42,-1
 134 477 l 1,43,-1
 112 480 l 1,44,-1
 96 480 l 1,45,-1
 84 476 l 1,46,-1
 80 464 l 1,47,-1
 80 384 l 1,48,-1
 84 372 l 1,49,-1
 96 368 l 1,50,-1
 240 368 l 1,51,-1
 252 364 l 1,52,-1
 256 352 l 1,53,-1
 252 340 l 1,54,-1
 240 336 l 1,0,-1
EndSplineSet
EndChar
StartChar: G
Encoding: 71 71 39
Width: 336
GlyphClass: 2
Flags: W
AnchorPoint: "bottomattside" 289 17 basechar 0
AnchorPoint: "bottom" 251 -36 basechar 0
AnchorPoint: "top" 179 579 basechar 0
LayerCount: 2
Fore
SplineSet
290 71 m 1,0,-1
 292 28 l 1,1,-1
 289 17 l 1,2,-1
 279 5 l 1,3,-1
 234 3 l 1,4,-1
 220 3 l 1,5,-1
 208 7 l 1,6,-1
 191 10 l 1,7,-1
 180 13 l 1,8,-1
 158 18 l 1,9,-1
 147 22 l 1,10,-1
 116 38 l 1,11,-1
 71 83 l 1,12,-1
 59 101 l 1,13,-1
 51 112 l 1,14,-1
 42 127 l 1,15,-1
 34 156 l 1,16,-1
 31 185 l 1,17,-1
 26 322 l 1,18,-1
 30 347 l 1,19,-1
 39 383 l 1,20,-1
 51 411 l 1,21,-1
 73 444 l 1,22,-1
 101 482 l 1,23,-1
 121 501 l 1,24,-1
 176 538 l 1,25,-1
 188 543 l 1,26,-1
 200 547 l 1,27,-1
 236 556 l 1,28,-1
 248 557 l 1,29,-1
 276 562 l 1,30,-1
 287 558 l 1,31,-1
 298 535 l 1,32,-1
 291 526 l 1,33,-1
 279 523 l 1,34,-1
 264 523 l 1,35,-1
 242 520 l 1,36,-1
 230 516 l 1,37,-1
 216 513 l 1,38,-1
 204 508 l 1,39,-1
 178 492 l 1,40,-1
 150 472 l 1,41,-1
 126 453 l 1,42,-1
 104 418 l 1,43,-1
 92 393 l 1,44,-1
 82 368 l 1,45,-1
 71 333 l 1,46,-1
 69 315 l 1,47,-1
 69 212 l 1,48,-1
 71 190 l 1,49,-1
 75 171 l 1,50,-1
 78 159 l 1,51,-1
 88 139 l 1,52,-1
 128 90 l 1,53,-1
 163 68 l 1,54,-1
 173 64 l 1,55,-1
 199 57 l 1,56,-1
 223 52 l 1,57,-1
 234 49 l 1,58,-1
 246 52 l 1,59,-1
 249 64 l 1,60,-1
 253 90 l 1,61,-1
 252 114 l 1,62,-1
 256 163 l 1,63,-1
 258 202 l 1,64,-1
 253 214 l 1,65,-1
 245 214 l 1,66,-1
 176 212 l 1,67,-1
 166 208 l 1,68,-1
 154 204 l 1,69,-1
 144 201 l 1,70,-1
 97 201 l 1,71,-1
 87 204 l 1,72,-1
 82 216 l 1,73,-1
 87 228 l 1,74,-1
 101 242 l 1,75,-1
 113 247 l 1,76,-1
 265 247 l 1,77,-1
 277 242 l 1,78,-1
 291 228 l 1,79,-1
 296 216 l 1,80,-1
 296 201 l 1,81,-1
 291 190 l 1,82,-1
 291 98 l 1,83,-1
 290 71 l 1,0,-1
EndSplineSet
EndChar
StartChar: H
Encoding: 72 72 40
AltUni2: 000397.ffffffff.0 00041d.ffffffff.0 000389.ffffffff.0
Width: 400
GlyphClass: 2
Flags: W
AnchorPoint: "bottomattside" 367 96 basechar 0
AnchorPoint: "bottom" 220 26 basechar 0
AnchorPoint: "top" 184 568 basechar 0
LayerCount: 2
Fore
SplineSet
367 96 m 1,0,-1
 351 80 l 1,1,-1
 343 80 l 1,2,-1
 327 96 l 1,3,-1
 323 108 l 1,4,-1
 317 195 l 1,5,-1
 313 207 l 1,6,-1
 301 211 l 1,7,-1
 182 205 l 1,8,-1
 170 201 l 1,9,-1
 153 199 l 1,10,-1
 141 195 l 1,11,-1
 125 195 l 1,12,-1
 113 191 l 1,13,-1
 97 175 l 1,14,-1
 93 163 l 1,15,-1
 96 48 l 1,16,-1
 92 36 l 1,17,-1
 84 36 l 1,18,-1
 51 48 l 1,19,-1
 47 60 l 1,20,-1
 41 196 l 1,21,-1
 37 234 l 1,22,-1
 35 261 l 1,23,-1
 33 433 l 1,24,-1
 31 461 l 1,25,-1
 27 481 l 1,26,-1
 26 498 l 1,27,-1
 26 530 l 1,28,-1
 36 540 l 1,29,-1
 48 544 l 1,30,-1
 66 539 l 1,31,-1
 70 527 l 1,32,-1
 71 502 l 1,33,-1
 73 476 l 1,34,-1
 79 443 l 1,35,-1
 80 432 l 1,36,-1
 84 308 l 1,37,-1
 86 282 l 1,38,-1
 90 270 l 1,39,-1
 91 237 l 1,40,-1
 95 225 l 1,41,-1
 107 226 l 1,42,-1
 119 230 l 1,43,-1
 127 233 l 1,44,-1
 139 237 l 1,45,-1
 209 239 l 1,46,-1
 221 243 l 1,47,-1
 285 243 l 1,48,-1
 297 247 l 1,49,-1
 301 259 l 1,50,-1
 288 416 l 1,51,-1
 288 496 l 1,52,-1
 292 508 l 1,53,-1
 304 512 l 1,54,-1
 316 508 l 1,55,-1
 320 496 l 1,56,-1
 332 364 l 1,57,-1
 335 345 l 1,58,-1
 338 277 l 1,59,-1
 342 265 l 1,60,-1
 348 236 l 1,61,-1
 352 224 l 1,62,-1
 356 156 l 1,63,-1
 360 144 l 1,64,-1
 367 104 l 1,65,-1
 367 96 l 1,0,-1
EndSplineSet
EndChar
StartChar: I
Encoding: 73 73 41
AltUni2: 000399.ffffffff.0 000406.ffffffff.0 00038a.ffffffff.0
Width: 144
GlyphClass: 2
Flags: W
AnchorPoint: "bottomattside" 90 90 basechar 0
AnchorPoint: "bottom" 97 56 basechar 0
AnchorPoint: "top" 46 568 basechar 0
LayerCount: 2
Fore
SplineSet
96 80 m 1,0,-1
 80 80 l 1,1,-1
 68 84 l 1,2,-1
 64 96 l 1,3,-1
 58 146 l 1,4,-1
 52 180 l 1,5,-1
 48 192 l 1,6,-1
 36 337 l 1,7,-1
 37 363 l 1,8,-1
 33 382 l 1,9,-1
 32 400 l 1,10,-1
 32 528 l 1,11,-1
 36 540 l 1,12,-1
 44 540 l 1,13,-1
 60 524 l 1,14,-1
 64 512 l 1,15,-1
 76 380 l 1,16,-1
 82 253 l 1,17,-1
 89 208 l 1,18,-1
 93 196 l 1,19,-1
 96 150 l 1,20,-1
 100 138 l 1,21,-1
 108 108 l 1,22,-1
 112 96 l 1,23,-1
 108 84 l 1,24,-1
 96 80 l 1,0,-1
EndSplineSet
EndChar
StartChar: J
Encoding: 74 74 42
Width: 304
GlyphClass: 2
Flags: W
AnchorPoint: "bottomattside" 220 52 basechar 0
AnchorPoint: "bottom" 169 -20 basechar 0
AnchorPoint: "top" 215 579 basechar 0
LayerCount: 2
Fore
SplineSet
260 140 m 1,0,-1
 256 114 l 1,1,-1
 252 102 l 1,2,-1
 247 95 l 1,3,-1
 232 66 l 1,4,-1
 220 52 l 1,5,-1
 204 36 l 1,6,-1
 192 32 l 1,7,-1
 170 26 l 1,8,-1
 158 22 l 1,9,-1
 140 20 l 1,10,-1
 117 21 l 1,11,-1
 78 36 l 1,12,-1
 52 52 l 1,13,-1
 36 68 l 1,14,-1
 32 80 l 1,15,-1
 32 96 l 1,16,-1
 36 108 l 1,17,-1
 48 112 l 1,18,-1
 60 108 l 1,19,-1
 100 68 l 1,20,-1
 112 64 l 1,21,-1
 160 70 l 1,22,-1
 172 74 l 1,23,-1
 185 86 l 1,24,-1
 193 101 l 1,25,-1
 201 125 l 1,26,-1
 207 152 l 1,27,-1
 202 380 l 1,28,-1
 197 434 l 1,29,-1
 193 515 l 1,30,-1
 197 545 l 1,31,-1
 212 556 l 1,32,-1
 220 556 l 1,33,-1
 232 549 l 1,34,-1
 241 514 l 1,35,-1
 249 425 l 1,36,-1
 250 404 l 1,37,-1
 253 383 l 1,38,-1
 256 368 l 1,39,-1
 259 248 l 1,40,-1
 262 224 l 1,41,-1
 263 164 l 1,42,-1
 260 140 l 1,0,-1
EndSplineSet
EndChar
StartChar: K
Encoding: 75 75 43
AltUni2: 00039a.ffffffff.0 00041a.ffffffff.0
Width: 384
GlyphClass: 2
Flags: W
AnchorPoint: "bottomattside" 338 259 basechar 0
AnchorPoint: "bottom" 200 -10 basechar 0
AnchorPoint: "top" 164 584 basechar 0
LayerCount: 2
Fore
SplineSet
332 240 m 1,0,-1
 320 244 l 1,1,-1
 168 396 l 1,2,-1
 156 400 l 1,3,-1
 144 396 l 1,4,-1
 88 350 l 1,5,-1
 88 316 l 1,6,-1
 89 298 l 1,7,-1
 104 188 l 1,8,-1
 104 156 l 1,9,-1
 108 144 l 1,10,-1
 120 76 l 1,11,-1
 124 64 l 1,12,-1
 124 48 l 1,13,-1
 120 36 l 1,14,-1
 104 20 l 1,15,-1
 96 20 l 1,16,-1
 68 29 l 1,17,-1
 64 41 l 1,18,-1
 52 125 l 1,19,-1
 49 141 l 1,20,-1
 40 267 l 1,21,-1
 36 279 l 1,22,-1
 26 494 l 1,23,-1
 24 506 l 1,24,-1
 22 525 l 1,25,-1
 23 538 l 1,26,-1
 39 554 l 1,27,-1
 56 556 l 1,28,-1
 68 519 l 1,29,-1
 72 508 l 1,30,-1
 75 479 l 1,31,-1
 76 416 l 1,32,-1
 80 404 l 1,33,-1
 92 400 l 1,34,-1
 104 404 l 1,35,-1
 112 412 l 1,36,-1
 135 428 l 1,37,-1
 208 492 l 1,38,-1
 226 503 l 1,39,-1
 240 508 l 1,40,-1
 304 556 l 1,41,-1
 316 560 l 1,42,-1
 332 560 l 1,43,-1
 344 556 l 1,44,-1
 344 540 l 1,45,-1
 256 476 l 1,46,-1
 232 463 l 1,47,-1
 208 444 l 1,48,-1
 192 428 l 1,49,-1
 188 416 l 1,50,-1
 192 404 l 1,51,-1
 258 346 l 1,52,-1
 280 332 l 1,53,-1
 344 268 l 1,54,-1
 348 256 l 1,55,-1
 344 244 l 1,56,-1
 332 240 l 1,0,-1
EndSplineSet
EndChar
StartChar: L
Encoding: 76 76 44
Width: 352
GlyphClass: 2
Flags: W
AnchorPoint: "bottomattside" 319 72 basechar 0
AnchorPoint: "bottom" 164 5 basechar 0
AnchorPoint: "top" 56 604 basechar 0
LayerCount: 2
Fore
SplineSet
304 56 m 1,0,-1
 133 48 l 1,1,-1
 118 48 l 1,2,-1
 76 44 l 1,3,-1
 68 44 l 1,4,-1
 42 48 l 1,5,-1
 36 60 l 1,6,-1
 36 68 l 1,7,-1
 42 81 l 1,8,-1
 43 101 l 1,9,-1
 39 251 l 1,10,-1
 39 266 l 1,11,-1
 38 315 l 1,12,-1
 29 415 l 1,13,-1
 28 437 l 1,14,-1
 28 470 l 1,15,-1
 27 486 l 1,16,-1
 25 551 l 1,17,-1
 29 563 l 1,18,-1
 41 567 l 1,19,-1
 70 564 l 1,20,-1
 79 553 l 1,21,-1
 79 545 l 1,22,-1
 78 532 l 1,23,-1
 74 520 l 1,24,-1
 77 425 l 1,25,-1
 81 413 l 1,26,-1
 86 388 l 1,27,-1
 88 370 l 1,28,-1
 90 344 l 1,29,-1
 90 296 l 1,30,-1
 95 96 l 1,31,-1
 99 84 l 1,32,-1
 111 80 l 1,33,-1
 164 84 l 1,34,-1
 176 88 l 1,35,-1
 304 88 l 1,36,-1
 316 84 l 1,37,-1
 320 72 l 1,38,-1
 316 60 l 1,39,-1
 304 56 l 1,0,-1
EndSplineSet
EndChar
StartChar: M
Encoding: 77 77 45
AltUni2: 00039c.ffffffff.0 00041c.ffffffff.0
Width: 464
GlyphClass: 2
Flags: W
AnchorPoint: "bottomattside" 428 144 basechar 0
AnchorPoint: "bottom" 251 20 basechar 0
AnchorPoint: "top" 225 517 basechar 0
LayerCount: 2
Fore
SplineSet
424 132 m 1,0,-1
 408 116 l 1,1,-1
 400 116 l 1,2,-1
 384 132 l 1,3,-1
 380 144 l 1,4,-1
 380 400 l 1,5,-1
 376 412 l 1,6,-1
 368 412 l 1,7,-1
 287 316 l 1,8,-1
 254 274 l 1,9,-1
 232 260 l 1,10,-1
 224 260 l 1,11,-1
 208 276 l 1,12,-1
 194 298 l 1,13,-1
 160 340 l 1,14,-1
 112 404 l 1,15,-1
 72 460 l 1,16,-1
 64 460 l 1,17,-1
 64 452 l 1,18,-1
 72 444 l 1,19,-1
 76 432 l 1,20,-1
 88 188 l 1,21,-1
 91 171 l 1,22,-1
 92 48 l 1,23,-1
 88 36 l 1,24,-1
 80 36 l 1,25,-1
 58 40 l 1,26,-1
 52 59 l 1,27,-1
 36 195 l 1,28,-1
 27 420 l 1,29,-1
 26 455 l 1,30,-1
 28 468 l 1,31,-1
 25 489 l 1,32,-1
 31 500 l 1,33,-1
 48 508 l 1,34,-1
 56 508 l 1,35,-1
 71 506 l 1,36,-1
 88 492 l 1,37,-1
 104 476 l 1,38,-1
 136 428 l 1,39,-1
 184 364 l 1,40,-1
 225 316 l 1,41,-1
 233 316 l 1,42,-1
 278 362 l 1,43,-1
 355 452 l 1,44,-1
 361 461 l 1,45,-1
 370 489 l 1,46,-1
 384 508 l 1,47,-1
 392 508 l 1,48,-1
 408 492 l 1,49,-1
 412 480 l 1,50,-1
 415 221 l 1,51,-1
 419 209 l 1,52,-1
 424 188 l 1,53,-1
 428 176 l 1,54,-1
 428 144 l 1,55,-1
 424 132 l 1,0,-1
EndSplineSet
EndChar
StartChar: N
Encoding: 78 78 46
AltUni2: 00039d.ffffffff.0
Width: 385
GlyphClass: 2
Flags: W
AnchorPoint: "bottomattside" 350 108 basechar 0
AnchorPoint: "bottom" 200 20 basechar 0
AnchorPoint: "top" 174 538 basechar 0
LayerCount: 2
Fore
SplineSet
337 96 m 1,0,-1
 322 99 l 1,1,-1
 303 123 l 1,2,-1
 289 144 l 1,3,-1
 275 172 l 1,4,-1
 200 282 l 1,5,-1
 152 346 l 1,6,-1
 111 405 l 1,7,-1
 95 421 l 1,8,-1
 83 415 l 1,9,-1
 79 403 l 1,10,-1
 85 293 l 1,11,-1
 86 261 l 1,12,-1
 92 236 l 1,13,-1
 92 228 l 1,14,-1
 94 208 l 1,15,-1
 96 192 l 1,16,-1
 96 80 l 1,17,-1
 92 68 l 1,18,-1
 80 64 l 1,19,-1
 68 68 l 1,20,-1
 64 80 l 1,21,-1
 58 120 l 1,22,-1
 54 132 l 1,23,-1
 52 164 l 1,24,-1
 48 176 l 1,25,-1
 37 364 l 1,26,-1
 35 381 l 1,27,-1
 32 414 l 1,28,-1
 32 432 l 1,29,-1
 33 529 l 1,30,-1
 41 531 l 1,31,-1
 49 531 l 1,32,-1
 61 525 l 1,33,-1
 68 516 l 1,34,-1
 92 492 l 1,35,-1
 188 364 l 1,36,-1
 252 268 l 1,37,-1
 264 248 l 1,38,-1
 292 212 l 1,39,-1
 300 212 l 1,40,-1
 299 224 l 1,41,-1
 295 236 l 1,42,-1
 292 244 l 1,43,-1
 289 259 l 1,44,-1
 288 288 l 1,45,-1
 286 435 l 1,46,-1
 282 447 l 1,47,-1
 276 468 l 1,48,-1
 272 480 l 1,49,-1
 272 496 l 1,50,-1
 276 508 l 1,51,-1
 288 512 l 1,52,-1
 308 510 l 1,53,-1
 323 497 l 1,54,-1
 327 485 l 1,55,-1
 328 363 l 1,56,-1
 330 336 l 1,57,-1
 334 305 l 1,58,-1
 348 140 l 1,59,-1
 352 128 l 1,60,-1
 352 112 l 1,61,-1
 348 100 l 1,62,-1
 337 96 l 1,0,-1
EndSplineSet
EndChar
StartChar: O
Encoding: 79 79 47
AltUni2: 00039f.ffffffff.0 00041e.ffffffff.0 00038c.ffffffff.0
Width: 350
GlyphClass: 2
Flags: W
AnchorPoint: "bottomattside" 244 136 basechar 0
AnchorPoint: "bottom" 128 41 basechar 0
AnchorPoint: "top" 154 579 basechar 0
LayerCount: 2
Fore
SplineSet
268 331 m 1,0,-1
 265 379 l 1,1,-1
 250 429 l 1,2,-1
 236 452 l 1,3,-1
 191 491 l 1,4,-1
 154 496 l 1,5,-1
 116 484 l 1,6,-1
 97 477 l 1,7,-1
 71 452 l 1,8,-1
 65 432 l 1,9,-1
 53 353 l 1,10,-1
 48 332 l 1,11,-1
 45 299 l 1,12,-1
 45 260 l 1,13,-1
 41 231 l 1,14,-1
 45 210 l 1,15,-1
 48 185 l 1,16,-1
 54 165 l 1,17,-1
 71 133 l 1,18,-1
 102 113 l 1,19,-1
 123 108 l 1,20,-1
 135 108 l 1,21,-1
 186 133 l 1,22,-1
 236 185 l 1,23,-1
 243 204 l 1,24,-1
 254 270 l 1,25,-1
 261 289 l 1,26,-1
 262 312 l 1,27,-1
 268 331 l 1,0,-1
285 180 m 1,28,-1
 278 169 l 1,29,-1
 207 99 l 1,30,-1
 179 81 l 1,31,-1
 160 75 l 1,32,-1
 101 75 l 1,33,-1
 85 81 l 1,34,-1
 53 99 l 1,35,-1
 7 145 l 1,36,-1
 1 163 l 1,37,-1
 1 366 l 1,38,-1
 11 438 l 1,39,-1
 18 453 l 1,40,-1
 101 535 l 1,41,-1
 119 541 l 1,42,-1
 166 541 l 1,43,-1
 184 535 l 1,44,-1
 237 517 l 1,45,-1
 257 504 l 1,46,-1
 294 462 l 1,47,-1
 301 444 l 1,48,-1
 315 291 l 1,49,-1
 312 275 l 1,50,-1
 285 180 l 1,28,-1
EndSplineSet
EndChar
StartChar: P
Encoding: 80 80 48
AltUni2: 0003a1.ffffffff.0 000420.ffffffff.0
Width: 287
GlyphClass: 2
Flags: W
AnchorPoint: "bottomattside" 105 92 basechar 0
AnchorPoint: "bottom" 92 41 basechar 0
AnchorPoint: "top" 143 594 basechar 0
LayerCount: 2
Fore
SplineSet
208 448 m 1,0,-1
 208 480 l 1,1,-1
 204 492 l 1,2,-1
 188 508 l 1,3,-1
 159 520 l 1,4,-1
 147 524 l 1,5,-1
 115 524 l 1,6,-1
 103 520 l 1,7,-1
 84 508 l 1,8,-1
 80 496 l 1,9,-1
 80 448 l 1,10,-1
 85 426 l 1,11,-1
 100 420 l 1,12,-1
 112 416 l 1,13,-1
 176 416 l 1,14,-1
 188 420 l 1,15,-1
 204 436 l 1,16,-1
 208 448 l 1,0,-1
244 460 m 1,17,-1
 239 431 l 1,18,-1
 214 400 l 1,19,-1
 194 390 l 1,20,-1
 143 380 l 1,21,-1
 87 380 l 1,22,-1
 92 300 l 1,23,-1
 94 279 l 1,24,-1
 105 92 l 1,25,-1
 101 80 l 1,26,-1
 82 74 l 1,27,-1
 68 84 l 1,28,-1
 64 96 l 1,29,-1
 52 260 l 1,30,-1
 48 272 l 1,31,-1
 48 336 l 1,32,-1
 44 396 l 1,33,-1
 29 407 l 1,34,-1
 25 419 l 1,35,-1
 29 431 l 1,36,-1
 44 436 l 1,37,-1
 48 448 l 1,38,-1
 48 560 l 1,39,-1
 52 572 l 1,40,-1
 60 572 l 1,41,-1
 75 566 l 1,42,-1
 80 544 l 1,43,-1
 172 551 l 1,44,-1
 190 547 l 1,45,-1
 204 540 l 1,46,-1
 222 528 l 1,47,-1
 236 508 l 1,48,-1
 244 484 l 1,49,-1
 244 460 l 1,17,-1
EndSplineSet
EndChar
StartChar: Q
Encoding: 81 81 49
Width: 432
GlyphClass: 2
Flags: W
AnchorPoint: "bottomattside" 278 139 basechar 0
AnchorPoint: "bottom" 179 -10 basechar 0
AnchorPoint: "top" 189 655 basechar 0
LayerCount: 2
Fore
SplineSet
384 208 m 1,0,-1
 368 208 l 1,1,-1
 333 227 l 1,2,-1
 315 232 l 1,3,-1
 308 220 l 1,4,-1
 300 196 l 1,5,-1
 299 184 l 1,6,-1
 295 172 l 1,7,-1
 268 116 l 1,8,-1
 236 84 l 1,9,-1
 228 84 l 1,10,-1
 224 96 l 1,11,-1
 261 213 l 1,12,-1
 263 224 l 1,13,-1
 266 238 l 1,14,-1
 270 250 l 1,15,-1
 179 292 l 1,16,-1
 164 308 l 1,17,-1
 164 316 l 1,18,-1
 176 327 l 1,19,-1
 194 327 l 1,20,-1
 206 323 l 1,21,-1
 214 315 l 1,22,-1
 281 290 l 1,23,-1
 287 308 l 1,24,-1
 289 333 l 1,25,-1
 291 424 l 1,26,-1
 288 448 l 1,27,-1
 283 480 l 1,28,-1
 264 519 l 1,29,-1
 249 534 l 1,30,-1
 218 550 l 1,31,-1
 194 556 l 1,32,-1
 175 550 l 1,33,-1
 158 538 l 1,34,-1
 102 468 l 1,35,-1
 92 452 l 1,36,-1
 76 404 l 1,37,-1
 61 336 l 1,38,-1
 61 324 l 1,39,-1
 64 257 l 1,40,-1
 68 234 l 1,41,-1
 88 160 l 1,42,-1
 96 144 l 1,43,-1
 124 108 l 1,44,-1
 148 84 l 1,45,-1
 172 76 l 1,46,-1
 196 76 l 1,47,-1
 208 80 l 1,48,-1
 220 76 l 1,49,-1
 220 68 l 1,50,-1
 204 52 l 1,51,-1
 192 48 l 1,52,-1
 144 48 l 1,53,-1
 132 52 l 1,54,-1
 84 100 l 1,55,-1
 46 148 l 1,56,-1
 29 206 l 1,57,-1
 22 352 l 1,58,-1
 23 375 l 1,59,-1
 38 429 l 1,60,-1
 57 470 l 1,61,-1
 84 508 l 1,62,-1
 147 576 l 1,63,-1
 156 588 l 1,64,-1
 132 596 l 1,65,-1
 128 608 l 1,66,-1
 132 620 l 1,67,-1
 144 624 l 1,68,-1
 176 624 l 1,69,-1
 188 620 l 1,70,-1
 196 612 l 1,71,-1
 208 608 l 1,72,-1
 244 588 l 1,73,-1
 276 556 l 1,74,-1
 300 524 l 1,75,-1
 312 503 l 1,76,-1
 320 480 l 1,77,-1
 332 364 l 1,78,-1
 333 344 l 1,79,-1
 331 312 l 1,80,-1
 328 285 l 1,81,-1
 326 269 l 1,82,-1
 350 261 l 1,83,-1
 375 247 l 1,84,-1
 396 220 l 1,85,-1
 396 212 l 1,86,-1
 384 208 l 1,0,-1
EndSplineSet
EndChar
StartChar: R
Encoding: 82 82 50
Width: 406
GlyphClass: 2
Flags: W
AnchorPoint: "bottomattside" 390 163 basechar 0
AnchorPoint: "bottom" 271 72 basechar 0
AnchorPoint: "top" 164 630 basechar 0
LayerCount: 2
Fore
SplineSet
215 534 m 1,0,-1
 208 546 l 1,1,-1
 187 556 l 1,2,-1
 155 560 l 1,3,-1
 125 554 l 1,4,-1
 113 550 l 1,5,-1
 103 544 l 1,6,-1
 116 461 l 1,7,-1
 128 457 l 1,8,-1
 146 460 l 1,9,-1
 180 470 l 1,10,-1
 201 484 l 1,11,-1
 216 516 l 1,12,-1
 215 534 l 1,0,-1
369 151 m 1,13,-1
 357 155 l 1,14,-1
 312 204 l 1,15,-1
 280 236 l 1,16,-1
 182 360 l 1,17,-1
 165 377 l 1,18,-1
 146 400 l 1,19,-1
 131 394 l 1,20,-1
 140 224 l 1,21,-1
 150 69 l 1,22,-1
 150 61 l 1,23,-1
 138 57 l 1,24,-1
 101 67 l 1,25,-1
 97 79 l 1,26,-1
 99 123 l 1,27,-1
 97 138 l 1,28,-1
 92 185 l 1,29,-1
 90 330 l 1,30,-1
 86 356 l 1,31,-1
 82 404 l 1,32,-1
 66 410 l 1,33,-1
 56 434 l 1,34,-1
 60 444 l 1,35,-1
 82 453 l 1,36,-1
 80 474 l 1,37,-1
 78 493 l 1,38,-1
 73 530 l 1,39,-1
 58 524 l 1,40,-1
 46 520 l 1,41,-1
 34 524 l 1,42,-1
 31 548 l 1,43,-1
 68 566 l 1,44,-1
 64 590 l 1,45,-1
 64 604 l 1,46,-1
 76 608 l 1,47,-1
 88 604 l 1,48,-1
 96 580 l 1,49,-1
 109 581 l 1,50,-1
 129 586 l 1,51,-1
 141 590 l 1,52,-1
 167 589 l 1,53,-1
 180 590 l 1,54,-1
 203 587 l 1,55,-1
 216 579 l 1,56,-1
 243 553 l 1,57,-1
 247 541 l 1,58,-1
 252 517 l 1,59,-1
 249 493 l 1,60,-1
 245 479 l 1,61,-1
 238 463 l 1,62,-1
 198 428 l 1,63,-1
 178 419 l 1,64,-1
 350 227 l 1,65,-1
 377 193 l 1,66,-1
 388 176 l 1,67,-1
 390 163 l 1,68,-1
 376 151 l 1,69,-1
 369 151 l 1,13,-1
EndSplineSet
EndChar
StartChar: S
Encoding: 83 83 51
Width: 272
GlyphClass: 2
Flags: W
AnchorPoint: "bottomattside" 231 102 basechar 0
AnchorPoint: "bottom" 164 20 basechar 0
AnchorPoint: "top" 128 579 basechar 0
LayerCount: 2
Fore
SplineSet
231 102 m 1,0,-1
 220 84 l 1,1,-1
 204 68 l 1,2,-1
 186 56 l 1,3,-1
 172 52 l 1,4,-1
 144 52 l 1,5,-1
 132 56 l 1,6,-1
 112 64 l 1,7,-1
 100 68 l 1,8,-1
 68 100 l 1,9,-1
 57 119 l 1,10,-1
 52 132 l 1,11,-1
 48 144 l 1,12,-1
 52 156 l 1,13,-1
 68 172 l 1,14,-1
 76 172 l 1,15,-1
 92 156 l 1,16,-1
 100 133 l 1,17,-1
 109 117 l 1,18,-1
 136 89 l 1,19,-1
 148 85 l 1,20,-1
 164 85 l 1,21,-1
 176 89 l 1,22,-1
 190 108 l 1,23,-1
 194 120 l 1,24,-1
 196 140 l 1,25,-1
 196 164 l 1,26,-1
 192 192 l 1,27,-1
 188 204 l 1,28,-1
 165 238 l 1,29,-1
 132 283 l 1,30,-1
 69 357 l 1,31,-1
 60 370 l 1,32,-1
 49 390 l 1,33,-1
 36 420 l 1,34,-1
 32 432 l 1,35,-1
 32 448 l 1,36,-1
 34 469 l 1,37,-1
 39 481 l 1,38,-1
 50 496 l 1,39,-1
 84 524 l 1,40,-1
 101 534 l 1,41,-1
 116 540 l 1,42,-1
 128 544 l 1,43,-1
 176 544 l 1,44,-1
 188 540 l 1,45,-1
 204 524 l 1,46,-1
 204 516 l 1,47,-1
 189 503 l 1,48,-1
 177 507 l 1,49,-1
 148 509 l 1,50,-1
 129 505 l 1,51,-1
 105 498 l 1,52,-1
 86 477 l 1,53,-1
 76 462 l 1,54,-1
 73 439 l 1,55,-1
 84 404 l 1,56,-1
 94 385 l 1,57,-1
 204 252 l 1,58,-1
 225 219 l 1,59,-1
 229 207 l 1,60,-1
 235 191 l 1,61,-1
 239 179 l 1,62,-1
 245 150 l 1,63,-1
 240 128 l 1,64,-1
 231 102 l 1,0,-1
EndSplineSet
EndChar
StartChar: T
Encoding: 84 84 52
AltUni2: 0003a4.ffffffff.0 000422.ffffffff.0
Width: 453
GlyphClass: 2
Flags: W
AnchorPoint: "bottomattside" 259 63 basechar 0
AnchorPoint: "bottom" 256 10 basechar 0
AnchorPoint: "top" 230 645 basechar 0
LayerCount: 2
Fore
SplineSet
243 588 m 1,0,-1
 267 588 l 1,1,-1
 279 592 l 1,2,-1
 423 592 l 1,3,-1
 435 588 l 1,4,-1
 439 576 l 1,5,-1
 436 555 l 1,6,-1
 424 551 l 1,7,-1
 280 551 l 1,8,-1
 268 547 l 1,9,-1
 264 535 l 1,10,-1
 263 480 l 1,11,-1
 263 400 l 1,12,-1
 271 174 l 1,13,-1
 277 112 l 1,14,-1
 279 96 l 1,15,-1
 279 64 l 1,16,-1
 275 52 l 1,17,-1
 259 36 l 1,18,-1
 251 36 l 1,19,-1
 229 53 l 1,20,-1
 224 97 l 1,21,-1
 224 112 l 1,22,-1
 216 301 l 1,23,-1
 216 353 l 1,24,-1
 212 375 l 1,25,-1
 205 450 l 1,26,-1
 204 528 l 1,27,-1
 200 540 l 1,28,-1
 188 544 l 1,29,-1
 80 541 l 1,30,-1
 68 537 l 1,31,-1
 51 532 l 1,32,-1
 39 528 l 1,33,-1
 27 532 l 1,34,-1
 11 548 l 1,35,-1
 7 560 l 1,36,-1
 11 572 l 1,37,-1
 23 576 l 1,38,-1
 183 576 l 1,39,-1
 195 580 l 1,40,-1
 203 588 l 1,41,-1
 215 592 l 1,42,-1
 231 592 l 1,43,-1
 243 588 l 1,0,-1
EndSplineSet
EndChar
StartChar: U
Encoding: 85 85 53
Width: 330
GlyphClass: 2
Flags: W
AnchorPoint: "bottomattside" 219 92 basechar 0
AnchorPoint: "bottom" 169 46 basechar 0
AnchorPoint: "top" 159 579 basechar 0
LayerCount: 2
Fore
SplineSet
296 369 m 1,0,-1
 282 253 l 1,1,-1
 278 226 l 1,2,-1
 271 204 l 1,3,-1
 264 186 l 1,4,-1
 255 157 l 1,5,-1
 246 134 l 1,6,-1
 235 112 l 1,7,-1
 218 92 l 1,8,-1
 197 82 l 1,9,-1
 182 78 l 1,10,-1
 159 77 l 1,11,-1
 147 80 l 1,12,-1
 128 86 l 1,13,-1
 108 101 l 1,14,-1
 92 117 l 1,15,-1
 67 166 l 1,16,-1
 48 224 l 1,17,-1
 41 247 l 1,18,-1
 33 312 l 1,19,-1
 25 541 l 1,20,-1
 29 553 l 1,21,-1
 48 565 l 1,22,-1
 66 559 l 1,23,-1
 70 547 l 1,24,-1
 74 377 l 1,25,-1
 74 355 l 1,26,-1
 75 310 l 1,27,-1
 81 260 l 1,28,-1
 84 244 l 1,29,-1
 90 229 l 1,30,-1
 94 217 l 1,31,-1
 100 196 l 1,32,-1
 116 164 l 1,33,-1
 150 126 l 1,34,-1
 178 116 l 1,35,-1
 193 123 l 1,36,-1
 208 145 l 1,37,-1
 218 172 l 1,38,-1
 224 240 l 1,39,-1
 232 295 l 1,40,-1
 236 307 l 1,41,-1
 247 405 l 1,42,-1
 247 485 l 1,43,-1
 251 497 l 1,44,-1
 272 496 l 1,45,-1
 288 496 l 1,46,-1
 300 492 l 1,47,-1
 304 480 l 1,48,-1
 304 460 l 1,49,-1
 296 369 l 1,0,-1
EndSplineSet
EndChar
StartChar: V
Encoding: 86 86 54
Width: 352
GlyphClass: 2
Flags: W
AnchorPoint: "bottomattside" 245 59 basechar 0
AnchorPoint: "bottom" 241 0 basechar 0
AnchorPoint: "top" 174 573 basechar 0
LayerCount: 2
Fore
SplineSet
308 460 m 1,0,-1
 307 444 l 1,1,-1
 304 416 l 1,2,-1
 295 383 l 1,3,-1
 283 326 l 1,4,-1
 281 302 l 1,5,-1
 276 268 l 1,6,-1
 271 239 l 1,7,-1
 268 164 l 1,8,-1
 256 64 l 1,9,-1
 252 52 l 1,10,-1
 219 34 l 1,11,-1
 211 34 l 1,12,-1
 189 88 l 1,13,-1
 160 176 l 1,14,-1
 127 255 l 1,15,-1
 101 333 l 1,16,-1
 83 377 l 1,17,-1
 32 528 l 1,18,-1
 36 540 l 1,19,-1
 48 544 l 1,20,-1
 60 540 l 1,21,-1
 76 524 l 1,22,-1
 92 492 l 1,23,-1
 100 468 l 1,24,-1
 123 422 l 1,25,-1
 130 403 l 1,26,-1
 159 329 l 1,27,-1
 195 221 l 1,28,-1
 213 161 l 1,29,-1
 218 148 l 1,30,-1
 226 213 l 1,31,-1
 228 236 l 1,32,-1
 240 320 l 1,33,-1
 256 416 l 1,34,-1
 260 428 l 1,35,-1
 272 480 l 1,36,-1
 279 545 l 1,37,-1
 283 557 l 1,38,-1
 285 568 l 1,39,-1
 289 580 l 1,40,-1
 298 595 l 1,41,-1
 315 602 l 1,42,-1
 323 602 l 1,43,-1
 330 590 l 1,44,-1
 308 460 l 1,0,-1
EndSplineSet
EndChar
StartChar: W
Encoding: 87 87 55
Width: 512
GlyphClass: 2
Flags: W
AnchorPoint: "bottomattside" 389 55 basechar 0
AnchorPoint: "bottom" 230 5 basechar 0
AnchorPoint: "top" 225 589 basechar 0
LayerCount: 2
Fore
SplineSet
458 497 m 1,0,-1
 454 476 l 1,1,-1
 452 441 l 1,2,-1
 453 391 l 1,3,-1
 448 333 l 1,4,-1
 444 321 l 1,5,-1
 432 237 l 1,6,-1
 428 225 l 1,7,-1
 400 59 l 1,8,-1
 396 47 l 1,9,-1
 380 31 l 1,10,-1
 368 27 l 1,11,-1
 356 31 l 1,12,-1
 340 63 l 1,13,-1
 308 113 l 1,14,-1
 288 173 l 1,15,-1
 281 201 l 1,16,-1
 276 225 l 1,17,-1
 272 237 l 1,18,-1
 253 340 l 1,19,-1
 249 352 l 1,20,-1
 236 377 l 1,21,-1
 228 377 l 1,22,-1
 220 353 l 1,23,-1
 217 337 l 1,24,-1
 212 318 l 1,25,-1
 204 273 l 1,26,-1
 157 120 l 1,27,-1
 153 108 l 1,28,-1
 121 44 l 1,29,-1
 109 40 l 1,30,-1
 97 44 l 1,31,-1
 93 56 l 1,32,-1
 91 81 l 1,33,-1
 87 93 l 1,34,-1
 81 108 l 1,35,-1
 77 120 l 1,36,-1
 64 237 l 1,37,-1
 44 353 l 1,38,-1
 41 372 l 1,39,-1
 32 502 l 1,40,-1
 33 516 l 1,41,-1
 37 528 l 1,42,-1
 49 532 l 1,43,-1
 66 526 l 1,44,-1
 70 514 l 1,45,-1
 81 452 l 1,46,-1
 92 345 l 1,47,-1
 111 212 l 1,48,-1
 112 189 l 1,49,-1
 116 177 l 1,50,-1
 124 177 l 1,51,-1
 164 297 l 1,52,-1
 176 349 l 1,53,-1
 196 409 l 1,54,-1
 204 417 l 1,55,-1
 208 429 l 1,56,-1
 208 477 l 1,57,-1
 212 489 l 1,58,-1
 228 505 l 1,59,-1
 236 505 l 1,60,-1
 252 489 l 1,61,-1
 268 457 l 1,62,-1
 272 445 l 1,63,-1
 288 365 l 1,64,-1
 313 259 l 1,65,-1
 320 237 l 1,66,-1
 328 200 l 1,67,-1
 336 157 l 1,68,-1
 340 145 l 1,69,-1
 356 129 l 1,70,-1
 364 129 l 1,71,-1
 368 141 l 1,72,-1
 372 201 l 1,73,-1
 383 285 l 1,74,-1
 388 313 l 1,75,-1
 400 397 l 1,76,-1
 410 497 l 1,77,-1
 412 526 l 1,78,-1
 416 547 l 1,79,-1
 425 558 l 1,80,-1
 437 562 l 1,81,-1
 453 562 l 1,82,-1
 465 558 l 1,83,-1
 469 546 l 1,84,-1
 458 497 l 1,0,-1
EndSplineSet
EndChar
StartChar: X
Encoding: 88 88 56
AltUni2: 0003a7.ffffffff.0 000425.ffffffff.0
Width: 352
GlyphClass: 2
Flags: W
AnchorPoint: "bottomattside" 312 74 basechar 0
AnchorPoint: "bottom" 154 41 basechar 0
AnchorPoint: "top" 174 579 basechar 0
LayerCount: 2
Fore
SplineSet
304 46 m 1,0,-1
 287 42 l 1,1,-1
 271 58 l 1,2,-1
 219 178 l 1,3,-1
 196 225 l 1,4,-1
 176 295 l 1,5,-1
 164 300 l 1,6,-1
 108 162 l 1,7,-1
 76 114 l 1,8,-1
 60 98 l 1,9,-1
 36 99 l 1,10,-1
 32 110 l 1,11,-1
 38 131 l 1,12,-1
 56 171 l 1,13,-1
 82 219 l 1,14,-1
 111 284 l 1,15,-1
 124 308 l 1,16,-1
 137 328 l 1,17,-1
 140 340 l 1,18,-1
 136 358 l 1,19,-1
 123 382 l 1,20,-1
 79 481 l 1,21,-1
 74 494 l 1,22,-1
 70 506 l 1,23,-1
 82 528 l 1,24,-1
 90 528 l 1,25,-1
 108 511 l 1,26,-1
 130 478 l 1,27,-1
 156 412 l 1,28,-1
 164 388 l 1,29,-1
 172 388 l 1,30,-1
 188 404 l 1,31,-1
 203 425 l 1,32,-1
 231 470 l 1,33,-1
 244 508 l 1,34,-1
 260 540 l 1,35,-1
 272 544 l 1,36,-1
 288 544 l 1,37,-1
 300 540 l 1,38,-1
 300 532 l 1,39,-1
 298 522 l 1,40,-1
 294 510 l 1,41,-1
 288 496 l 1,42,-1
 284 484 l 1,43,-1
 205 337 l 1,44,-1
 224 297 l 1,45,-1
 300 106 l 1,46,-1
 309 85 l 1,47,-1
 313 73 l 1,48,-1
 316 58 l 1,49,-1
 304 46 l 1,0,-1
EndSplineSet
EndChar
StartChar: Y
Encoding: 89 89 57
AltUni2: 0003a5.ffffffff.0 00038e.ffffffff.0
Width: 368
GlyphClass: 2
Flags: W
AnchorPoint: "bottomattside" 218 81 basechar 0
AnchorPoint: "bottom" 205 5 basechar 0
AnchorPoint: "top" 179 604 basechar 0
LayerCount: 2
Fore
SplineSet
324 572 m 1,0,-1
 300 532 l 1,1,-1
 236 436 l 1,2,-1
 220 404 l 1,3,-1
 216 387 l 1,4,-1
 215 372 l 1,5,-1
 215 344 l 1,6,-1
 220 276 l 1,7,-1
 220 252 l 1,8,-1
 222 213 l 1,9,-1
 224 64 l 1,10,-1
 220 52 l 1,11,-1
 212 52 l 1,12,-1
 184 56 l 1,13,-1
 180 68 l 1,14,-1
 177 102 l 1,15,-1
 173 158 l 1,16,-1
 176 191 l 1,17,-1
 176 224 l 1,18,-1
 170 352 l 1,19,-1
 149 406 l 1,20,-1
 132 422 l 1,21,-1
 68 500 l 1,22,-1
 36 548 l 1,23,-1
 32 560 l 1,24,-1
 36 572 l 1,25,-1
 48 576 l 1,26,-1
 60 572 l 1,27,-1
 87 541 l 1,28,-1
 108 508 l 1,29,-1
 164 436 l 1,30,-1
 176 432 l 1,31,-1
 188 436 l 1,32,-1
 204 452 l 1,33,-1
 273 570 l 1,34,-1
 282 589 l 1,35,-1
 298 605 l 1,36,-1
 320 608 l 1,37,-1
 332 604 l 1,38,-1
 336 592 l 1,39,-1
 332 580 l 1,40,-1
 324 572 l 1,0,-1
EndSplineSet
EndChar
StartChar: Z
Encoding: 90 90 58
AltUni2: 000396.ffffffff.0
Width: 416
GlyphClass: 2
Flags: W
AnchorPoint: "bottomattside" 384 64 basechar 0
AnchorPoint: "bottom" 215 10 basechar 0
AnchorPoint: "top" 210 620 basechar 0
LayerCount: 2
Fore
SplineSet
368 48 m 1,0,-1
 272 48 l 1,1,-1
 220 52 l 1,2,-1
 208 48 l 1,3,-1
 64 48 l 1,4,-1
 52 52 l 1,5,-1
 40 59 l 1,6,-1
 32 67 l 1,7,-1
 28 79 l 1,8,-1
 33 102 l 1,9,-1
 45 106 l 1,10,-1
 58 111 l 1,11,-1
 70 115 l 1,12,-1
 92 157 l 1,13,-1
 99 176 l 1,14,-1
 117 217 l 1,15,-1
 137 258 l 1,16,-1
 141 270 l 1,17,-1
 217 419 l 1,18,-1
 221 431 l 1,19,-1
 256 501 l 1,20,-1
 268 521 l 1,21,-1
 268 529 l 1,22,-1
 256 533 l 1,23,-1
 91 533 l 1,24,-1
 79 537 l 1,25,-1
 82 569 l 1,26,-1
 94 573 l 1,27,-1
 122 577 l 1,28,-1
 144 576 l 1,29,-1
 289 575 l 1,30,-1
 301 579 l 1,31,-1
 319 589 l 1,32,-1
 346 589 l 1,33,-1
 348 577 l 1,34,-1
 327 533 l 1,35,-1
 300 484 l 1,36,-1
 268 420 l 1,37,-1
 192 256 l 1,38,-1
 188 244 l 1,39,-1
 127 121 l 1,40,-1
 127 113 l 1,41,-1
 132 100 l 1,42,-1
 144 96 l 1,43,-1
 352 96 l 1,44,-1
 364 92 l 1,45,-1
 380 76 l 1,46,-1
 384 64 l 1,47,-1
 380 52 l 1,48,-1
 368 48 l 1,0,-1
EndSplineSet
EndChar
StartChar: bracketleft
Encoding: 91 91 59
Width: 240
GlyphClass: 2
Flags: W
LayerCount: 2
Fore
SplineSet
192 32 m 1,0,-1
 96 32 l 1,1,-1
 84 36 l 1,2,-1
 68 52 l 1,3,-1
 64 64 l 1,4,-1
 50 205 l 1,5,-1
 48 224 l 1,6,-1
 32 608 l 1,7,-1
 36 620 l 1,8,-1
 48 624 l 1,9,-1
 150 630 l 1,10,-1
 156 620 l 1,11,-1
 156 612 l 1,12,-1
 147 602 l 1,13,-1
 139 594 l 1,14,-1
 112 592 l 1,15,-1
 74 585 l 1,16,-1
 62 581 l 1,17,-1
 62 573 l 1,18,-1
 70 565 l 1,19,-1
 74 553 l 1,20,-1
 80 420 l 1,21,-1
 80 400 l 1,22,-1
 94 210 l 1,23,-1
 96 96 l 1,24,-1
 100 84 l 1,25,-1
 116 68 l 1,26,-1
 128 64 l 1,27,-1
 176 64 l 1,28,-1
 188 60 l 1,29,-1
 204 44 l 1,30,-1
 204 36 l 1,31,-1
 192 32 l 1,0,-1
EndSplineSet
EndChar
StartChar: backslash
Encoding: 92 92 60
Width: 448
GlyphClass: 2
Flags: W
LayerCount: 2
Fore
SplineSet
401 64 m 1,0,-1
 390 69 l 1,1,-1
 331 135 l 1,2,-1
 269 216 l 1,3,-1
 250 250 l 1,4,-1
 191 340 l 1,5,-1
 183 364 l 1,6,-1
 167 396 l 1,7,-1
 93 508 l 1,8,-1
 77 540 l 1,9,-1
 73 552 l 1,10,-1
 36 596 l 1,11,-1
 32 608 l 1,12,-1
 36 620 l 1,13,-1
 68 628 l 1,14,-1
 76 628 l 1,15,-1
 84 620 l 1,16,-1
 124 556 l 1,17,-1
 128 544 l 1,18,-1
 156 492 l 1,19,-1
 220 396 l 1,20,-1
 260 324 l 1,21,-1
 268 316 l 1,22,-1
 276 292 l 1,23,-1
 316 236 l 1,24,-1
 380 140 l 1,25,-1
 415 93 l 1,26,-1
 423 85 l 1,27,-1
 427 73 l 1,28,-1
 415 61 l 1,29,-1
 401 64 l 1,0,-1
EndSplineSet
EndChar
StartChar: bracketright
Encoding: 93 93 61
Width: 320
GlyphClass: 2
Flags: W
LayerCount: 2
Fore
SplineSet
272 -4 m 1,0,-1
 268 -19 l 1,1,-1
 252 -32 l 1,2,-1
 152 -44 l 1,3,-1
 140 -48 l 1,4,-1
 128 -44 l 1,5,-1
 112 -28 l 1,6,-1
 108 -16 l 1,7,-1
 112 -4 l 1,8,-1
 144 4 l 1,9,-1
 168 4 l 1,10,-1
 220 16 l 1,11,-1
 232 20 l 1,12,-1
 236 32 l 1,13,-1
 224 84 l 1,14,-1
 220 96 l 1,15,-1
 212 142 l 1,16,-1
 212 161 l 1,17,-1
 208 212 l 1,18,-1
 208 220 l 1,19,-1
 204 256 l 1,20,-1
 201 344 l 1,21,-1
 200 364 l 1,22,-1
 176 580 l 1,23,-1
 172 592 l 1,24,-1
 172 608 l 1,25,-1
 168 620 l 1,26,-1
 156 624 l 1,27,-1
 88 612 l 1,28,-1
 64 612 l 1,29,-1
 40 614 l 1,30,-1
 32 628 l 1,31,-1
 32 636 l 1,32,-1
 48 652 l 1,33,-1
 60 656 l 1,34,-1
 156 656 l 1,35,-1
 168 660 l 1,36,-1
 192 684 l 1,37,-1
 204 688 l 1,38,-1
 216 684 l 1,39,-1
 220 672 l 1,40,-1
 239 373 l 1,41,-1
 243 337 l 1,42,-1
 252 239 l 1,43,-1
 256 220 l 1,44,-1
 264 172 l 1,45,-1
 268 160 l 1,46,-1
 280 76 l 1,47,-1
 284 16 l 1,48,-1
 280 4 l 1,49,-1
 272 -4 l 1,0,-1
EndSplineSet
EndChar
StartChar: asciicircum
Encoding: 94 94 62
Width: 192
GlyphClass: 2
Flags: W
LayerCount: 2
Fore
SplineSet
54 470 m 1,0,-1
 44 452 l 1,1,-1
 36 452 l 1,2,-1
 32 464 l 1,3,-1
 32 480 l 1,4,-1
 44 500 l 1,5,-1
 52 524 l 1,6,-1
 60 524 l 1,7,-1
 64 512 l 1,8,-1
 64 496 l 1,9,-1
 60 484 l 1,10,-1
 54 470 l 1,0,-1
144 464 m 1,11,-1
 132 468 l 1,12,-1
 124 492 l 1,13,-1
 92 524 l 1,14,-1
 68 532 l 1,15,-1
 64 544 l 1,16,-1
 64 560 l 1,17,-1
 68 572 l 1,18,-1
 80 576 l 1,19,-1
 92 572 l 1,20,-1
 100 548 l 1,21,-1
 156 492 l 1,22,-1
 160 480 l 1,23,-1
 156 468 l 1,24,-1
 144 464 l 1,11,-1
EndSplineSet
EndChar
StartChar: underscore
Encoding: 95 95 63
Width: 576
GlyphClass: 2
Flags: W
LayerCount: 2
Fore
SplineSet
528 80 m 1,0,-1
 512 80 l 1,1,-1
 500 76 l 1,2,-1
 364 76 l 1,3,-1
 352 80 l 1,4,-1
 336 80 l 1,5,-1
 324 76 l 1,6,-1
 293 75 l 1,7,-1
 261 75 l 1,8,-1
 249 71 l 1,9,-1
 236 68 l 1,10,-1
 224 64 l 1,11,-1
 48 64 l 1,12,-1
 36 68 l 1,13,-1
 32 80 l 1,14,-1
 36 92 l 1,15,-1
 52 108 l 1,16,-1
 60 108 l 1,17,-1
 68 100 l 1,18,-1
 92 100 l 1,19,-1
 100 108 l 1,20,-1
 112 112 l 1,21,-1
 272 112 l 1,22,-1
 340 116 l 1,23,-1
 420 116 l 1,24,-1
 432 112 l 1,25,-1
 512 112 l 1,26,-1
 524 108 l 1,27,-1
 540 92 l 1,28,-1
 540 84 l 1,29,-1
 528 80 l 1,0,-1
EndSplineSet
EndChar
StartChar: grave
Encoding: 96 96 64
Width: 176
GlyphClass: 2
Flags: W
LayerCount: 2
Fore
SplineSet
86 569 m 1,0,-1
 82 564 l 1,1,-1
 78 564 l 1,2,-1
 69 573 l 1,3,-1
 65 587 l 1,4,-1
 43 619 l 1,5,-1
 41 626 l 1,6,-1
 41 635 l 1,7,-1
 39 642 l 1,8,-1
 34 647 l 1,9,-1
 32 653 l 1,10,-1
 34 660 l 1,11,-1
 41 663 l 1,12,-1
 47 660 l 1,13,-1
 54 653 l 1,14,-1
 82 605 l 1,15,-1
 86 592 l 1,16,-1
 88 596 l 1,17,-1
 93 580 l 1,18,-1
 91 573 l 1,19,-1
 86 569 l 1,0,-1
EndSplineSet
EndChar
StartChar: a
Encoding: 97 97 65
AltUni2: 0003b1.ffffffff.0 000430.ffffffff.0 0003ac.ffffffff.0
Width: 277
GlyphClass: 2
Flags: W
AnchorPoint: "bottomattside" 252 51 basechar 0
AnchorPoint: "bottom" 159 -15 basechar 0
AnchorPoint: "top" 123 358 basechar 0
LayerCount: 2
Fore
SplineSet
170 170 m 1,0,-1
 156 193 l 1,1,-1
 140 208 l 1,2,-1
 132 208 l 1,3,-1
 112 167 l 1,4,-1
 116 155 l 1,5,-1
 128 152 l 1,6,-1
 144 152 l 1,7,-1
 167 154 l 1,8,-1
 170 170 l 1,0,-1
244 42 m 1,9,-1
 236 34 l 1,10,-1
 228 34 l 1,11,-1
 224 46 l 1,12,-1
 217 74 l 1,13,-1
 213 85 l 1,14,-1
 204 102 l 1,15,-1
 194 118 l 1,16,-1
 153 120 l 1,17,-1
 128 121 l 1,18,-1
 116 118 l 1,19,-1
 100 102 l 1,20,-1
 80 46 l 1,21,-1
 76 34 l 1,22,-1
 68 5 l 1,23,-1
 52 4 l 1,24,-1
 35 12 l 1,25,-1
 32 30 l 1,26,-1
 36 42 l 1,27,-1
 44 49 l 1,28,-1
 112 273 l 1,29,-1
 112 288 l 1,30,-1
 108 299 l 1,31,-1
 100 307 l 1,32,-1
 96 318 l 1,33,-1
 100 329 l 1,34,-1
 124 337 l 1,35,-1
 144 318 l 1,36,-1
 148 307 l 1,37,-1
 156 299 l 1,38,-1
 188 208 l 1,39,-1
 223 141 l 1,40,-1
 231 134 l 1,41,-1
 253 69 l 1,42,-1
 252 49 l 1,43,-1
 244 42 l 1,9,-1
EndSplineSet
EndChar
StartChar: b
Encoding: 98 98 66
AltUni2: 000432.ffffffff.0 0003b2.ffffffff.0
Width: 251
GlyphClass: 2
Flags: W
AnchorPoint: "bottomattside" 174 89 basechar 0
AnchorPoint: "bottom" 138 5 basechar 0
AnchorPoint: "top" 118 369 basechar 0
LayerCount: 2
Fore
SplineSet
172 290 m 1,0,-1
 168 301 l 1,1,-1
 157 308 l 1,2,-1
 143 309 l 1,3,-1
 93 297 l 1,4,-1
 79 292 l 1,5,-1
 63 277 l 1,6,-1
 63 244 l 1,7,-1
 67 223 l 1,8,-1
 87 223 l 1,9,-1
 129 231 l 1,10,-1
 141 234 l 1,11,-1
 168 266 l 1,12,-1
 172 290 l 1,0,-1
188 153 m 1,13,-1
 184 164 l 1,14,-1
 169 176 l 1,15,-1
 160 180 l 1,16,-1
 141 183 l 1,17,-1
 94 183 l 1,18,-1
 83 179 l 1,19,-1
 67 164 l 1,20,-1
 63 153 l 1,21,-1
 70 118 l 1,22,-1
 74 101 l 1,23,-1
 79 92 l 1,24,-1
 110 92 l 1,25,-1
 150 103 l 1,26,-1
 169 119 l 1,27,-1
 184 141 l 1,28,-1
 188 153 l 1,13,-1
200 301 m 1,29,-1
 200 283 l 1,30,-1
 197 271 l 1,31,-1
 189 256 l 1,32,-1
 185 245 l 1,33,-1
 160 214 l 1,34,-1
 183 207 l 1,35,-1
 200 195 l 1,36,-1
 215 179 l 1,37,-1
 219 168 l 1,38,-1
 219 138 l 1,39,-1
 215 126 l 1,40,-1
 205 110 l 1,41,-1
 168 81 l 1,42,-1
 137 65 l 1,43,-1
 110 62 l 1,44,-1
 74 62 l 1,45,-1
 75 27 l 1,46,-1
 74 17 l 1,47,-1
 58 15 l 1,48,-1
 47 19 l 1,49,-1
 42 59 l 1,50,-1
 33 185 l 1,51,-1
 32 203 l 1,52,-1
 32 320 l 1,53,-1
 36 331 l 1,54,-1
 59 331 l 1,55,-1
 67 324 l 1,56,-1
 148 337 l 1,57,-1
 172 335 l 1,58,-1
 189 322 l 1,59,-1
 200 301 l 1,29,-1
EndSplineSet
EndChar
StartChar: c
Encoding: 99 99 67
AltUni2: 000441.ffffffff.0
Width: 208
GlyphClass: 2
Flags: W
AnchorPoint: "bottomattside" 167 31 basechar 0
AnchorPoint: "bottom" 123 -10 basechar 0
AnchorPoint: "top" 118 348 basechar 0
LayerCount: 2
Fore
SplineSet
162 19 m 1,0,-1
 137 16 l 1,1,-1
 119 21 l 1,2,-1
 83 40 l 1,3,-1
 56 76 l 1,4,-1
 21 156 l 1,5,-1
 17 170 l 1,6,-1
 23 224 l 1,7,-1
 28 241 l 1,8,-1
 43 274 l 1,9,-1
 74 301 l 1,10,-1
 103 318 l 1,11,-1
 115 323 l 1,12,-1
 142 327 l 1,13,-1
 154 323 l 1,14,-1
 158 313 l 1,15,-1
 154 302 l 1,16,-1
 142 298 l 1,17,-1
 120 292 l 1,18,-1
 108 288 l 1,19,-1
 87 275 l 1,20,-1
 74 255 l 1,21,-1
 63 224 l 1,22,-1
 59 206 l 1,23,-1
 56 146 l 1,24,-1
 61 127 l 1,25,-1
 83 84 l 1,26,-1
 115 55 l 1,27,-1
 129 49 l 1,28,-1
 158 49 l 1,29,-1
 171 44 l 1,30,-1
 174 37 l 1,31,-1
 170 26 l 1,32,-1
 162 19 l 1,0,-1
EndSplineSet
EndChar
StartChar: d
Encoding: 100 100 68
Width: 256
GlyphClass: 2
Flags: W
AnchorPoint: "bottomattside" 184 99 basechar 0
AnchorPoint: "bottom" 131 11 basechar 0
AnchorPoint: "top" 123 343 basechar 0
LayerCount: 2
Fore
SplineSet
190 222 m 1,0,-1
 190 251 l 1,1,-1
 186 262 l 1,2,-1
 172 279 l 1,3,-1
 139 291 l 1,4,-1
 127 295 l 1,5,-1
 95 295 l 1,6,-1
 84 291 l 1,7,-1
 80 280 l 1,8,-1
 84 195 l 1,9,-1
 95 90 l 1,10,-1
 99 80 l 1,11,-1
 115 79 l 1,12,-1
 155 123 l 1,13,-1
 174 149 l 1,14,-1
 191 204 l 1,15,-1
 190 222 l 1,0,-1
213 158 m 1,16,-1
 209 147 l 1,17,-1
 194 120 l 1,18,-1
 176 91 l 1,19,-1
 124 36 l 1,20,-1
 95 32 l 1,21,-1
 80 32 l 1,22,-1
 68 36 l 1,23,-1
 64 47 l 1,24,-1
 48 193 l 1,25,-1
 45 266 l 1,26,-1
 42 291 l 1,27,-1
 38 302 l 1,28,-1
 42 313 l 1,29,-1
 55 327 l 1,30,-1
 63 327 l 1,31,-1
 71 320 l 1,32,-1
 95 324 l 1,33,-1
 127 324 l 1,34,-1
 139 321 l 1,35,-1
 171 306 l 1,36,-1
 211 272 l 1,37,-1
 222 251 l 1,38,-1
 222 207 l 1,39,-1
 213 158 l 1,16,-1
EndSplineSet
EndChar
StartChar: e
Encoding: 101 101 69
AltUni2: 0003b5.ffffffff.0 000435.ffffffff.0 0003ad.ffffffff.0
Width: 256
GlyphClass: 2
Flags: W
AnchorPoint: "bottomattside" 199 25 basechar 0
AnchorPoint: "bottom" 138 -20 basechar 0
AnchorPoint: "top" 128 353 basechar 0
LayerCount: 2
Fore
SplineSet
208 193 m 1,0,-1
 176 193 l 1,1,-1
 164 189 l 1,2,-1
 115 187 l 1,3,-1
 103 183 l 1,4,-1
 101 164 l 1,5,-1
 100 123 l 1,6,-1
 112 60 l 1,7,-1
 116 49 l 1,8,-1
 128 45 l 1,9,-1
 192 45 l 1,10,-1
 204 42 l 1,11,-1
 204 34 l 1,12,-1
 198 23 l 1,13,-1
 182 23 l 1,14,-1
 170 20 l 1,15,-1
 144 16 l 1,16,-1
 71 14 l 1,17,-1
 59 18 l 1,18,-1
 52 34 l 1,19,-1
 52 42 l 1,20,-1
 76 49 l 1,21,-1
 75 65 l 1,22,-1
 68 93 l 1,23,-1
 64 164 l 1,24,-1
 62 180 l 1,25,-1
 36 187 l 1,26,-1
 32 208 l 1,27,-1
 36 219 l 1,28,-1
 56 224 l 1,29,-1
 56 241 l 1,30,-1
 52 263 l 1,31,-1
 52 285 l 1,32,-1
 54 317 l 1,33,-1
 80 326 l 1,34,-1
 112 326 l 1,35,-1
 124 322 l 1,36,-1
 176 311 l 1,37,-1
 188 308 l 1,38,-1
 192 296 l 1,39,-1
 188 285 l 1,40,-1
 180 285 l 1,41,-1
 140 293 l 1,42,-1
 128 296 l 1,43,-1
 112 296 l 1,44,-1
 100 293 l 1,45,-1
 96 282 l 1,46,-1
 96 237 l 1,47,-1
 100 226 l 1,48,-1
 112 223 l 1,49,-1
 208 223 l 1,50,-1
 220 219 l 1,51,-1
 224 208 l 1,52,-1
 220 197 l 1,53,-1
 208 193 l 1,0,-1
EndSplineSet
EndChar
StartChar: f
Encoding: 102 102 70
Width: 224
GlyphClass: 2
Flags: W
AnchorPoint: "bottomattside" 119 38 basechar 0
AnchorPoint: "bottom" 113 -15 basechar 0
AnchorPoint: "top" 118 379 basechar 0
LayerCount: 2
Fore
SplineSet
108 194 m 1,0,-1
 108 181 l 1,1,-1
 111 108 l 1,2,-1
 115 97 l 1,3,-1
 123 51 l 1,4,-1
 119 26 l 1,5,-1
 108 20 l 1,6,-1
 100 20 l 1,7,-1
 84 35 l 1,8,-1
 84 43 l 1,9,-1
 80 77 l 1,10,-1
 76 166 l 1,11,-1
 69 197 l 1,12,-1
 42 193 l 1,13,-1
 36 204 l 1,14,-1
 38 218 l 1,15,-1
 52 227 l 1,16,-1
 68 233 l 1,17,-1
 64 261 l 1,18,-1
 64 276 l 1,19,-1
 60 288 l 1,20,-1
 36 295 l 1,21,-1
 32 307 l 1,22,-1
 36 318 l 1,23,-1
 44 326 l 1,24,-1
 111 338 l 1,25,-1
 123 341 l 1,26,-1
 131 349 l 1,27,-1
 155 349 l 1,28,-1
 171 334 l 1,29,-1
 171 326 l 1,30,-1
 155 316 l 1,31,-1
 147 316 l 1,32,-1
 123 311 l 1,33,-1
 100 303 l 1,34,-1
 96 292 l 1,35,-1
 96 261 l 1,36,-1
 100 250 l 1,37,-1
 108 233 l 1,38,-1
 123 234 l 1,39,-1
 171 242 l 1,40,-1
 186 235 l 1,41,-1
 187 219 l 1,42,-1
 179 211 l 1,43,-1
 171 204 l 1,44,-1
 163 204 l 1,45,-1
 127 200 l 1,46,-1
 111 200 l 1,47,-1
 108 194 l 1,0,-1
EndSplineSet
EndChar
StartChar: g
Encoding: 103 103 71
Width: 262
GlyphClass: 2
Flags: W
AnchorPoint: "bottomattside" 191 31 basechar 0
AnchorPoint: "bottom" 143 -15 basechar 0
AnchorPoint: "top" 138 358 basechar 0
LayerCount: 2
Fore
SplineSet
221 125 m 1,0,-1
 217 115 l 1,1,-1
 217 72 l 1,2,-1
 214 62 l 1,3,-1
 198 34 l 1,4,-1
 183 20 l 1,5,-1
 171 16 l 1,6,-1
 125 16 l 1,7,-1
 113 20 l 1,8,-1
 90 41 l 1,9,-1
 56 64 l 1,10,-1
 36 90 l 1,11,-1
 32 101 l 1,12,-1
 29 199 l 1,13,-1
 36 224 l 1,14,-1
 43 241 l 1,15,-1
 51 252 l 1,16,-1
 67 280 l 1,17,-1
 98 308 l 1,18,-1
 129 322 l 1,19,-1
 140 326 l 1,20,-1
 187 326 l 1,21,-1
 198 322 l 1,22,-1
 202 312 l 1,23,-1
 198 301 l 1,24,-1
 187 298 l 1,25,-1
 140 298 l 1,26,-1
 129 294 l 1,27,-1
 98 266 l 1,28,-1
 82 238 l 1,29,-1
 63 185 l 1,30,-1
 63 129 l 1,31,-1
 67 118 l 1,32,-1
 82 90 l 1,33,-1
 129 48 l 1,34,-1
 140 44 l 1,35,-1
 156 44 l 1,36,-1
 167 48 l 1,37,-1
 183 62 l 1,38,-1
 187 72 l 1,39,-1
 187 115 l 1,40,-1
 183 125 l 1,41,-1
 171 129 l 1,42,-1
 109 129 l 1,43,-1
 98 132 l 1,44,-1
 94 143 l 1,45,-1
 98 153 l 1,46,-1
 109 157 l 1,47,-1
 136 160 l 1,48,-1
 198 160 l 1,49,-1
 206 167 l 1,50,-1
 214 167 l 1,51,-1
 229 153 l 1,52,-1
 233 143 l 1,53,-1
 229 132 l 1,54,-1
 221 125 l 1,0,-1
EndSplineSet
EndChar
StartChar: h
Encoding: 104 104 72
AltUni2: 00043d.ffffffff.0 0003b7.ffffffff.0 0003ae.ffffffff.0
Width: 295
GlyphClass: 2
Flags: W
AnchorPoint: "bottomattside" 270 34 basechar 0
AnchorPoint: "bottom" 164 -15 basechar 0
AnchorPoint: "top" 113 364 basechar 0
LayerCount: 2
Fore
SplineSet
245 23 m 1,0,-1
 216 108 l 1,1,-1
 203 118 l 1,2,-1
 184 116 l 1,3,-1
 172 112 l 1,4,-1
 112 108 l 1,5,-1
 95 106 l 1,6,-1
 80 92 l 1,7,-1
 76 80 l 1,8,-1
 76 64 l 1,9,-1
 80 52 l 1,10,-1
 87 37 l 1,11,-1
 87 29 l 1,12,-1
 72 20 l 1,13,-1
 64 20 l 1,14,-1
 50 28 l 1,15,-1
 40 92 l 1,16,-1
 32 100 l 1,17,-1
 32 108 l 1,18,-1
 40 116 l 1,19,-1
 44 128 l 1,20,-1
 44 320 l 1,21,-1
 48 332 l 1,22,-1
 56 332 l 1,23,-1
 66 323 l 1,24,-1
 72 300 l 1,25,-1
 76 288 l 1,26,-1
 76 160 l 1,27,-1
 80 148 l 1,28,-1
 92 144 l 1,29,-1
 144 151 l 1,30,-1
 188 160 l 1,31,-1
 200 164 l 1,32,-1
 192 196 l 1,33,-1
 184 243 l 1,34,-1
 180 255 l 1,35,-1
 172 288 l 1,36,-1
 168 300 l 1,37,-1
 160 308 l 1,38,-1
 156 320 l 1,39,-1
 160 332 l 1,40,-1
 172 336 l 1,41,-1
 184 332 l 1,42,-1
 200 316 l 1,43,-1
 232 220 l 1,44,-1
 248 140 l 1,45,-1
 252 128 l 1,46,-1
 256 100 l 1,47,-1
 264 83 l 1,48,-1
 268 71 l 1,49,-1
 272 26 l 1,50,-1
 264 20 l 1,51,-1
 245 23 l 1,0,-1
EndSplineSet
EndChar
StartChar: i
Encoding: 105 105 73
Width: 112
GlyphClass: 2
Flags: W
AnchorPoint: "bottomattside" 80 48 basechar 0
AnchorPoint: "bottom" 72 5 basechar 0
AnchorPoint: "top" 56 348 basechar 0
LayerCount: 2
Fore
SplineSet
64 32 m 1,0,-1
 48 32 l 1,1,-1
 38 43 l 1,2,-1
 38 123 l 1,3,-1
 44 180 l 1,4,-1
 44 188 l 1,5,-1
 48 224 l 1,6,-1
 48 288 l 1,7,-1
 44 300 l 1,8,-1
 36 308 l 1,9,-1
 36 316 l 1,10,-1
 52 332 l 1,11,-1
 60 332 l 1,12,-1
 76 316 l 1,13,-1
 80 304 l 1,14,-1
 80 48 l 5,15,-1
 76 36 l 1,16,-1
 64 32 l 1,0,-1
EndSplineSet
Substitution2: "turkish-1" idotaccent
EndChar
StartChar: j
Encoding: 106 106 74
AltUni2: 000237.ffffffff.0
Width: 208
GlyphClass: 2
Flags: W
AnchorPoint: "bottomattside" 157 48 basechar 0
AnchorPoint: "bottom" 123 5 basechar 0
AnchorPoint: "top" 113 343 basechar 0
LayerCount: 2
Fore
SplineSet
174 62 m 1,0,-1
 162 41 l 1,1,-1
 150 32 l 1,2,-1
 101 32 l 1,3,-1
 88 36 l 1,4,-1
 53 53 l 1,5,-1
 43 66 l 1,6,-1
 32 101 l 1,7,-1
 32 118 l 1,8,-1
 36 131 l 1,9,-1
 49 135 l 1,10,-1
 62 131 l 1,11,-1
 70 117 l 1,12,-1
 74 104 l 1,13,-1
 74 87 l 1,14,-1
 88 71 l 1,15,-1
 101 66 l 1,16,-1
 118 66 l 1,17,-1
 131 71 l 1,18,-1
 143 92 l 1,19,-1
 137 201 l 1,20,-1
 136 214 l 1,21,-1
 114 285 l 1,22,-1
 105 294 l 1,23,-1
 101 307 l 1,24,-1
 105 320 l 1,25,-1
 118 324 l 1,26,-1
 131 320 l 1,27,-1
 148 303 l 1,28,-1
 165 251 l 1,29,-1
 168 237 l 1,30,-1
 173 173 l 1,31,-1
 177 104 l 1,32,-1
 177 78 l 1,33,-1
 174 62 l 1,0,-1
EndSplineSet
EndChar
StartChar: k
Encoding: 107 107 75
AltUni2: 0003ba.ffffffff.0
Width: 313
GlyphClass: 2
Flags: W
AnchorPoint: "bottomattside" 290 79 basechar 0
AnchorPoint: "bottom" 184 -15 basechar 0
AnchorPoint: "top" 123 338 basechar 0
LayerCount: 2
Fore
SplineSet
280 64 m 1,0,-1
 269 65 l 1,1,-1
 230 104 l 1,2,-1
 166 150 l 1,3,-1
 135 165 l 1,4,-1
 123 169 l 1,5,-1
 111 165 l 1,6,-1
 107 154 l 1,7,-1
 107 15 l 1,8,-1
 103 4 l 1,9,-1
 91 0 l 1,10,-1
 79 4 l 1,11,-1
 76 15 l 1,12,-1
 74 62 l 1,13,-1
 72 73 l 1,14,-1
 70 143 l 1,15,-1
 41 146 l 1,16,-1
 37 150 l 1,17,-1
 34 163 l 1,18,-1
 62 184 l 1,19,-1
 62 198 l 1,20,-1
 60 231 l 1,21,-1
 56 242 l 1,22,-1
 44 292 l 1,23,-1
 40 304 l 1,24,-1
 38 312 l 1,25,-1
 38 319 l 1,26,-1
 44 323 l 1,27,-1
 61 324 l 1,28,-1
 69 316 l 1,29,-1
 85 280 l 1,30,-1
 96 245 l 1,31,-1
 105 224 l 1,32,-1
 119 224 l 1,33,-1
 165 282 l 1,34,-1
 190 319 l 1,35,-1
 202 323 l 1,36,-1
 214 319 l 1,37,-1
 216 307 l 1,38,-1
 210 295 l 1,39,-1
 206 284 l 1,40,-1
 159 212 l 1,41,-1
 159 204 l 1,42,-1
 182 192 l 1,43,-1
 222 163 l 1,44,-1
 246 147 l 1,45,-1
 293 104 l 1,46,-1
 297 92 l 1,47,-1
 297 77 l 1,48,-1
 292 68 l 1,49,-1
 280 64 l 1,0,-1
EndSplineSet
EndChar
StartChar: l
Encoding: 108 108 76
Width: 272
GlyphClass: 2
Flags: W
AnchorPoint: "bottomattside" 239 58 basechar 0
AnchorPoint: "bottom" 143 0 basechar 0
AnchorPoint: "top" 67 358 basechar 0
LayerCount: 2
Fore
SplineSet
220 69 m 1,0,-1
 212 69 l 1,1,-1
 212 61 l 1,2,-1
 220 61 l 1,3,-1
 220 69 l 1,0,-1
226 46 m 1,4,-1
 174 44 l 1,5,-1
 166 42 l 1,6,-1
 78 42 l 1,7,-1
 54 50 l 1,8,-1
 50 62 l 1,9,-1
 45 248 l 1,10,-1
 44 261 l 1,11,-1
 44 301 l 1,12,-1
 52 325 l 1,13,-1
 64 329 l 1,14,-1
 76 325 l 1,15,-1
 80 313 l 1,16,-1
 86 97 l 1,17,-1
 90 85 l 1,18,-1
 102 81 l 1,19,-1
 224 89 l 1,20,-1
 236 85 l 1,21,-1
 240 73 l 1,22,-1
 242 62 l 1,23,-1
 238 50 l 1,24,-1
 226 46 l 1,4,-1
EndSplineSet
EndChar
StartChar: m
Encoding: 109 109 77
AltUni2: 00043c.ffffffff.0 0003bc.ffffffff.0
Width: 368
GlyphClass: 2
Flags: W
AnchorPoint: "bottomattside" 338 61 basechar 0
AnchorPoint: "bottom" 195 -5 basechar 0
AnchorPoint: "top" 179 317 basechar 0
LayerCount: 2
Fore
SplineSet
340 48 m 1,0,-1
 316 48 l 1,1,-1
 308 57 l 1,2,-1
 304 71 l 1,3,-1
 304 163 l 1,4,-1
 299 197 l 1,5,-1
 294 208 l 1,6,-1
 275 195 l 1,7,-1
 245 155 l 1,8,-1
 227 121 l 1,9,-1
 218 94 l 1,10,-1
 202 75 l 1,11,-1
 194 75 l 1,12,-1
 162 105 l 1,13,-1
 151 121 l 1,14,-1
 89 195 l 1,15,-1
 81 195 l 1,16,-1
 77 181 l 1,17,-1
 79 154 l 1,18,-1
 81 131 l 1,19,-1
 93 34 l 1,20,-1
 88 23 l 1,21,-1
 81 20 l 1,22,-1
 69 25 l 1,23,-1
 64 57 l 1,24,-1
 60 71 l 1,25,-1
 50 163 l 1,26,-1
 44 237 l 1,27,-1
 40 250 l 1,28,-1
 32 260 l 1,29,-1
 32 269 l 1,30,-1
 48 287 l 1,31,-1
 56 287 l 1,32,-1
 134 193 l 1,33,-1
 178 131 l 1,34,-1
 185 127 l 1,35,-1
 233 189 l 1,36,-1
 267 241 l 1,37,-1
 275 269 l 1,38,-1
 287 292 l 1,39,-1
 304 292 l 1,40,-1
 316 287 l 1,41,-1
 320 273 l 1,42,-1
 320 255 l 1,43,-1
 326 220 l 1,44,-1
 336 89 l 1,45,-1
 340 75 l 1,46,-1
 342 67 l 1,47,-1
 342 58 l 1,48,-1
 340 48 l 1,0,-1
EndSplineSet
EndChar
StartChar: n
Encoding: 110 110 78
AltUni2: 0003bd.ffffffff.0
Width: 320
GlyphClass: 2
Flags: W
AnchorPoint: "bottomattside" 294 65 basechar 0
AnchorPoint: "bottom" 174 5 basechar 0
AnchorPoint: "top" 123 333 basechar 0
LayerCount: 2
Fore
SplineSet
290 57 m 1,0,-1
 280 52 l 1,1,-1
 272 52 l 1,2,-1
 264 76 l 1,3,-1
 233 105 l 1,4,-1
 206 120 l 1,5,-1
 174 140 l 1,6,-1
 88 204 l 1,7,-1
 80 204 l 1,8,-1
 76 192 l 1,9,-1
 77 113 l 1,10,-1
 80 100 l 1,11,-1
 88 44 l 1,12,-1
 84 32 l 1,13,-1
 60 33 l 1,14,-1
 52 48 l 1,15,-1
 52 70 l 1,16,-1
 46 108 l 1,17,-1
 44 128 l 1,18,-1
 40 220 l 1,19,-1
 40 252 l 1,20,-1
 32 260 l 1,21,-1
 32 268 l 1,22,-1
 48 284 l 1,23,-1
 56 284 l 1,24,-1
 128 212 l 1,25,-1
 176 180 l 1,26,-1
 240 148 l 1,27,-1
 248 148 l 1,28,-1
 252 160 l 1,29,-1
 245 203 l 1,30,-1
 241 215 l 1,31,-1
 229 263 l 1,32,-1
 225 275 l 1,33,-1
 220 320 l 1,34,-1
 224 332 l 1,35,-1
 236 332 l 1,36,-1
 248 316 l 1,37,-1
 256 292 l 1,38,-1
 259 279 l 1,39,-1
 268 256 l 1,40,-1
 272 244 l 1,41,-1
 284 192 l 1,42,-1
 296 83 l 1,43,-1
 296 68 l 1,44,-1
 290 57 l 1,0,-1
EndSplineSet
EndChar
StartChar: o
Encoding: 111 111 79
AltUni2: 0003bf.ffffffff.0 00043e.ffffffff.0 0003cc.ffffffff.0
Width: 281
GlyphClass: 2
Flags: W
AnchorPoint: "bottomattside" 184 41 basechar 0
AnchorPoint: "bottom" 133 -5 basechar 0
AnchorPoint: "top" 148 317 basechar 0
LayerCount: 2
Fore
SplineSet
208 202 m 1,0,-1
 207 223 l 1,1,-1
 202 239 l 1,2,-1
 192 254 l 1,3,-1
 181 260 l 1,4,-1
 170 260 l 1,5,-1
 152 256 l 1,6,-1
 128 239 l 1,7,-1
 111 223 l 1,8,-1
 100 205 l 1,9,-1
 88 180 l 1,10,-1
 79 163 l 1,11,-1
 68 135 l 1,12,-1
 62 116 l 1,13,-1
 60 100 l 1,14,-1
 66 82 l 1,15,-1
 86 61 l 1,16,-1
 102 56 l 1,17,-1
 144 56 l 1,18,-1
 161 66 l 1,19,-1
 174 81 l 1,20,-1
 187 101 l 1,21,-1
 195 116 l 1,22,-1
 205 142 l 1,23,-1
 211 183 l 1,24,-1
 208 202 l 1,0,-1
243 145 m 1,25,-1
 233 112 l 1,26,-1
 228 98 l 1,27,-1
 213 73 l 1,28,-1
 187 40 l 1,29,-1
 178 32 l 1,30,-1
 168 27 l 1,31,-1
 111 23 l 1,32,-1
 97 26 l 1,33,-1
 77 31 l 1,34,-1
 45 52 l 1,35,-1
 32 71 l 1,36,-1
 28 87 l 1,37,-1
 25 120 l 1,38,-1
 33 152 l 1,39,-1
 41 171 l 1,40,-1
 54 194 l 1,41,-1
 122 285 l 1,42,-1
 137 292 l 1,43,-1
 153 295 l 1,44,-1
 171 291 l 1,45,-1
 217 273 l 1,46,-1
 229 262 l 1,47,-1
 239 239 l 1,48,-1
 246 219 l 1,49,-1
 246 159 l 1,50,-1
 243 145 l 1,25,-1
EndSplineSet
EndChar
StartChar: p
Encoding: 112 112 80
AltUni2: 0003c1.ffffffff.0 000440.ffffffff.0
Width: 250
GlyphClass: 2
Flags: W
AnchorPoint: "bottomattside" 99 31 basechar 0
AnchorPoint: "bottom" 92 -20 basechar 0
AnchorPoint: "top" 128 369 basechar 0
LayerCount: 2
Fore
SplineSet
191 254 m 1,0,-1
 184 268 l 1,1,-1
 172 272 l 1,2,-1
 156 272 l 1,3,-1
 142 271 l 1,4,-1
 105 264 l 1,5,-1
 88 255 l 1,6,-1
 82 242 l 1,7,-1
 80 228 l 1,8,-1
 81 212 l 1,9,-1
 88 191 l 1,10,-1
 94 187 l 1,11,-1
 124 190 l 1,12,-1
 157 207 l 1,13,-1
 187 242 l 1,14,-1
 191 254 l 1,0,-1
224 252 m 1,15,-1
 216 230 l 1,16,-1
 152 164 l 1,17,-1
 120 148 l 1,18,-1
 96 140 l 1,19,-1
 92 128 l 1,20,-1
 92 112 l 1,21,-1
 98 83 l 1,22,-1
 102 31 l 1,23,-1
 98 19 l 1,24,-1
 86 15 l 1,25,-1
 74 19 l 1,26,-1
 70 31 l 1,27,-1
 69 44 l 1,28,-1
 64 71 l 1,29,-1
 59 110 l 1,30,-1
 56 124 l 1,31,-1
 52 148 l 1,32,-1
 40 156 l 1,33,-1
 33 160 l 1,34,-1
 32 172 l 1,35,-1
 40 180 l 1,36,-1
 48 184 l 1,37,-1
 44 320 l 1,38,-1
 48 332 l 1,39,-1
 60 336 l 1,40,-1
 72 332 l 1,41,-1
 76 320 l 1,42,-1
 76 304 l 1,43,-1
 80 292 l 1,44,-1
 92 291 l 1,45,-1
 128 300 l 1,46,-1
 140 302 l 1,47,-1
 188 304 l 1,48,-1
 200 300 l 1,49,-1
 208 292 l 1,50,-1
 223 265 l 1,51,-1
 224 252 l 1,15,-1
EndSplineSet
EndChar
StartChar: q
Encoding: 113 113 81
Width: 283
GlyphClass: 2
Flags: W
AnchorPoint: "bottomattside" 119 79 basechar 0
AnchorPoint: "bottom" 133 0 basechar 0
AnchorPoint: "top" 108 338 basechar 0
LayerCount: 2
Fore
SplineSet
135 157 m 1,0,-1
 116 180 l 1,1,-1
 112 192 l 1,2,-1
 118 201 l 1,3,-1
 125 202 l 1,4,-1
 132 196 l 1,5,-1
 149 177 l 1,6,-1
 146 252 l 1,7,-1
 142 258 l 1,8,-1
 135 266 l 1,9,-1
 119 271 l 1,10,-1
 111 270 l 1,11,-1
 104 268 l 1,12,-1
 89 258 l 1,13,-1
 73 232 l 1,14,-1
 70 224 l 1,15,-1
 69 216 l 1,16,-1
 71 125 l 1,17,-1
 73 117 l 1,18,-1
 79 108 l 1,19,-1
 95 99 l 1,20,-1
 105 99 l 1,21,-1
 121 109 l 1,22,-1
 143 145 l 1,23,-1
 135 157 l 1,0,-1
260 36 m 1,24,-1
 184 105 l 1,25,-1
 174 111 l 1,26,-1
 158 125 l 1,27,-1
 148 108 l 1,28,-1
 130 84 l 1,29,-1
 108 68 l 1,30,-1
 96 65 l 1,31,-1
 81 67 l 1,32,-1
 51 87 l 1,33,-1
 44 97 l 1,34,-1
 40 108 l 1,35,-1
 32 208 l 1,36,-1
 35 226 l 1,37,-1
 42 244 l 1,38,-1
 65 280 l 1,39,-1
 86 295 l 1,40,-1
 100 299 l 1,41,-1
 137 299 l 1,42,-1
 149 293 l 1,43,-1
 166 269 l 1,44,-1
 170 257 l 1,45,-1
 173 158 l 1,46,-1
 180 148 l 1,47,-1
 268 60 l 1,48,-1
 272 48 l 1,49,-1
 268 36 l 1,50,-1
 260 36 l 1,24,-1
EndSplineSet
EndChar
StartChar: r
Encoding: 114 114 82
Width: 263
GlyphClass: 2
Flags: W
AnchorPoint: "bottomattside" 246 48 basechar 0
AnchorPoint: "bottom" 164 -15 basechar 0
AnchorPoint: "top" 108 353 basechar 0
LayerCount: 2
Fore
SplineSet
159 266 m 1,0,-1
 152 275 l 1,1,-1
 140 279 l 1,2,-1
 92 279 l 1,3,-1
 80 275 l 1,4,-1
 76 256 l 1,5,-1
 76 240 l 1,6,-1
 80 224 l 1,7,-1
 88 220 l 1,8,-1
 120 220 l 1,9,-1
 136 228 l 1,10,-1
 152 244 l 1,11,-1
 159 266 l 1,0,-1
240 36 m 1,12,-1
 229 41 l 1,13,-1
 180 105 l 1,14,-1
 135 156 l 1,15,-1
 116 170 l 1,16,-1
 97 174 l 1,17,-1
 91 172 l 1,18,-1
 92 160 l 1,19,-1
 96 83 l 1,20,-1
 101 56 l 1,21,-1
 105 44 l 1,22,-1
 106 30 l 1,23,-1
 104 20 l 1,24,-1
 92 16 l 1,25,-1
 80 20 l 1,26,-1
 76 32 l 1,27,-1
 72 42 l 1,28,-1
 66 82 l 1,29,-1
 55 168 l 1,30,-1
 51 180 l 1,31,-1
 48 196 l 1,32,-1
 44 240 l 1,33,-1
 46 276 l 1,34,-1
 51 298 l 1,35,-1
 60 304 l 1,36,-1
 156 304 l 1,37,-1
 168 300 l 1,38,-1
 184 284 l 1,39,-1
 188 272 l 1,40,-1
 188 256 l 1,41,-1
 184 244 l 1,42,-1
 156 212 l 1,43,-1
 138 201 l 1,44,-1
 128 196 l 1,45,-1
 215 107 l 1,46,-1
 248 60 l 1,47,-1
 252 48 l 1,48,-1
 248 36 l 1,49,-1
 240 36 l 1,12,-1
EndSplineSet
EndChar
StartChar: s
Encoding: 115 115 83
AltUni2: 00017f.ffffffff.0
Width: 192
GlyphClass: 2
Flags: W
AnchorPoint: "bottomattside" 140 34 basechar 0
AnchorPoint: "bottom" 102 -10 basechar 0
AnchorPoint: "top" 77 343 basechar 0
LayerCount: 2
Fore
SplineSet
156 40 m 1,0,-1
 141 25 l 1,1,-1
 132 22 l 1,2,-1
 108 21 l 1,3,-1
 92 24 l 1,4,-1
 66 35 l 1,5,-1
 36 56 l 1,6,-1
 32 68 l 1,7,-1
 32 84 l 1,8,-1
 38 89 l 1,9,-1
 43 90 l 1,10,-1
 79 57 l 1,11,-1
 107 51 l 1,12,-1
 124 53 l 1,13,-1
 129 57 l 1,14,-1
 134 77 l 1,15,-1
 130 98 l 1,16,-1
 124 112 l 1,17,-1
 106 144 l 1,18,-1
 30 252 l 1,19,-1
 27 261 l 1,20,-1
 28 270 l 1,21,-1
 41 295 l 1,22,-1
 57 310 l 1,23,-1
 67 312 l 1,24,-1
 72 312 l 1,25,-1
 81 310 l 1,26,-1
 92 304 l 1,27,-1
 121 274 l 1,28,-1
 116 264 l 1,29,-1
 109 264 l 1,30,-1
 88 285 l 1,31,-1
 72 290 l 1,32,-1
 62 286 l 1,33,-1
 56 278 l 1,34,-1
 54 264 l 1,35,-1
 56 256 l 1,36,-1
 124 176 l 1,37,-1
 140 153 l 1,38,-1
 144 144 l 1,39,-1
 154 114 l 1,40,-1
 160 84 l 1,41,-1
 160 52 l 1,42,-1
 156 40 l 1,0,-1
EndSplineSet
EndChar
StartChar: t
Encoding: 116 116 84
AltUni2: 000442.ffffffff.0 0003c4.ffffffff.0
Width: 302
GlyphClass: 2
Flags: W
AnchorPoint: "bottomattside" 184 34 basechar 0
AnchorPoint: "bottom" 174 -15 basechar 0
AnchorPoint: "top" 133 353 basechar 0
LayerCount: 2
Fore
SplineSet
267 273 m 1,0,-1
 191 266 l 1,1,-1
 179 262 l 1,2,-1
 163 242 l 1,3,-1
 175 112 l 1,4,-1
 179 98 l 1,5,-1
 185 85 l 1,6,-1
 188 70 l 1,7,-1
 188 32 l 1,8,-1
 187 21 l 1,9,-1
 175 16 l 1,10,-1
 163 21 l 1,11,-1
 155 31 l 1,12,-1
 155 49 l 1,13,-1
 152 64 l 1,14,-1
 148 79 l 1,15,-1
 143 93 l 1,16,-1
 132 194 l 1,17,-1
 129 218 l 1,18,-1
 126 236 l 1,19,-1
 123 249 l 1,20,-1
 112 251 l 1,21,-1
 17 247 l 1,22,-1
 5 252 l 1,23,-1
 5 262 l 1,24,-1
 15 278 l 1,25,-1
 37 281 l 1,26,-1
 112 285 l 1,27,-1
 129 288 l 1,28,-1
 132 300 l 1,29,-1
 143 305 l 1,30,-1
 159 305 l 1,31,-1
 161 300 l 1,32,-1
 169 290 l 1,33,-1
 185 291 l 1,34,-1
 196 294 l 1,35,-1
 211 297 l 1,36,-1
 270 305 l 1,37,-1
 282 300 l 1,38,-1
 286 285 l 1,39,-1
 279 278 l 1,40,-1
 267 273 l 1,0,-1
EndSplineSet
EndChar
StartChar: u
Encoding: 117 117 85
Width: 216
GlyphClass: 2
Flags: W
AnchorPoint: "bottomattside" 157 38 basechar 0
AnchorPoint: "bottom" 118 -15 basechar 0
AnchorPoint: "top" 113 328 basechar 0
LayerCount: 2
Fore
SplineSet
171 75 m 1,0,-1
 158 39 l 1,1,-1
 141 21 l 1,2,-1
 127 16 l 1,3,-1
 108 16 l 1,4,-1
 94 21 l 1,5,-1
 55 62 l 1,6,-1
 51 76 l 1,7,-1
 33 183 l 1,8,-1
 32 198 l 1,9,-1
 32 279 l 1,10,-1
 37 294 l 1,11,-1
 54 296 l 1,12,-1
 65 294 l 1,13,-1
 70 279 l 1,14,-1
 70 239 l 1,15,-1
 71 224 l 1,16,-1
 73 168 l 1,17,-1
 75 149 l 1,18,-1
 89 76 l 1,19,-1
 95 64 l 1,20,-1
 103 62 l 1,21,-1
 131 71 l 1,22,-1
 135 87 l 1,23,-1
 144 147 l 1,24,-1
 144 161 l 1,25,-1
 146 259 l 1,26,-1
 151 274 l 1,27,-1
 165 279 l 1,28,-1
 179 274 l 1,29,-1
 184 259 l 1,30,-1
 181 139 l 1,31,-1
 179 122 l 1,32,-1
 171 75 l 1,0,-1
EndSplineSet
EndChar
StartChar: v
Encoding: 118 118 86
Width: 209
GlyphClass: 2
Flags: W
AnchorPoint: "bottomattside" 143 51 basechar 0
AnchorPoint: "bottom" 143 -5 basechar 0
AnchorPoint: "top" 108 312 basechar 0
LayerCount: 2
Fore
SplineSet
182 208 m 1,0,-1
 174 128 l 1,1,-1
 172 116 l 1,2,-1
 153 59 l 1,3,-1
 140 36 l 1,4,-1
 128 32 l 1,5,-1
 116 36 l 1,6,-1
 96 80 l 1,7,-1
 90 91 l 1,8,-1
 84 100 l 1,9,-1
 64 160 l 1,10,-1
 53 190 l 1,11,-1
 30 272 l 1,12,-1
 35 281 l 1,13,-1
 39 284 l 1,14,-1
 47 284 l 1,15,-1
 56 266 l 1,16,-1
 67 227 l 1,17,-1
 80 192 l 1,18,-1
 84 180 l 1,19,-1
 100 148 l 1,20,-1
 116 100 l 1,21,-1
 124 91 l 1,22,-1
 140 100 l 1,23,-1
 144 112 l 1,24,-1
 151 182 l 1,25,-1
 152 194 l 1,26,-1
 160 256 l 1,27,-1
 164 268 l 1,28,-1
 176 272 l 1,29,-1
 185 266 l 1,30,-1
 189 260 l 1,31,-1
 182 208 l 1,0,-1
EndSplineSet
EndChar
StartChar: w
Encoding: 119 119 87
Width: 359
GlyphClass: 2
Flags: W
AnchorPoint: "bottomattside" 270 89 basechar 0
AnchorPoint: "bottom" 205 20 basechar 0
AnchorPoint: "top" 174 333 basechar 0
LayerCount: 2
Fore
SplineSet
344 261 m 1,0,-1
 308 166 l 1,1,-1
 292 127 l 1,2,-1
 268 79 l 1,3,-1
 256 74 l 1,4,-1
 244 79 l 1,5,-1
 187 160 l 1,6,-1
 179 160 l 1,7,-1
 164 127 l 1,8,-1
 147 84 l 1,9,-1
 146 75 l 1,10,-1
 139 55 l 1,11,-1
 135 40 l 1,12,-1
 124 21 l 1,13,-1
 112 16 l 1,14,-1
 100 21 l 1,15,-1
 94 29 l 1,16,-1
 84 79 l 1,17,-1
 68 117 l 1,18,-1
 64 132 l 1,19,-1
 60 150 l 1,20,-1
 36 214 l 1,21,-1
 16 286 l 1,22,-1
 16 306 l 1,23,-1
 21 317 l 1,24,-1
 32 320 l 1,25,-1
 44 301 l 1,26,-1
 68 214 l 1,27,-1
 84 175 l 1,28,-1
 96 132 l 1,29,-1
 100 123 l 1,30,-1
 113 107 l 1,31,-1
 123 120 l 1,32,-1
 151 180 l 1,33,-1
 152 186 l 1,34,-1
 164 224 l 1,35,-1
 176 228 l 1,36,-1
 188 224 l 1,37,-1
 196 195 l 1,38,-1
 244 137 l 1,39,-1
 252 137 l 1,40,-1
 264 160 l 1,41,-1
 301 243 l 1,42,-1
 313 272 l 1,43,-1
 321 276 l 1,44,-1
 337 276 l 1,45,-1
 344 270 l 1,46,-1
 344 261 l 1,0,-1
EndSplineSet
EndChar
StartChar: x
Encoding: 120 120 88
AltUni2: 0003c7.ffffffff.0 000445.ffffffff.0
Width: 283
GlyphClass: 2
Flags: W
AnchorPoint: "bottomattside" 266 48 basechar 0
AnchorPoint: "bottom" 143 10 basechar 0
AnchorPoint: "top" 123 348 basechar 0
LayerCount: 2
Fore
SplineSet
257 34 m 1,0,-1
 243 36 l 1,1,-1
 215 76 l 1,2,-1
 142 159 l 1,3,-1
 135 163 l 1,4,-1
 99 126 l 1,5,-1
 71 86 l 1,6,-1
 58 61 l 1,7,-1
 49 36 l 1,8,-1
 37 32 l 1,9,-1
 20 32 l 1,10,-1
 6 53 l 1,11,-1
 13 68 l 1,12,-1
 22 76 l 1,13,-1
 38 98 l 1,14,-1
 56 120 l 1,15,-1
 65 134 l 1,16,-1
 104 185 l 1,17,-1
 110 195 l 1,18,-1
 104 216 l 1,19,-1
 100 228 l 1,20,-1
 83 262 l 1,21,-1
 58 289 l 1,22,-1
 53 299 l 1,23,-1
 59 308 l 1,24,-1
 71 312 l 1,25,-1
 83 312 l 1,26,-1
 95 296 l 1,27,-1
 125 237 l 1,28,-1
 140 212 l 1,29,-1
 144 214 l 1,30,-1
 180 276 l 1,31,-1
 184 279 l 1,32,-1
 198 280 l 1,33,-1
 208 265 l 1,34,-1
 208 257 l 1,35,-1
 166 197 l 1,36,-1
 163 182 l 1,37,-1
 210 120 l 1,38,-1
 268 57 l 1,39,-1
 273 49 l 1,40,-1
 269 36 l 1,41,-1
 257 34 l 1,0,-1
EndSplineSet
EndChar
StartChar: y
Encoding: 121 121 89
AltUni2: 0003c5.ffffffff.0 0003cd.ffffffff.0
Width: 305
GlyphClass: 2
Flags: W
AnchorPoint: "bottomattside" 191 20 basechar 0
AnchorPoint: "bottom" 189 -36 basechar 0
AnchorPoint: "top" 108 353 basechar 0
LayerCount: 2
Fore
SplineSet
269 308 m 1,0,-1
 181 220 l 1,1,-1
 175 187 l 1,2,-1
 175 179 l 1,3,-1
 182 123 l 1,4,-1
 187 109 l 1,5,-1
 190 97 l 1,6,-1
 193 16 l 1,7,-1
 189 4 l 1,8,-1
 181 4 l 1,9,-1
 169 7 l 1,10,-1
 166 22 l 1,11,-1
 165 35 l 1,12,-1
 162 53 l 1,13,-1
 161 64 l 1,14,-1
 154 109 l 1,15,-1
 151 122 l 1,16,-1
 149 132 l 1,17,-1
 145 144 l 1,18,-1
 141 172 l 1,19,-1
 109 204 l 1,20,-1
 65 230 l 1,21,-1
 33 246 l 1,22,-1
 5 276 l 1,23,-1
 5 284 l 1,24,-1
 17 288 l 1,25,-1
 29 284 l 1,26,-1
 49 272 l 1,27,-1
 64 265 l 1,28,-1
 101 244 l 1,29,-1
 133 228 l 1,30,-1
 141 228 l 1,31,-1
 237 324 l 1,32,-1
 253 351 l 1,33,-1
 264 362 l 1,34,-1
 269 364 l 1,35,-1
 276 359 l 1,36,-1
 285 340 l 1,37,-1
 269 308 l 1,0,-1
EndSplineSet
EndChar
StartChar: z
Encoding: 122 122 90
AltUni2: 0003b6.ffffffff.0
Width: 254
GlyphClass: 2
Flags: W
AnchorPoint: "bottomattside" 232 55 basechar 0
AnchorPoint: "bottom" 148 -15 basechar 0
AnchorPoint: "top" 102 379 basechar 0
LayerCount: 2
Fore
SplineSet
226 44 m 1,0,-1
 219 41 l 1,1,-1
 207 39 l 1,2,-1
 191 39 l 1,3,-1
 179 41 l 1,4,-1
 154 36 l 1,5,-1
 110 32 l 1,6,-1
 62 16 l 1,7,-1
 50 20 l 1,8,-1
 34 36 l 1,9,-1
 34 44 l 1,10,-1
 50 60 l 1,11,-1
 69 68 l 1,12,-1
 73 80 l 1,13,-1
 78 112 l 1,14,-1
 82 124 l 1,15,-1
 98 156 l 1,16,-1
 105 165 l 1,17,-1
 154 260 l 1,18,-1
 158 272 l 1,19,-1
 155 287 l 1,20,-1
 143 291 l 1,21,-1
 111 291 l 1,22,-1
 99 287 l 1,23,-1
 87 282 l 1,24,-1
 67 279 l 1,25,-1
 35 279 l 1,26,-1
 24 290 l 1,27,-1
 24 298 l 1,28,-1
 30 304 l 1,29,-1
 44 309 l 1,30,-1
 55 311 l 1,31,-1
 64 311 l 1,32,-1
 76 315 l 1,33,-1
 158 320 l 1,34,-1
 170 324 l 1,35,-1
 178 332 l 1,36,-1
 190 336 l 1,37,-1
 202 332 l 1,38,-1
 206 320 l 1,39,-1
 202 308 l 1,40,-1
 194 300 l 1,41,-1
 190 288 l 1,42,-1
 190 272 l 1,43,-1
 174 224 l 1,44,-1
 162 204 l 1,45,-1
 114 108 l 1,46,-1
 110 96 l 1,47,-1
 110 80 l 1,48,-1
 114 68 l 1,49,-1
 127 66 l 1,50,-1
 138 68 l 1,51,-1
 147 72 l 1,52,-1
 159 76 l 1,53,-1
 222 80 l 1,54,-1
 234 76 l 1,55,-1
 238 64 l 1,56,-1
 234 52 l 1,57,-1
 226 44 l 1,0,-1
EndSplineSet
EndChar
StartChar: braceleft
Encoding: 123 123 91
Width: 352
GlyphClass: 2
Flags: W
LayerCount: 2
Fore
SplineSet
298 13 m 1,0,-1
 278 1 l 1,1,-1
 266 -3 l 1,2,-1
 218 -3 l 1,3,-1
 190 1 l 1,4,-1
 174 17 l 1,5,-1
 157 45 l 1,6,-1
 150 59 l 1,7,-1
 142 90 l 1,8,-1
 138 109 l 1,9,-1
 140 224 l 1,10,-1
 136 236 l 1,11,-1
 120 252 l 1,12,-1
 108 256 l 1,13,-1
 60 256 l 1,14,-1
 48 260 l 1,15,-1
 32 276 l 1,16,-1
 32 284 l 1,17,-1
 97 302 l 1,18,-1
 118 316 l 1,19,-1
 137 330 l 1,20,-1
 151 342 l 1,21,-1
 156 352 l 1,22,-1
 156 368 l 1,23,-1
 139 418 l 1,24,-1
 133 443 l 1,25,-1
 131 465 l 1,26,-1
 126 497 l 1,27,-1
 125 558 l 1,28,-1
 129 587 l 1,29,-1
 135 601 l 1,30,-1
 145 619 l 1,31,-1
 209 683 l 1,32,-1
 221 687 l 1,33,-1
 233 683 l 1,34,-1
 237 671 l 1,35,-1
 233 659 l 1,36,-1
 207 646 l 1,37,-1
 177 614 l 1,38,-1
 159 579 l 1,39,-1
 155 562 l 1,40,-1
 157 543 l 1,41,-1
 161 531 l 1,42,-1
 167 509 l 1,43,-1
 171 497 l 1,44,-1
 182 423 l 1,45,-1
 186 392 l 1,46,-1
 189 356 l 1,47,-1
 189 342 l 1,48,-1
 186 328 l 1,49,-1
 180 316 l 1,50,-1
 170 304 l 1,51,-1
 140 288 l 1,52,-1
 163 262 l 1,53,-1
 168 252 l 1,54,-1
 172 240 l 1,55,-1
 180 178 l 1,56,-1
 180 152 l 1,57,-1
 185 91 l 1,58,-1
 190 65 l 1,59,-1
 213 34 l 1,60,-1
 234 29 l 1,61,-1
 246 33 l 1,62,-1
 278 49 l 1,63,-1
 286 57 l 1,64,-1
 298 61 l 1,65,-1
 310 57 l 1,66,-1
 314 45 l 1,67,-1
 314 29 l 1,68,-1
 310 17 l 1,69,-1
 298 13 l 1,0,-1
EndSplineSet
EndChar
StartChar: bar
Encoding: 124 124 92
Width: 144
GlyphClass: 2
Flags: W
LayerCount: 2
Fore
SplineSet
97 60 m 1,0,-1
 90 53 l 1,1,-1
 78 50 l 1,2,-1
 67 53 l 1,3,-1
 59 74 l 1,4,-1
 51 80 l 1,5,-1
 47 91 l 1,6,-1
 44 451 l 1,7,-1
 44 467 l 1,8,-1
 36 507 l 1,9,-1
 32 538 l 1,10,-1
 32 565 l 1,11,-1
 36 575 l 1,12,-1
 51 589 l 1,13,-1
 63 592 l 1,14,-1
 74 589 l 1,15,-1
 78 578 l 1,16,-1
 78 565 l 1,17,-1
 82 555 l 1,18,-1
 89 478 l 1,19,-1
 97 451 l 1,20,-1
 101 414 l 1,21,-1
 101 75 l 1,22,-1
 97 60 l 1,0,-1
EndSplineSet
EndChar
StartChar: braceright
Encoding: 125 125 93
Width: 272
GlyphClass: 2
Flags: W
LayerCount: 2
Fore
SplineSet
30 682 m 1,0,-1
 51 692 l 1,1,-1
 63 695 l 1,2,-1
 111 690 l 1,3,-1
 138 683 l 1,4,-1
 153 665 l 1,5,-1
 167 636 l 1,6,-1
 172 621 l 1,7,-1
 177 590 l 1,8,-1
 179 570 l 1,9,-1
 166 456 l 1,10,-1
 168 444 l 1,11,-1
 183 426 l 1,12,-1
 194 421 l 1,13,-1
 242 416 l 1,14,-1
 254 411 l 1,15,-1
 268 394 l 1,16,-1
 267 386 l 1,17,-1
 255 383 l 1,18,-1
 201 374 l 1,19,-1
 178 362 l 1,20,-1
 158 350 l 1,21,-1
 143 340 l 1,22,-1
 137 330 l 1,23,-1
 135 314 l 1,24,-1
 144 275 l 1,25,-1
 147 263 l 1,26,-1
 151 237 l 1,27,-1
 150 215 l 1,28,-1
 152 183 l 1,29,-1
 147 122 l 1,30,-1
 140 94 l 1,31,-1
 133 80 l 1,32,-1
 121 64 l 1,33,-1
 51 6 l 1,34,-1
 39 4 l 1,35,-1
 27 9 l 1,36,-1
 24 21 l 1,37,-1
 29 33 l 1,38,-1
 57 43 l 1,39,-1
 90 72 l 1,40,-1
 111 105 l 1,41,-1
 117 121 l 1,42,-1
 117 140 l 1,43,-1
 114 153 l 1,44,-1
 110 175 l 1,45,-1
 107 188 l 1,46,-1
 104 262 l 1,47,-1
 103 294 l 1,48,-1
 103 318 l 1,49,-1
 104 330 l 1,50,-1
 105 344 l 1,51,-1
 109 357 l 1,52,-1
 117 369 l 1,53,-1
 128 380 l 1,54,-1
 159 392 l 1,55,-1
 139 421 l 1,56,-1
 135 431 l 1,57,-1
 132 443 l 1,58,-1
 131 506 l 1,59,-1
 133 532 l 1,60,-1
 134 593 l 1,61,-1
 132 619 l 1,62,-1
 112 652 l 1,63,-1
 92 660 l 1,64,-1
 79 657 l 1,65,-1
 46 644 l 1,66,-1
 37 637 l 1,67,-1
 25 634 l 1,68,-1
 13 639 l 1,69,-1
 11 652 l 1,70,-1
 12 668 l 1,71,-1
 17 679 l 1,72,-1
 30 682 l 1,0,-1
EndSplineSet
EndChar
StartChar: asciitilde
Encoding: 126 126 94
Width: 288
GlyphClass: 2
Flags: W
LayerCount: 2
Fore
SplineSet
252 292 m 1,0,-1
 220 260 l 1,1,-1
 208 256 l 1,2,-1
 196 260 l 1,3,-1
 154 310 l 1,4,-1
 134 338 l 1,5,-1
 101 376 l 1,6,-1
 84 380 l 1,7,-1
 70 373 l 1,8,-1
 57 340 l 1,9,-1
 55 323 l 1,10,-1
 55 306 l 1,11,-1
 36 308 l 1,12,-1
 32 320 l 1,13,-1
 32 352 l 1,14,-1
 36 364 l 1,15,-1
 45 382 l 1,16,-1
 67 405 l 1,17,-1
 84 412 l 1,18,-1
 96 414 l 1,19,-1
 108 412 l 1,20,-1
 155 359 l 1,21,-1
 180 319 l 1,22,-1
 192 306 l 1,23,-1
 208 304 l 1,24,-1
 226 319 l 1,25,-1
 230 343 l 1,26,-1
 228 387 l 1,27,-1
 226 403 l 1,28,-1
 229 412 l 1,29,-1
 238 422 l 1,30,-1
 246 422 l 1,31,-1
 250 410 l 1,32,-1
 257 316 l 1,33,-1
 252 292 l 1,0,-1
EndSplineSet
EndChar
StartChar: exclamdown
Encoding: 161 161 95
Width: 112
GlyphClass: 2
Flags: W
LayerCount: 2
Fore
SplineSet
76 492 m 1,0,-1
 80 480 l 1,1,-1
 75 255 l 1,2,-1
 72 236 l 1,3,-1
 69 212 l 1,4,-1
 67 190 l 1,5,-1
 64 64 l 1,6,-1
 60 52 l 1,7,-1
 48 48 l 1,8,-1
 36 52 l 1,9,-1
 32 64 l 1,10,-1
 34 220 l 1,11,-1
 35 241 l 1,12,-1
 38 266 l 1,13,-1
 46 363 l 1,14,-1
 48 480 l 1,15,-1
 52 492 l 1,16,-1
 64 496 l 1,17,-1
 76 492 l 1,0,-1
76 620 m 1,18,-1
 80 608 l 1,19,-1
 80 592 l 1,20,-1
 76 580 l 1,21,-1
 64 576 l 1,22,-1
 48 576 l 1,23,-1
 36 580 l 1,24,-1
 32 592 l 1,25,-1
 36 604 l 1,26,-1
 52 620 l 1,27,-1
 64 624 l 1,28,-1
 76 620 l 1,18,-1
EndSplineSet
EndChar
StartChar: cent
Encoding: 162 162 96
Width: 320
GlyphClass: 2
Flags: W
LayerCount: 2
Fore
SplineSet
176 336 m 1,0,-1
 176 400 l 1,1,-1
 173 421 l 1,2,-1
 157 419 l 1,3,-1
 144 416 l 1,4,-1
 132 412 l 1,5,-1
 100 396 l 1,6,-1
 68 369 l 1,7,-1
 65 357 l 1,8,-1
 68 345 l 1,9,-1
 83 327 l 1,10,-1
 96 320 l 1,11,-1
 120 313 l 1,12,-1
 134 310 l 1,13,-1
 148 308 l 1,14,-1
 160 309 l 1,15,-1
 174 315 l 1,16,-1
 176 336 l 1,0,-1
277 313 m 1,17,-1
 268 308 l 1,18,-1
 256 304 l 1,19,-1
 239 299 l 1,20,-1
 227 295 l 1,21,-1
 212 284 l 1,22,-1
 208 272 l 1,23,-1
 208 240 l 1,24,-1
 224 128 l 1,25,-1
 220 116 l 1,26,-1
 208 112 l 1,27,-1
 196 116 l 1,28,-1
 189 132 l 1,29,-1
 180 173 l 1,30,-1
 178 192 l 1,31,-1
 174 272 l 1,32,-1
 172 284 l 1,33,-1
 116 289 l 1,34,-1
 100 292 l 1,35,-1
 68 308 l 1,36,-1
 39 334 l 1,37,-1
 32 352 l 1,38,-1
 32 368 l 1,39,-1
 37 386 l 1,40,-1
 56 408 l 1,41,-1
 84 428 l 1,42,-1
 116 444 l 1,43,-1
 170 462 l 1,44,-1
 175 471 l 1,45,-1
 176 624 l 1,46,-1
 180 636 l 1,47,-1
 192 640 l 1,48,-1
 204 636 l 1,49,-1
 208 624 l 1,50,-1
 208 480 l 1,51,-1
 211 462 l 1,52,-1
 268 444 l 1,53,-1
 283 432 l 1,54,-1
 283 421 l 1,55,-1
 276 420 l 1,56,-1
 266 425 l 1,57,-1
 253 430 l 1,58,-1
 224 432 l 1,59,-1
 212 428 l 1,60,-1
 208 416 l 1,61,-1
 208 352 l 1,62,-1
 211 328 l 1,63,-1
 222 328 l 1,64,-1
 238 334 l 1,65,-1
 252 340 l 1,66,-1
 260 348 l 1,67,-1
 272 352 l 1,68,-1
 284 348 l 1,69,-1
 288 336 l 1,70,-1
 284 324 l 1,71,-1
 277 313 l 1,17,-1
EndSplineSet
EndChar
StartChar: sterling
Encoding: 163 163 97
Width: 416
GlyphClass: 2
Flags: W
LayerCount: 2
Fore
SplineSet
240 592 m 1,0,-1
 230 584 l 1,1,-1
 200 553 l 1,2,-1
 188 532 l 1,3,-1
 172 484 l 1,4,-1
 160 432 l 1,5,-1
 164 420 l 1,6,-1
 176 416 l 1,7,-1
 224 416 l 1,8,-1
 236 412 l 1,9,-1
 240 400 l 1,10,-1
 236 388 l 1,11,-1
 224 384 l 1,12,-1
 160 384 l 1,13,-1
 153 379 l 1,14,-1
 149 367 l 1,15,-1
 151 340 l 1,16,-1
 153 323 l 1,17,-1
 153 314 l 1,18,-1
 148 284 l 1,19,-1
 147 272 l 1,20,-1
 144 224 l 1,21,-1
 140 212 l 1,22,-1
 132 212 l 1,23,-1
 128 224 l 1,24,-1
 128 368 l 1,25,-1
 123 376 l 1,26,-1
 111 380 l 1,27,-1
 79 380 l 1,28,-1
 67 376 l 1,29,-1
 57 374 l 1,30,-1
 45 373 l 1,31,-1
 33 377 l 1,32,-1
 32 384 l 1,33,-1
 36 396 l 1,34,-1
 48 400 l 1,35,-1
 112 400 l 1,36,-1
 124 404 l 1,37,-1
 128 416 l 1,38,-1
 130 460 l 1,39,-1
 132 476 l 1,40,-1
 148 524 l 1,41,-1
 174 576 l 1,42,-1
 198 602 l 1,43,-1
 228 620 l 1,44,-1
 240 624 l 1,45,-1
 252 620 l 1,46,-1
 256 608 l 1,47,-1
 252 596 l 1,48,-1
 240 592 l 1,0,-1
372 124 m 1,49,-1
 358 106 l 1,50,-1
 336 96 l 1,51,-1
 258 98 l 1,52,-1
 244 100 l 1,53,-1
 208 112 l 1,54,-1
 188 124 l 1,55,-1
 176 128 l 1,56,-1
 160 128 l 1,57,-1
 148 124 l 1,58,-1
 124 100 l 1,59,-1
 101 89 l 1,60,-1
 92 84 l 1,61,-1
 80 80 l 1,62,-1
 64 80 l 1,63,-1
 52 84 l 1,64,-1
 48 96 l 1,65,-1
 52 108 l 1,66,-1
 68 124 l 1,67,-1
 92 132 l 1,68,-1
 140 180 l 1,69,-1
 148 204 l 1,70,-1
 156 204 l 1,71,-1
 160 192 l 1,72,-1
 160 176 l 1,73,-1
 164 164 l 1,74,-1
 176 160 l 1,75,-1
 191 160 l 1,76,-1
 214 153 l 1,77,-1
 244 135 l 1,78,-1
 256 130 l 1,79,-1
 320 128 l 1,80,-1
 332 132 l 1,81,-1
 359 161 l 1,82,-1
 365 176 l 1,83,-1
 368 192 l 1,84,-1
 372 204 l 1,85,-1
 380 204 l 1,86,-1
 384 192 l 1,87,-1
 384 144 l 1,88,-1
 380 132 l 1,89,-1
 372 124 l 1,49,-1
EndSplineSet
EndChar
StartChar: currency
Encoding: 164 164 298
Width: 281
Flags: W
LayerCount: 2
Fore
SplineSet
268 348 m 5,0,-1
 263 342 l 5,1,-1
 247 326 l 5,2,-1
 241 317 l 5,3,-1
 246 303 l 5,4,-1
 246 243 l 5,5,-1
 243 229 l 5,6,-1
 233 196 l 5,7,-1
 228 182 l 5,8,-1
 213 157 l 5,9,-1
 211.809570312 155.48828125 l 5,10,-1
 233 129 l 5,11,-1
 237 124 l 5,12,-1
 241 113 l 5,13,-1
 241 106 l 5,14,-1
 229 101 l 5,15,-1
 224 103 l 5,16,-1
 215 113 l 5,17,-1
 209 118 l 5,18,-1
 194.05078125 132.94921875 l 5,19,-1
 187 124 l 5,20,-1
 178 116 l 5,21,-1
 168 111 l 5,22,-1
 111 107 l 5,23,-1
 97 110 l 5,24,-1
 77 115 l 5,25,-1
 52.4228515625 131.12890625 l 5,26,-1
 33 113 l 5,27,-1
 28 109 l 5,28,-1
 15 103 l 5,29,-1
 10 105 l 5,30,-1
 5 117 l 5,31,-1
 7 122 l 5,32,-1
 17 131 l 5,33,-1
 22 137 l 5,34,-1
 35.25 150.25 l 5,35,-1
 32 155 l 5,36,-1
 28 171 l 5,37,-1
 25 204 l 5,38,-1
 33 236 l 5,39,-1
 41 255 l 5,40,-1
 54 278 l 5,41,-1
 79.0166015625 311.478515625 l 5,42,-1
 49 349 l 5,43,-1
 45 354 l 5,44,-1
 39 367 l 5,45,-1
 41 372 l 5,46,-1
 53 377 l 5,47,-1
 58 375 l 5,48,-1
 67 365 l 5,49,-1
 73 360 l 5,50,-1
 89 344 l 5,51,-1
 95.427734375 333.440429688 l 5,52,-1
 122 369 l 5,53,-1
 137 376 l 5,54,-1
 153 379 l 5,55,-1
 171 375 l 5,56,-1
 217 357 l 5,57,-1
 226 350 l 5,58,-1
 233 352 l 5,59,-1
 252 366 l 5,60,-1
 257 370 l 5,61,-1
 270 376 l 5,62,-1
 275 374 l 5,63,-1
 280 362 l 5,64,-1
 278 357 l 5,65,-1
 268 348 l 5,0,-1
182.387695312 177.904296875 m 5,66,-1
 187 185 l 5,67,-1
 195 200 l 5,68,-1
 205 226 l 5,69,-1
 211 267 l 5,70,-1
 208 286 l 5,71,-1
 207.283203125 301.053710938 l 5,72,-1
 205 300 l 5,73,-1
 200 302 l 5,74,-1
 201 310 l 5,75,-1
 203.806640625 317.217773438 l 5,76,-1
 202 323 l 5,77,-1
 192 338 l 5,78,-1
 181 344 l 5,79,-1
 170 344 l 5,80,-1
 152 340 l 5,81,-1
 128 323 l 5,82,-1
 113 308 l 5,83,-1
 112 297 l 5,84,-1
 106 291 l 5,85,-1
 103 291 l 5,86,-1
 100 289 l 5,87,-1
 88 264 l 5,88,-1
 79 247 l 5,89,-1
 68 219 l 5,90,-1
 62 200 l 5,91,-1
 60 184 l 5,92,-1
 63.93359375 172.200195312 l 5,93,-1
 70 175 l 5,94,-1
 75 173 l 5,95,-1
 72 162 l 5,96,-1
 71.95703125 159.745117188 l 5,97,-1
 86 145 l 5,98,-1
 102 140 l 5,99,-1
 144 140 l 5,100,-1
 161 150 l 5,101,-1
 172.745117188 163.551757812 l 5,102,-1
 167 171 l 5,103,-1
 169 181 l 5,104,-1
 177 180 l 5,105,-1
 182.387695312 177.904296875 l 5,66,-1
EndSplineSet
EndChar
StartChar: yen
Encoding: 165 165 211
Width: 368
Flags: W
LayerCount: 2
Fore
SplineSet
316 291 m 1,0,-1
 300 275 l 1,1,-1
 288 271 l 1,2,-1
 220 271 l 1,3,-1
 220 252 l 1,4,-1
 222 213 l 1,5,-1
 224 64 l 1,6,-1
 220 52 l 1,7,-1
 212 52 l 1,8,-1
 184 56 l 1,9,-1
 180 68 l 1,10,-1
 177 102 l 1,11,-1
 173 158 l 1,12,-1
 176 191 l 1,13,-1
 176 224 l 1,14,-1
 173.796875 271 l 1,15,-1
 64 271 l 1,16,-1
 52 275 l 1,17,-1
 52 283 l 1,18,-1
 68 299 l 1,19,-1
 80 303 l 1,20,-1
 172.296875 303 l 1,21,-1
 170 352 l 1,22,-1
 166 364 l 1,23,-1
 164.060756355 368.791072536 l 1,24,-1
 96 367 l 1,25,-1
 84 363 l 1,26,-1
 76 355 l 1,27,-1
 64 351 l 1,28,-1
 52 355 l 1,29,-1
 52 363 l 1,30,-1
 68 379 l 1,31,-1
 92 387 l 1,32,-1
 100 395 l 1,33,-1
 112 399 l 1,34,-1
 151.833333333 399 l 1,35,-1
 149 406 l 1,36,-1
 132 422 l 1,37,-1
 68 500 l 1,38,-1
 36 548 l 1,39,-1
 32 560 l 1,40,-1
 36 572 l 1,41,-1
 48 576 l 1,42,-1
 60 572 l 1,43,-1
 87 541 l 1,44,-1
 108 508 l 1,45,-1
 164 436 l 1,46,-1
 176 432 l 1,47,-1
 188 436 l 1,48,-1
 204 452 l 1,49,-1
 273 570 l 1,50,-1
 282 589 l 1,51,-1
 298 605 l 1,52,-1
 320 608 l 1,53,-1
 332 604 l 1,54,-1
 336 592 l 1,55,-1
 332 580 l 1,56,-1
 324 572 l 1,57,-1
 300 532 l 1,58,-1
 236 436 l 1,59,-1
 221.272727273 406.545454545 l 1,60,-1
 272 415 l 1,61,-1
 288 415 l 1,62,-1
 300 411 l 1,63,-1
 304 399 l 1,64,-1
 300 387 l 1,65,-1
 288 383 l 1,66,-1
 226 382 l 1,67,-1
 215.431818182 378.477272727 l 1,68,-1
 215 372 l 1,69,-1
 215 344 l 1,70,-1
 216 328 l 1,71,-1
 217.675 306.225 l 1,72,-1
 220 307 l 1,73,-1
 244 307 l 1,74,-1
 256 303 l 1,75,-1
 304 303 l 1,76,-1
 316 299 l 1,77,-1
 316 291 l 1,0,-1
EndSplineSet
EndChar
StartChar: brokenbar
Encoding: 166 166 299
Width: 144
Flags: W
LayerCount: 2
Fore
SplineSet
44 348 m 1,0,-1
 44 451 l 1,1,-1
 44 467 l 1,2,-1
 36 507 l 1,3,-1
 32 538 l 1,4,-1
 32 565 l 1,5,-1
 36 575 l 1,6,-1
 51 589 l 1,7,-1
 63 592 l 1,8,-1
 74 589 l 1,9,-1
 78 578 l 1,10,-1
 78 565 l 1,11,-1
 82 555 l 1,12,-1
 89 478 l 1,13,-1
 97 451 l 1,14,-1
 101 414 l 1,15,-1
 101 340 l 1,16,-1
 115 334 l 25,17,-1
 118 329 l 25,18,-1
 111 325 l 17,19,-1
 76 325 l 1,20,-1
 58 332 l 9,21,-1
 51 337 l 1,22,-1
 44 348 l 1,0,-1
100 253 m 1,23,-1
 101 75 l 1,24,-1
 97 60 l 1,25,-1
 90 53 l 1,26,-1
 78 50 l 1,27,-1
 67 53 l 1,28,-1
 59 74 l 1,29,-1
 51 80 l 1,30,-1
 47 91 l 1,31,-1
 44 248 l 1,32,-1
 53 258 l 5,33,-1
 63 267 l 5,34,-1
 81 271 l 1,35,-1
 111 272 l 1,36,-1
 116 267 l 25,37,-1
 113 262 l 25,38,-1
 110 260 l 1,39,-1
 108 255 l 1,40,-1
 100 253 l 1,23,-1
EndSplineSet
EndChar
StartChar: section
Encoding: 167 167 318
Width: 272
Flags: W
LayerCount: 2
Fore
SplineSet
153.017278618 235.298056156 m 1,0,-1
 168 246 l 1,1,-1
 172 267 l 1,2,-1
 159 300 l 1,3,-1
 128 319 l 1,4,-1
 93 335 l 1,5,-1
 56.647702407 357.597374179 l 1,6,-1
 50 350 l 1,7,-1
 48 322 l 1,8,-1
 63 306 l 1,9,-1
 88 286 l 1,10,-1
 127 262 l 1,11,-1
 153.017278618 235.298056156 l 1,0,-1
79.8484848485 388.187878788 m 1,12,-1
 81 386 l 1,13,-1
 108 367 l 1,14,-1
 156 343 l 1,15,-1
 194 310 l 1,16,-1
 210 278 l 1,17,-1
 204 244 l 1,18,-1
 190 223 l 1,19,-1
 172.31511254 211.504823151 l 1,20,-1
 186 190 l 1,21,-1
 190 178 l 1,22,-1
 196 162 l 1,23,-1
 200 150 l 1,24,-1
 206 121 l 1,25,-1
 201 99 l 1,26,-1
 192 73 l 1,27,-1
 181 55 l 1,28,-1
 165 39 l 1,29,-1
 147 27 l 1,30,-1
 133 23 l 1,31,-1
 105 23 l 1,32,-1
 93 27 l 1,33,-1
 73 35 l 1,34,-1
 61 39 l 1,35,-1
 29 71 l 1,36,-1
 18 90 l 1,37,-1
 13 103 l 1,38,-1
 9 115 l 1,39,-1
 13 127 l 1,40,-1
 29 143 l 1,41,-1
 37 143 l 1,42,-1
 53 127 l 1,43,-1
 61 104 l 1,44,-1
 70 88 l 1,45,-1
 97 60 l 1,46,-1
 109 56 l 1,47,-1
 125 56 l 1,48,-1
 137 60 l 1,49,-1
 151 79 l 1,50,-1
 155 91 l 1,51,-1
 157 111 l 1,52,-1
 157 135 l 1,53,-1
 153 163 l 1,54,-1
 149 175 l 1,55,-1
 142.017857143 185.321428571 l 1,56,-1
 138 188 l 1,57,-1
 134 188 l 1,58,-1
 119 190 l 1,59,-1
 112 198 l 1,60,-1
 113 206 l 1,61,-1
 118 211 l 1,62,-1
 117.627530364 215.469635628 l 1,63,-1
 82 243 l 1,64,-1
 48 260 l 1,65,-1
 21 289 l 1,66,-1
 13 316 l 1,67,-1
 19 350 l 1,68,-1
 31 368 l 1,69,-1
 39.8693467337 383.964824121 l 1,70,-1
 36 391 l 1,71,-1
 23 421 l 1,72,-1
 19 433 l 1,73,-1
 19 449 l 1,74,-1
 21 470 l 1,75,-1
 26 482 l 1,76,-1
 37 497 l 1,77,-1
 71 525 l 1,78,-1
 88 535 l 1,79,-1
 103 541 l 1,80,-1
 115 545 l 1,81,-1
 163 545 l 1,82,-1
 175 541 l 1,83,-1
 191 525 l 1,84,-1
 191 517 l 1,85,-1
 176 504 l 1,86,-1
 164 508 l 1,87,-1
 135 510 l 1,88,-1
 116 506 l 1,89,-1
 92 499 l 1,90,-1
 73 478 l 1,91,-1
 63 463 l 1,92,-1
 60 440 l 1,93,-1
 70.0638297872 407.978723404 l 1,94,-1
 73 407 l 1,95,-1
 79 410 l 1,96,-1
 84 404 l 1,97,-1
 84 394 l 1,98,-1
 79.8484848485 388.187878788 l 1,12,-1
EndSplineSet
EndChar
StartChar: dieresis
Encoding: 168 168 98
Width: 207
GlyphClass: 2
Flags: W
LayerCount: 2
Fore
SplineSet
121 323 m 1,0,-1
 116 329 l 1,1,-1
 113 338 l 1,2,-1
 116 348 l 1,3,-1
 124 350 l 1,4,-1
 147 350 l 1,5,-1
 156 348 l 1,6,-1
 159 338 l 1,7,-1
 156 329 l 1,8,-1
 144 317 l 1,9,-1
 136 313 l 1,10,-1
 127 317 l 1,11,-1
 121 323 l 1,0,-1
47 314 m 1,12,-1
 36 327 l 1,13,-1
 33 336 l 1,14,-1
 36 346 l 1,15,-1
 45 348 l 1,16,-1
 53 352 l 1,17,-1
 59 358 l 1,18,-1
 64 358 l 1,19,-1
 76 346 l 1,20,-1
 79 336 l 1,21,-1
 76 327 l 1,22,-1
 64 314 l 1,23,-1
 56 311 l 1,24,-1
 47 314 l 1,12,-1
EndSplineSet
EndChar
StartChar: copyright
Encoding: 169 169 99
Width: 853
GlyphClass: 2
Flags: W
LayerCount: 2
Fore
SplineSet
18 50 m 1,0,-1
 18 36 l 1,1,-1
 16 30 l 1,2,-1
 18 26 l 1,3,-1
 18 20 l 1,4,-1
 24 11 l 1,5,-1
 34 7 l 1,6,-1
 39 6 l 1,7,-1
 42 6 l 1,8,-1
 57 11 l 1,9,-1
 72 20 l 1,10,-1
 76 38 l 1,11,-1
 78 42 l 1,12,-1
 78 45 l 1,13,-1
 80 50 l 1,14,-1
 79 59 l 1,15,-1
 75 69 l 1,16,-1
 72 73 l 1,17,-1
 59 81 l 1,18,-1
 48 82 l 1,19,-1
 37 79 l 1,20,-1
 32 78 l 1,21,-1
 24 73 l 1,22,-1
 18 50 l 1,0,-1
77 20 m 1,23,-1
 75 19 l 1,24,-1
 59 6 l 1,25,-1
 53 2 l 1,26,-1
 49 1 l 1,27,-1
 35 1 l 1,28,-1
 32 2 l 1,29,-1
 24 6 l 1,30,-1
 14 15 l 1,31,-1
 13 18 l 1,32,-1
 13 55 l 1,33,-1
 15 69 l 1,34,-1
 16 71 l 1,35,-1
 27 80 l 1,36,-1
 35 86 l 1,37,-1
 39 87 l 1,38,-1
 50 87 l 1,39,-1
 54 86 l 1,40,-1
 57 86 l 1,41,-1
 60 84 l 1,42,-1
 66 82 l 1,43,-1
 71 81 l 1,44,-1
 79 73 l 1,45,-1
 80 69 l 1,46,-1
 84 42 l 1,47,-1
 77 20 l 1,23,-1
55 24 m 1,48,-1
 49 21 l 1,49,-1
 47 22 l 1,50,-1
 44 24 l 1,51,-1
 41 25 l 1,52,-1
 37 30 l 1,53,-1
 32 43 l 1,54,-1
 31 45 l 1,55,-1
 32 53 l 1,56,-1
 33 55 l 1,57,-1
 36 60 l 1,58,-1
 40 64 l 1,59,-1
 44 66 l 1,60,-1
 46 68 l 1,61,-1
 52 68 l 1,62,-1
 53 66 l 1,63,-1
 50 63 l 1,64,-1
 47 63 l 1,65,-1
 45 62 l 1,66,-1
 42 60 l 1,67,-1
 40 57 l 1,68,-1
 39 53 l 1,69,-1
 37 50 l 1,70,-1
 37 41 l 1,71,-1
 38 38 l 1,72,-1
 41 32 l 1,73,-1
 46 27 l 1,74,-1
 53 27 l 1,75,-1
 55 24 l 1,48,-1
EndSplineSet
EndChar
StartChar: guillemotleft
Encoding: 171 171 212
Width: 412
Flags: W
LayerCount: 2
Fore
SplineSet
236 228 m 1,0,-1
 224 224 l 1,1,-1
 212 228 l 1,2,-1
 180 244 l 1,3,-1
 112 272 l 1,4,-1
 99 283 l 1,5,-1
 64 304 l 1,6,-1
 48 304 l 1,7,-1
 36 308 l 1,8,-1
 32 320 l 1,9,-1
 36 332 l 1,10,-1
 60 340 l 1,11,-1
 212 492 l 1,12,-1
 224 496 l 1,13,-1
 236 492 l 1,14,-1
 236 484 l 1,15,-1
 228 476 l 1,16,-1
 220 452 l 1,17,-1
 100 332 l 1,18,-1
 100 324 l 1,19,-1
 116 308 l 1,20,-1
 180 276 l 1,21,-1
 192 272 l 1,22,-1
 208 272 l 1,23,-1
 220 268 l 1,24,-1
 236 252 l 1,25,-1
 240 240 l 1,26,-1
 236 228 l 1,0,-1
373 239 m 1,27,-1
 352 242 l 1,28,-1
 338 250 l 1,29,-1
 321 262 l 1,30,-1
 252 301 l 1,31,-1
 233 315 l 1,32,-1
 209 339 l 1,33,-1
 188 343 l 1,34,-1
 180 351 l 1,35,-1
 176 362 l 1,36,-1
 253 416 l 1,37,-1
 338 501 l 1,38,-1
 350 514 l 1,39,-1
 371 521 l 1,40,-1
 379 518 l 1,41,-1
 379 506 l 1,42,-1
 373 499 l 1,43,-1
 361 489 l 1,44,-1
 254 380 l 1,45,-1
 244 359 l 1,46,-1
 244 347 l 1,47,-1
 260 331 l 1,48,-1
 324 299 l 1,49,-1
 336 295 l 1,50,-1
 353 286 l 1,51,-1
 364 282 l 1,52,-1
 380 272 l 1,53,-1
 384 260 l 1,54,-1
 380 248 l 1,55,-1
 373 239 l 1,27,-1
EndSplineSet
EndChar
StartChar: logicalnot
Encoding: 172 172 100
Width: 480
GlyphClass: 2
Flags: W
LayerCount: 2
Fore
SplineSet
425 279 m 1,0,-1
 415 280 l 1,1,-1
 400 292 l 1,2,-1
 396 304 l 1,3,-1
 392 334 l 1,4,-1
 388 346 l 1,5,-1
 384 356 l 1,6,-1
 381 370 l 1,7,-1
 380 416 l 1,8,-1
 376 428 l 1,9,-1
 364 432 l 1,10,-1
 348 432 l 1,11,-1
 336 428 l 1,12,-1
 328 420 l 1,13,-1
 316 416 l 1,14,-1
 264 404 l 1,15,-1
 256 404 l 1,16,-1
 71 386 l 1,17,-1
 60 384 l 1,18,-1
 48 388 l 1,19,-1
 32 404 l 1,20,-1
 32 412 l 1,21,-1
 48 428 l 1,22,-1
 70 439 l 1,23,-1
 79 441 l 1,24,-1
 120 444 l 1,25,-1
 160 446 l 1,26,-1
 172 448 l 1,27,-1
 288 460 l 1,28,-1
 299 461 l 1,29,-1
 348 464 l 1,30,-1
 393 458 l 1,31,-1
 406 456 l 1,32,-1
 411 453 l 1,33,-1
 419 425 l 1,34,-1
 424 412 l 1,35,-1
 426 397 l 1,36,-1
 431 305 l 1,37,-1
 432 292 l 1,38,-1
 425 279 l 1,0,-1
EndSplineSet
EndChar
StartChar: uni00AD
Encoding: 173 173 302
Width: 272
Flags: W
LayerCount: 2
Fore
SplineSet
236 292 m 1,0,-1
 220 276 l 1,1,-1
 208 272 l 1,2,-1
 160 272 l 1,3,-1
 148 268 l 1,4,-1
 140 260 l 1,5,-1
 128 256 l 1,6,-1
 96 256 l 1,7,-1
 84 252 l 1,8,-1
 76 244 l 1,9,-1
 64 240 l 1,10,-1
 48 240 l 1,11,-1
 36 244 l 1,12,-1
 32 256 l 1,13,-1
 36 268 l 1,14,-1
 48 272 l 1,15,-1
 64 272 l 1,16,-1
 76 276 l 1,17,-1
 84 284 l 1,18,-1
 96 288 l 1,19,-1
 128 288 l 1,20,-1
 140 292 l 1,21,-1
 148 300 l 1,22,-1
 160 304 l 1,23,-1
 224 304 l 1,24,-1
 236 300 l 1,25,-1
 236 292 l 1,0,-1
EndSplineSet
EndChar
StartChar: registered
Encoding: 174 174 101
Width: 853
GlyphClass: 2
Flags: W
LayerCount: 2
Fore
SplineSet
62 52 m 1,0,-1
 62 57 l 1,1,-1
 60 58 l 1,2,-1
 52 58 l 1,3,-1
 50 54 l 1,4,-1
 50 52 l 1,5,-1
 52 48 l 1,6,-1
 57 48 l 1,7,-1
 62 52 l 1,0,-1
67 52 m 1,8,-1
 60 45 l 1,9,-1
 58 45 l 1,10,-1
 72 31 l 1,11,-1
 74 28 l 1,12,-1
 77 22 l 1,13,-1
 76 20 l 1,14,-1
 74 20 l 1,15,-1
 66 31 l 1,16,-1
 59 38 l 1,17,-1
 56 40 l 1,18,-1
 53 41 l 1,19,-1
 52 41 l 1,20,-1
 52 39 l 1,21,-1
 53 27 l 1,22,-1
 54 23 l 1,23,-1
 54 21 l 1,24,-1
 55 19 l 1,25,-1
 52 17 l 1,26,-1
 49 21 l 1,27,-1
 49 27 l 1,28,-1
 48 30 l 1,29,-1
 48 32 l 1,30,-1
 46 40 l 1,31,-1
 46 45 l 1,32,-1
 45 52 l 1,33,-1
 45 57 l 1,34,-1
 46 61 l 1,35,-1
 64 61 l 1,36,-1
 67 59 l 1,37,-1
 67 52 l 1,8,-1
43 -5 m 1,38,-1
 53 -5 l 1,39,-1
 69 0 l 1,40,-1
 85 11 l 1,41,-1
 87 15 l 1,42,-1
 90 30 l 1,43,-1
 93 34 l 1,44,-1
 93 38 l 1,45,-1
 95 43 l 1,46,-1
 94 54 l 1,47,-1
 89 65 l 1,48,-1
 85 70 l 1,49,-1
 71 78 l 1,50,-1
 59 79 l 1,51,-1
 47 76 l 1,52,-1
 41 75 l 1,53,-1
 33 70 l 1,54,-1
 31 65 l 1,55,-1
 27 48 l 1,56,-1
 26 43 l 1,57,-1
 25 37 l 1,58,-1
 25 28 l 1,59,-1
 24 22 l 1,60,-1
 25 17 l 1,61,-1
 26 11 l 1,62,-1
 28 7 l 1,63,-1
 33 0 l 1,64,-1
 43 -5 l 1,38,-1
92 11 m 1,65,-1
 72 -5 l 1,66,-1
 65 -10 l 1,67,-1
 60 -11 l 1,68,-1
 44 -11 l 1,69,-1
 41 -10 l 1,70,-1
 33 -5 l 1,71,-1
 21 4 l 1,72,-1
 19 8 l 1,73,-1
 19 50 l 1,74,-1
 22 65 l 1,75,-1
 35 77 l 1,76,-1
 44 84 l 1,77,-1
 49 86 l 1,78,-1
 61 86 l 1,79,-1
 65 84 l 1,80,-1
 69 84 l 1,81,-1
 73 82 l 1,82,-1
 85 78 l 1,83,-1
 94 69 l 1,84,-1
 95 65 l 1,85,-1
 99 34 l 1,86,-1
 99 30 l 1,87,-1
 92 11 l 1,65,-1
EndSplineSet
EndChar
StartChar: macron
Encoding: 175 175 303
Width: 272
Flags: W
LayerCount: 2
Fore
SplineSet
235 578 m 5,0,-1
 219 562 l 5,1,-1
 207 558 l 5,2,-1
 159 558 l 5,3,-1
 147 554 l 5,4,-1
 139 546 l 5,5,-1
 127 542 l 5,6,-1
 95 542 l 5,7,-1
 83 538 l 5,8,-1
 75 530 l 5,9,-1
 63 526 l 5,10,-1
 47 526 l 5,11,-1
 35 530 l 5,12,-1
 31 542 l 5,13,-1
 35 554 l 5,14,-1
 47 558 l 5,15,-1
 63 558 l 5,16,-1
 75 562 l 5,17,-1
 83 570 l 5,18,-1
 95 574 l 5,19,-1
 127 574 l 5,20,-1
 139 578 l 5,21,-1
 147 586 l 5,22,-1
 159 590 l 5,23,-1
 223 590 l 5,24,-1
 235 586 l 5,25,-1
 235 578 l 5,0,-1
EndSplineSet
EndChar
StartChar: plusminus
Encoding: 177 177 103
Width: 368
GlyphClass: 2
Flags: W
LayerCount: 2
Fore
SplineSet
304 384 m 1,0,-1
 276 380 l 1,1,-1
 265 380 l 1,2,-1
 237 376 l 1,3,-1
 225 372 l 1,4,-1
 224 352 l 1,5,-1
 224 272 l 1,6,-1
 220 260 l 1,7,-1
 208 256 l 1,8,-1
 196 260 l 1,9,-1
 192 272 l 1,10,-1
 190 318 l 1,11,-1
 188 332 l 1,12,-1
 187 364 l 1,13,-1
 174 372 l 1,14,-1
 162 376 l 1,15,-1
 134 380 l 1,16,-1
 112 384 l 1,17,-1
 48 384 l 1,18,-1
 36 388 l 1,19,-1
 32 400 l 1,20,-1
 32 416 l 1,21,-1
 36 428 l 1,22,-1
 48 432 l 1,23,-1
 160 432 l 1,24,-1
 172 436 l 1,25,-1
 176 448 l 1,26,-1
 173 479 l 1,27,-1
 172 492 l 1,28,-1
 169 501 l 1,29,-1
 167 513 l 1,30,-1
 167 529 l 1,31,-1
 171 541 l 1,32,-1
 183 545 l 1,33,-1
 195 541 l 1,34,-1
 201 522 l 1,35,-1
 204 508 l 1,36,-1
 206 493 l 1,37,-1
 208 448 l 1,38,-1
 212 436 l 1,39,-1
 224 432 l 1,40,-1
 288 432 l 1,41,-1
 300 428 l 1,42,-1
 316 412 l 1,43,-1
 320 400 l 1,44,-1
 316 388 l 1,45,-1
 304 384 l 1,0,-1
332 116 m 1,46,-1
 316 100 l 1,47,-1
 304 96 l 1,48,-1
 128 96 l 1,49,-1
 116 100 l 1,50,-1
 106 104 l 1,51,-1
 94 108 l 1,52,-1
 64 112 l 1,53,-1
 52 116 l 1,54,-1
 48 128 l 1,55,-1
 52 140 l 1,56,-1
 78 146 l 1,57,-1
 99 146 l 1,58,-1
 112 144 l 1,59,-1
 320 144 l 1,60,-1
 332 140 l 1,61,-1
 336 128 l 1,62,-1
 332 116 l 1,46,-1
EndSplineSet
EndChar
StartChar: acute
Encoding: 180 180 104
Width: 166
GlyphClass: 2
Flags: W
LayerCount: 2
Fore
SplineSet
81 521 m 1,0,-1
 79 513 l 1,1,-1
 69 493 l 1,2,-1
 52 472 l 1,3,-1
 49 464 l 1,4,-1
 39 454 l 1,5,-1
 34 454 l 1,6,-1
 32 462 l 1,7,-1
 32 481 l 1,8,-1
 34 489 l 1,9,-1
 60 532 l 1,10,-1
 64 538 l 1,11,-1
 74 548 l 1,12,-1
 79 548 l 1,13,-1
 88 538 l 1,14,-1
 88 533 l 1,15,-1
 81 521 l 1,0,-1
EndSplineSet
EndChar
StartChar: mu
Encoding: 181 181 297
Width: 216
Flags: W
LayerCount: 2
Fore
SplineSet
143 27 m 21,0,-1
 127 16 l 1,1,-1
 108 16 l 1,2,-1
 94 21 l 1,3,-1
 70.2740298507 45.9426865672 l 1,4,-1
 71 14 l 1,5,-1
 68 -81 l 1,6,-1
 75 -98 l 1,7,-1
 68 -120 l 1,8,-1
 52 -125 l 1,9,-1
 33 -112 l 1,10,-1
 30 -92 l 1,11,-1
 34 -78 l 1,12,-1
 40 -43 l 1,13,-1
 39 25 l 1,14,-1
 39 33 l 1,15,-1
 43 69 l 1,16,-1
 43 123.555555556 l 1,17,-1
 33 183 l 1,18,-1
 32 198 l 1,19,-1
 32 279 l 1,20,-1
 37 294 l 1,21,-1
 54 296 l 1,22,-1
 65 294 l 1,23,-1
 70 279 l 1,24,-1
 70 239 l 1,25,-1
 71 224 l 1,26,-1
 73 168 l 1,27,-1
 75 149 l 1,28,-1
 89 76 l 1,29,-1
 95 64 l 1,30,-1
 103 62 l 1,31,-1
 131 71 l 1,32,-1
 135 87 l 1,33,-1
 144 147 l 1,34,-1
 144 161 l 1,35,-1
 146 259 l 1,36,-1
 151 274 l 1,37,-1
 165 279 l 1,38,-1
 179 274 l 1,39,-1
 184 259 l 1,40,-1
 181 139 l 9,41,-1
 184 11 l 25,42,-1
 182 3 l 25,43,-1
 170 0 l 25,44,-1
 149 3 l 25,45,-1
 146 11 l 1,46,-1
 143 27 l 21,0,-1
EndSplineSet
EndChar
StartChar: paragraph
Encoding: 182 182 300
Width: 378
Flags: W
LayerCount: 2
Fore
SplineSet
87 407 m 29,0,-1
 105 395 l 29,1,-1
 111 406 l 5,2,-1
 123 505 l 5,3,-1
 127 509 l 5,4,-1
 132 485 l 5,5,-1
 131 433 l 5,6,-1
 132 400 l 5,7,-1
 142 383 l 29,8,-1
 155 388 l 29,9,-1
 171 440 l 5,10,-1
 175 474 l 5,11,-1
 182 413 l 5,12,-1
 187 410 l 5,13,-1
 192 434 l 5,14,-1
 184 499 l 5,15,-1
 176 517 l 5,16,-1
 165 518 l 5,17,-1
 153 454 l 5,18,-1
 146 412 l 5,19,-1
 144 405 l 5,20,-1
 145 505 l 5,21,-1
 142 510 l 29,22,-1
 139 522 l 29,23,-1
 136 526 l 29,24,-1
 107 520 l 21,25,-1
 100 419 l 29,26,-1
 98 416 l 5,27,-1
 101 477 l 5,28,-1
 100 522 l 29,29,-1
 83 494 l 29,30,-1
 85 470 l 29,31,-1
 86 450 l 5,32,-1
 87 407 l 29,0,-1
80 431 m 1,33,-1
 79 480 l 1,34,-1
 83 492 l 1,35,-1
 99 508 l 1,36,-1
 128 520 l 1,37,-1
 140 524 l 1,38,-1
 154 524 l 1,39,-1
 166 520 l 1,40,-1
 185 508 l 1,41,-1
 189 496 l 1,42,-1
 190 431 l 1,43,-1
 185 409 l 1,44,-1
 170 403 l 1,45,-1
 158 399 l 1,46,-1
 112 399 l 1,47,-1
 100 403 l 1,48,-1
 84 419 l 1,49,-1
 80 431 l 1,33,-1
43 460 m 1,50,-1
 49 414 l 1,51,-1
 74 383 l 1,52,-1
 94 373 l 1,53,-1
 145 363 l 1,54,-1
 183 363 l 1,55,-1
 177 300 l 1,56,-1
 175 279 l 1,57,-1
 164 92 l 1,58,-1
 168 80 l 1,59,-1
 187 74 l 1,60,-1
 201 84 l 1,61,-1
 205 96 l 1,62,-1
 217 260 l 1,63,-1
 221 272 l 1,64,-1
 221 336 l 1,65,-1
 226 379 l 1,66,-1
 241 390 l 1,67,-1
 245 402 l 1,68,-1
 241 414 l 1,69,-1
 226 419 l 1,70,-1
 222 431 l 1,71,-1
 221 510 l 1,72,-1
 260 507.045454545 l 1,73,-1
 262 504 l 1,74,-1
 261 446 l 1,75,-1
 257 326 l 1,76,-1
 259 310 l 1,77,-1
 265 207 l 1,78,-1
 261 84 l 1,79,-1
 267 72 l 1,80,-1
 284 72 l 1,81,-1
 291 80 l 1,82,-1
 297 92 l 1,83,-1
 294 105 l 1,84,-1
 298 214 l 1,85,-1
 299 315 l 1,86,-1
 292 353 l 1,87,-1
 293 470 l 1,88,-1
 291 503 l 1,89,-1
 295 507 l 1,90,-1
 319 506 l 1,91,-1
 330 505 l 1,92,-1
 334 501 l 1,93,-1
 342 498 l 1,94,-1
 351 504 l 1,95,-1
 355 516 l 1,96,-1
 349 531 l 1,97,-1
 339 538 l 1,98,-1
 287 542 l 1,99,-1
 286 558 l 1,100,-1
 279 563 l 1,101,-1
 266 561 l 1,102,-1
 260 546 l 1,103,-1
 259 541.575757576 l 1,104,-1
 221 541 l 1,105,-1
 221 560 l 1,106,-1
 217 572 l 1,107,-1
 209 572 l 1,108,-1
 194 566 l 1,109,-1
 189 544 l 1,110,-1
 115 551 l 1,111,-1
 97 547 l 1,112,-1
 83 540 l 1,113,-1
 65 528 l 1,114,-1
 51 508 l 1,115,-1
 43 484 l 1,116,-1
 43 460 l 1,50,-1
EndSplineSet
EndChar
StartChar: cedilla
Encoding: 184 184 105
Width: 161
GlyphClass: 2
Flags: W
LayerCount: 2
Fore
SplineSet
82 21 m 1,0,-1
 108 13 l 1,1,-1
 98 12 l 1,2,-1
 96 5 l 1,3,-1
 104 1 l 1,4,-1
 117 -2 l 1,5,-1
 124 -5 l 1,6,-1
 131 -19 l 1,7,-1
 134 -28 l 1,8,-1
 129 -41 l 1,9,-1
 123 -46 l 1,10,-1
 91 -66 l 1,11,-1
 82 -67 l 1,12,-1
 69 -64 l 1,13,-1
 62 -60 l 1,14,-1
 53 -45 l 1,15,-1
 53 -37 l 1,16,-1
 59 -30 l 1,17,-1
 65 -30 l 1,18,-1
 69 -37 l 1,19,-1
 76 -41 l 1,20,-1
 87 -40 l 1,21,-1
 103 -32 l 1,22,-1
 104 -25 l 1,23,-1
 97 -22 l 1,24,-1
 84 -19 l 1,25,-1
 76 -14 l 1,26,-1
 69 0 l 1,27,-1
 66 8 l 1,28,-1
 74 16 l 1,29,-1
 82 21 l 1,0,-1
EndSplineSet
EndChar
StartChar: guillemotright
Encoding: 187 187 213
Width: 304
Flags: W
LayerCount: 2
Fore
SplineSet
420 325 m 1,0,-1
 405 316 l 1,1,-1
 357 246 l 1,2,-1
 293 203 l 1,3,-1
 277 187 l 1,4,-1
 265 183 l 1,5,-1
 249 183 l 1,6,-1
 237 187 l 1,7,-1
 233 199 l 1,8,-1
 237 211 l 1,9,-1
 369 326 l 1,10,-1
 373 339 l 1,11,-1
 370 356 l 1,12,-1
 236 464 l 1,13,-1
 213 480 l 1,14,-1
 211 493 l 1,15,-1
 222 503 l 1,16,-1
 236 502 l 1,17,-1
 270 474 l 1,18,-1
 332 440 l 1,19,-1
 366 406 l 1,20,-1
 392 384 l 1,21,-1
 414 374 l 1,22,-1
 429 361 l 1,23,-1
 436 348 l 1,24,-1
 434 336 l 1,25,-1
 420 325 l 1,0,-1
264 340 m 1,26,-1
 240 332 l 1,27,-1
 88 180 l 1,28,-1
 76 176 l 1,29,-1
 60 176 l 1,30,-1
 48 180 l 1,31,-1
 44 192 l 1,32,-1
 48 204 l 1,33,-1
 179 324 l 1,34,-1
 201 352 l 1,35,-1
 198 366 l 1,36,-1
 184 380 l 1,37,-1
 96 436 l 1,38,-1
 32 500 l 1,39,-1
 32 508 l 1,40,-1
 44 512 l 1,41,-1
 56 508 l 1,42,-1
 88 492 l 1,43,-1
 154 437 l 1,44,-1
 195 410 l 1,45,-1
 224 388 l 1,46,-1
 248 380 l 1,47,-1
 264 364 l 1,48,-1
 268 352 l 1,49,-1
 264 340 l 1,26,-1
EndSplineSet
EndChar
StartChar: onequarter
Encoding: 188 188 308
Width: 361
Flags: W
LayerCount: 2
Fore
SplineSet
268.606445312 350.619140625 m 1,0,-1
 209.5703125 268.587890625 l 1,1,-1
 209.282226562 268.166992188 l 1,2,-1
 158.391601562 190.067382812 l 1,3,-1
 158.168945312 189.725585938 l 1,4,-1
 150.528320312 175.853515625 l 1,5,-1
 145.413085938 171.708007812 l 1,6,-1
 143.7421875 170.353515625 l 1,7,-1
 142.704101562 168.46875 l 1,8,-1
 135.260742188 154.953125 l 1,9,-1
 130.145507812 150.807617188 l 1,10,-1
 128.916015625 149.811523438 l 1,11,-1
 128.017578125 148.508789062 l 1,12,-1
 99.1787109375 106.708984375 l 1,13,-1
 98.865234375 106.25390625 l 1,14,-1
 90.455078125 90.9833984375 l 1,15,-1
 76.625 72.05078125 l 1,16,-1
 51.201171875 53.6259765625 l 1,17,-1
 43.9375 52.2802734375 l 1,18,-1
 41.2001953125 52.8720703125 l 1,19,-1
 41.2001953125 59.646484375 l 1,20,-1
 42.5859375 62.7919921875 l 1,21,-1
 47.3046875 66.6162109375 l 1,22,-1
 49.37109375 68.2919921875 l 1,23,-1
 50.4443359375 70.7265625 l 1,24,-1
 55.9052734375 83.1201171875 l 1,25,-1
 61.630859375 86.8330078125 l 1,26,-1
 63.7412109375 88.201171875 l 1,27,-1
 65.046875 90.3505859375 l 1,28,-1
 131.053710938 199 l 1,29,-1
 183.580078125 275.91015625 l 1,30,-1
 243.052734375 369.565429688 l 1,31,-1
 243.833007812 371.02734375 l 1,32,-1
 249.29296875 383.419921875 l 1,33,-1
 255.018554688 387.1328125 l 1,34,-1
 257.774414062 388.919921875 l 1,35,-1
 259.099609375 391.926757812 l 1,36,-1
 264.62109375 404.456054688 l 1,37,-1
 291.256835938 422.688476562 l 1,38,-1
 296.776367188 424.477539062 l 1,39,-1
 300.799804688 423.359375 l 1,40,-1
 300.799804688 406.982421875 l 1,41,-1
 268.606445312 350.619140625 l 1,0,-1
EndSplineSet
Refer: 312 8308 S 1 0 0 1 195 -221 2
Refer: 307 185 N 1 0 0 1 0 0 2
EndChar
StartChar: onehalf
Encoding: 189 189 309
Width: 398
Flags: W
LayerCount: 2
Fore
SplineSet
268.606445312 350.619140625 m 5,0,-1
 209.5703125 268.587890625 l 5,1,-1
 209.282226562 268.166992188 l 5,2,-1
 158.391601562 190.067382812 l 5,3,-1
 158.168945312 189.725585938 l 5,4,-1
 150.528320312 175.853515625 l 5,5,-1
 145.413085938 171.708007812 l 5,6,-1
 143.7421875 170.353515625 l 5,7,-1
 142.704101562 168.46875 l 5,8,-1
 135.260742188 154.953125 l 5,9,-1
 130.145507812 150.807617188 l 5,10,-1
 128.916015625 149.811523438 l 5,11,-1
 128.017578125 148.508789062 l 5,12,-1
 99.1787109375 106.708984375 l 5,13,-1
 98.865234375 106.25390625 l 5,14,-1
 90.455078125 90.9833984375 l 5,15,-1
 76.625 72.05078125 l 5,16,-1
 51.201171875 53.6259765625 l 5,17,-1
 43.9375 52.2802734375 l 5,18,-1
 41.2001953125 52.8720703125 l 5,19,-1
 41.2001953125 59.646484375 l 5,20,-1
 42.5859375 62.7919921875 l 5,21,-1
 47.3046875 66.6162109375 l 5,22,-1
 49.37109375 68.2919921875 l 5,23,-1
 50.4443359375 70.7265625 l 5,24,-1
 55.9052734375 83.1201171875 l 5,25,-1
 61.630859375 86.8330078125 l 5,26,-1
 63.7412109375 88.201171875 l 5,27,-1
 65.046875 90.3505859375 l 5,28,-1
 131.053710938 199 l 5,29,-1
 183.580078125 275.91015625 l 5,30,-1
 243.052734375 369.565429688 l 5,31,-1
 243.833007812 371.02734375 l 5,32,-1
 249.29296875 383.419921875 l 5,33,-1
 255.018554688 387.1328125 l 5,34,-1
 257.774414062 388.919921875 l 5,35,-1
 259.099609375 391.926757812 l 5,36,-1
 264.62109375 404.456054688 l 5,37,-1
 291.256835938 422.688476562 l 5,38,-1
 296.776367188 424.477539062 l 5,39,-1
 300.799804688 423.359375 l 5,40,-1
 300.799804688 406.982421875 l 5,41,-1
 268.606445312 350.619140625 l 5,0,-1
EndSplineSet
Refer: 305 178 N 1 0 0 1 210 -232 2
Refer: 307 185 N 1 0 0 1 0 0 2
EndChar
StartChar: questiondown
Encoding: 191 191 107
Width: 350
GlyphClass: 2
Flags: W
LayerCount: 2
Fore
SplineSet
165 495 m 1,0,-1
 161 482 l 1,1,-1
 153 472 l 1,2,-1
 140 468 l 1,3,-1
 122 468 l 1,4,-1
 108 472 l 1,5,-1
 104 486 l 1,6,-1
 104 522 l 1,7,-1
 108 535 l 1,8,-1
 122 540 l 1,9,-1
 140 540 l 1,10,-1
 153 535 l 1,11,-1
 171 517 l 1,12,-1
 171 508 l 1,13,-1
 165 495 l 1,0,-1
315 76 m 1,14,-1
 302 54 l 1,15,-1
 297 40 l 1,16,-1
 292 30 l 1,17,-1
 284 18 l 1,18,-1
 277 5 l 1,19,-1
 268 -4 l 1,20,-1
 255 -14 l 1,21,-1
 225 -32 l 1,22,-1
 212 -36 l 1,23,-1
 140 -36 l 1,24,-1
 126 -32 l 1,25,-1
 113 -30 l 1,26,-1
 100 -25 l 1,27,-1
 72 -11 l 1,28,-1
 36 22 l 1,29,-1
 32 36 l 1,30,-1
 40 61 l 1,31,-1
 45 72 l 1,32,-1
 54 85 l 1,33,-1
 89 117 l 1,34,-1
 104 126 l 1,35,-1
 144 139 l 1,36,-1
 158 144 l 1,37,-1
 171 148 l 1,38,-1
 176 162 l 1,39,-1
 170 245 l 1,40,-1
 166 263 l 1,41,-1
 162 274 l 1,42,-1
 158 288 l 1,43,-1
 155 323 l 1,44,-1
 153 337 l 1,45,-1
 153 364 l 1,46,-1
 158 378 l 1,47,-1
 162 391 l 1,48,-1
 171 391 l 1,49,-1
 189 373 l 1,50,-1
 194 360 l 1,51,-1
 210 255 l 1,52,-1
 212 234 l 1,53,-1
 212 126 l 1,54,-1
 207 112 l 1,55,-1
 194 108 l 1,56,-1
 158 108 l 1,57,-1
 144 103 l 1,58,-1
 121 92 l 1,59,-1
 108 85 l 1,60,-1
 93 66 l 1,61,-1
 86 54 l 1,62,-1
 81 40 l 1,63,-1
 79 28 l 1,64,-1
 79 19 l 1,65,-1
 86 9 l 1,66,-1
 104 0 l 1,67,-1
 135 -5 l 1,68,-1
 180 -5 l 1,69,-1
 195 -4 l 1,70,-1
 212 0 l 1,71,-1
 223 5 l 1,72,-1
 259 41 l 1,73,-1
 266 54 l 1,74,-1
 270 67 l 1,75,-1
 274 78 l 1,76,-1
 280 91 l 1,77,-1
 287 102 l 1,78,-1
 298 109 l 1,79,-1
 311 104 l 1,80,-1
 316 91 l 1,81,-1
 315 76 l 1,14,-1
EndSplineSet
EndChar
StartChar: AE
Encoding: 198 198 114
Width: 483
GlyphClass: 2
Flags: W
LayerCount: 2
Fore
SplineSet
441 54 m 1,0,-1
 414 37 l 1,1,-1
 342 37 l 1,2,-1
 305 34 l 1,3,-1
 290 33 l 1,4,-1
 258 34 l 1,5,-1
 225 33 l 1,6,-1
 213 42 l 1,7,-1
 213 70 l 1,8,-1
 217 82 l 1,9,-1
 217.465116279 162 l 1,10,-1
 156 162 l 1,11,-1
 116 165 l 1,12,-1
 92 56 l 1,13,-1
 88 44 l 1,14,-1
 72 28 l 1,15,-1
 57 32 l 1,16,-1
 53 44 l 1,17,-1
 71 153 l 1,18,-1
 67 165 l 1,19,-1
 32 172 l 1,20,-1
 34 202 l 1,21,-1
 46 206 l 1,22,-1
 62 206 l 1,23,-1
 74 210 l 1,24,-1
 83 221 l 1,25,-1
 94 260 l 1,26,-1
 108 324 l 1,27,-1
 166 481 l 1,28,-1
 169 494 l 1,29,-1
 179 519 l 1,30,-1
 183 531 l 1,31,-1
 199 547 l 1,32,-1
 207 547 l 1,33,-1
 219.6 544.2 l 1,34,-1
 262 541 l 1,35,-1
 294 549 l 1,36,-1
 306 553 l 1,37,-1
 370 553 l 1,38,-1
 382 549 l 1,39,-1
 386 537 l 1,40,-1
 382 525 l 1,41,-1
 370 521 l 1,42,-1
 354 521 l 1,43,-1
 342 517 l 1,44,-1
 300 509 l 1,45,-1
 277 506 l 1,46,-1
 265 502 l 1,47,-1
 260 493 l 1,48,-1
 256 481 l 1,49,-1
 258 355 l 1,50,-1
 262 343 l 1,51,-1
 278 327 l 1,52,-1
 310 327 l 1,53,-1
 360 325 l 1,54,-1
 382 327 l 1,55,-1
 414 319 l 1,56,-1
 418 307 l 1,57,-1
 414 295 l 1,58,-1
 402 291 l 1,59,-1
 374 287 l 1,60,-1
 358 287 l 1,61,-1
 307 288 l 1,62,-1
 284 287 l 1,63,-1
 272 283 l 1,64,-1
 267 274 l 1,65,-1
 269 207 l 1,66,-1
 274 179 l 1,67,-1
 274 97 l 1,68,-1
 278 85 l 1,69,-1
 291 73 l 1,70,-1
 418 80 l 1,71,-1
 438 93 l 1,72,-1
 446 93 l 1,73,-1
 450 81 l 1,74,-1
 441 54 l 1,0,-1
211.769230769 487.41025641 m 1,75,-1
 186 429 l 1,76,-1
 138 300 l 1,77,-1
 125 234 l 1,78,-1
 122 210 l 1,79,-1
 124 201 l 1,80,-1
 217.643346183 192.655543409 l 1,81,-1
 218 254 l 1,82,-1
 215 274 l 1,83,-1
 211 281 l 1,84,-1
 208 288 l 1,85,-1
 203 289 l 1,86,-1
 198 293 l 1,87,-1
 194 305 l 1,88,-1
 198 317 l 1,89,-1
 203 321 l 1,90,-1
 208 323 l 1,91,-1
 211 330 l 1,92,-1
 213 342 l 1,93,-1
 213 487 l 1,94,-1
 211.769230769 487.41025641 l 1,75,-1
EndSplineSet
EndChar
StartChar: Eth
Encoding: 208 208 124
AltUni2: 000110.ffffffff.0
Width: 352
GlyphClass: 2
Flags: W
LayerCount: 2
Fore
SplineSet
48 283 m 5,0,-1
 42 277 l 5,1,-1
 30 273 l 5,2,-1
 14 273 l 5,3,-1
 2 277 l 5,4,-1
 -2 289 l 5,5,-1
 2 301 l 5,6,-1
 14 305 l 5,7,-1
 30 305 l 5,8,-1
 42 309 l 5,9,-1
 48 315 l 5,10,-1
 86.9451219512 321 l 5,11,-1
 94 321 l 5,12,-1
 106 325 l 5,13,-1
 114 333 l 5,14,-1
 126 337 l 5,15,-1
 190 337 l 5,16,-1
 202 333 l 5,17,-1
 202 325 l 5,18,-1
 186 309 l 5,19,-1
 174 305 l 5,20,-1
 126 305 l 5,21,-1
 114 301 l 5,22,-1
 106 293 l 5,23,-1
 94 289 l 5,24,-1
 87.5304878049 289 l 5,25,-1
 48 283 l 5,0,-1
EndSplineSet
Refer: 36 68 N 1 0 0 1 0 0 2
EndChar
StartChar: multiply
Encoding: 215 215 131
Width: 231
GlyphClass: 2
Flags: W
LayerCount: 2
Fore
SplineSet
194 80 m 1,0,-1
 182 81 l 1,1,-1
 160 110 l 1,2,-1
 106 166 l 1,3,-1
 101 170 l 1,4,-1
 73 143 l 1,5,-1
 54 117 l 1,6,-1
 43 99 l 1,7,-1
 36 81 l 1,8,-1
 27 80 l 1,9,-1
 14 80 l 1,10,-1
 3 93 l 1,11,-1
 9 105 l 1,12,-1
 16 110 l 1,13,-1
 42 139 l 1,14,-1
 77 184 l 1,15,-1
 83 191 l 1,16,-1
 77 205 l 1,17,-1
 75 214 l 1,18,-1
 61 237 l 1,19,-1
 43 255 l 1,20,-1
 40 262 l 1,21,-1
 43 269 l 1,22,-1
 54 270 l 1,23,-1
 61 270 l 1,24,-1
 71 260 l 1,25,-1
 94 219 l 1,26,-1
 104 204 l 1,27,-1
 107 204 l 1,28,-1
 136 245 l 1,29,-1
 137 250 l 1,30,-1
 149 250 l 1,31,-1
 157 238 l 1,32,-1
 157 233 l 1,33,-1
 131 204 l 1,34,-1
 123 192 l 1,35,-1
 122 182 l 1,36,-1
 158 139 l 1,37,-1
 202 95 l 1,38,-1
 205 90 l 1,39,-1
 202 81 l 1,40,-1
 194 80 l 1,0,-1
EndSplineSet
EndChar
StartChar: Thorn
Encoding: 222 222 138
Width: 269
GlyphClass: 2
Flags: W
LayerCount: 2
Fore
SplineSet
74 403 m 1,0,-1
 76 380 l 1,1,-1
 82 253 l 1,2,-1
 82.7777777778 248 l 1,3,-1
 94 248 l 1,4,-1
 117 250 l 1,5,-1
 150 260 l 1,6,-1
 173 269 l 1,7,-1
 189 278 l 1,8,-1
 201 288 l 1,9,-1
 205 307 l 1,10,-1
 206 321 l 1,11,-1
 203 338 l 1,12,-1
 199 358 l 1,13,-1
 181 382 l 1,14,-1
 161 394 l 1,15,-1
 119 406 l 1,16,-1
 100 405 l 1,17,-1
 83 405 l 1,18,-1
 74 403 l 1,0,-1
32 245 m 1,19,-1
 40 248 l 1,20,-1
 44 248 l 1,21,-1
 36 337 l 1,22,-1
 37 363 l 1,23,-1
 33 382 l 1,24,-1
 32 400 l 1,25,-1
 32 407.636363636 l 1,26,-1
 26 409 l 1,27,-1
 24 419 l 1,28,-1
 25 428 l 1,29,-1
 27 433 l 1,30,-1
 30 436 l 1,31,-1
 32 436 l 1,32,-1
 32 528 l 1,33,-1
 36 540 l 1,34,-1
 44 540 l 1,35,-1
 60 524 l 1,36,-1
 64 512 l 1,37,-1
 72 431 l 1,38,-1
 96 434 l 1,39,-1
 126 433 l 1,40,-1
 158 423 l 1,41,-1
 180 417 l 1,42,-1
 197 411 l 1,43,-1
 210 400 l 1,44,-1
 228 368 l 1,45,-1
 233 351 l 1,46,-1
 237 312 l 1,47,-1
 236 296 l 1,48,-1
 229 274 l 1,49,-1
 222 263 l 1,50,-1
 211 251 l 1,51,-1
 200 243 l 1,52,-1
 160 225 l 1,53,-1
 140 218 l 1,54,-1
 126 216 l 1,55,-1
 118 215 l 1,56,-1
 98 215 l 1,57,-1
 87.5028901734 217.624277457 l 1,58,-1
 89 208 l 1,59,-1
 93 196 l 1,60,-1
 96 150 l 1,61,-1
 100 138 l 1,62,-1
 108 108 l 1,63,-1
 112 96 l 1,64,-1
 108 84 l 1,65,-1
 96 80 l 1,66,-1
 80 80 l 1,67,-1
 68 84 l 1,68,-1
 64 96 l 1,69,-1
 58 146 l 1,70,-1
 52 180 l 1,71,-1
 48 192 l 1,72,-1
 45.8281786942 218.242840779 l 1,73,-1
 40 218 l 1,74,-1
 34 223 l 1,75,-1
 32 237 l 1,76,-1
 32 245 l 1,19,-1
EndSplineSet
EndChar
StartChar: germandbls
Encoding: 223 223 139
Width: 318
GlyphClass: 2
Flags: W
LayerCount: 2
Fore
SplineSet
198 236 m 1,0,-1
 189 228 l 1,1,-1
 168 210 l 1,2,-1
 160 198 l 1,3,-1
 163 190 l 1,4,-1
 228 184 l 1,5,-1
 242 181 l 1,6,-1
 254 175 l 1,7,-1
 271 165 l 9,8,-1
 281 153 l 1,9,-1
 290 132 l 1,10,-1
 290 110 l 25,11,-1
 285 89 l 17,12,-1
 279 78 l 1,13,-1
 273 71 l 1,14,-1
 249 47 l 1,15,-1
 236 43 l 1,16,-1
 204 40 l 1,17,-1
 165 35 l 1,18,-1
 155 34 l 1,19,-1
 138 27 l 1,20,-1
 134 26 l 1,21,-1
 128 25 l 1,22,-1
 113 31 l 1,23,-1
 109 34 l 1,24,-1
 108 41 l 1,25,-1
 114 57 l 1,26,-1
 118 61 l 1,27,-1
 125 63 l 1,28,-1
 137 59 l 1,29,-1
 150 65 l 1,30,-1
 200 72 l 1,31,-1
 226 81 l 1,32,-1
 251 97 l 1,33,-1
 259 110 l 1,34,-1
 257 123 l 1,35,-1
 253 133 l 1,36,-1
 244 141 l 1,37,-1
 236 146 l 17,38,-1
 203 155 l 1,39,-1
 191 158 l 1,40,-1
 155 158 l 1,41,-1
 142 160 l 1,42,-1
 125 164 l 1,43,-1
 112 171 l 1,44,-1
 108 185 l 1,45,-1
 113 209 l 1,46,-1
 137 226 l 1,47,-1
 152 249 l 1,48,-1
 166 263 l 1,49,-1
 200 294 l 1,50,-1
 220 315 l 1,51,-1
 215 318 l 1,52,-1
 196 321 l 1,53,-1
 183 320 l 1,54,-1
 151 319 l 1,55,-1
 132 320 l 1,56,-1
 118 320 l 1,57,-1
 105 318 l 1,58,-1
 92 314 l 1,59,-1
 73 297 l 1,60,-1
 65 282 l 1,61,-1
 68 258 l 1,62,-1
 65 227 l 1,63,-1
 70 166 l 1,64,-1
 70 142 l 1,65,-1
 71 115 l 1,66,-1
 71 83 l 1,67,-1
 71 43 l 1,68,-1
 73 17 l 1,69,-1
 54 8 l 1,70,-1
 36 7 l 1,71,-1
 23 15 l 1,72,-1
 21 27 l 1,73,-1
 24 37 l 1,74,-1
 38 47 l 1,75,-1
 40 63 l 1,76,-1
 36 91 l 1,77,-1
 34 115 l 1,78,-1
 32 148 l 1,79,-1
 28 175 l 1,80,-1
 28 213 l 1,81,-1
 27 247 l 1,82,-1
 28 284 l 1,83,-1
 37 310 l 1,84,-1
 49 330 l 1,85,-1
 60 339 l 1,86,-1
 94 351 l 1,87,-1
 110 353 l 1,88,-1
 131 353 l 1,89,-1
 156 354 l 9,90,-1
 218 353 l 1,91,-1
 232 354 l 1,92,-1
 249 356 l 1,93,-1
 255 353 l 1,94,-1
 263 346 l 1,95,-1
 268 334 l 1,96,-1
 259 320 l 1,97,-1
 251 309 l 1,98,-1
 242 299 l 1,99,-1
 231 283 l 1,100,-1
 220 268 l 1,101,-1
 208 254 l 1,102,-1
 198 236 l 1,0,-1
EndSplineSet
EndChar
StartChar: ae
Encoding: 230 230 146
Width: 356
GlyphClass: 2
Flags: W
LayerCount: 2
Fore
SplineSet
148.480836237 254.494773519 m 1,0,-1
 136 233 l 1,1,-1
 112 167 l 1,2,-1
 116 155 l 1,3,-1
 128 152 l 1,4,-1
 144 152 l 1,5,-1
 164.575258988 153.789152956 l 1,6,-1
 164 164 l 1,7,-1
 165 185 l 1,8,-1
 157 242 l 1,9,-1
 148.480836237 254.494773519 l 1,0,-1
166.436817473 120.74648986 m 1,10,-1
 153 120 l 1,11,-1
 128 121 l 1,12,-1
 116 118 l 1,13,-1
 100 102 l 1,14,-1
 80 46 l 1,15,-1
 76 34 l 1,16,-1
 68 5 l 1,17,-1
 52 4 l 1,18,-1
 35 12 l 1,19,-1
 32 30 l 1,20,-1
 36 42 l 1,21,-1
 44 49 l 1,22,-1
 110 256 l 1,23,-1
 110 271 l 1,24,-1
 111 281 l 1,25,-1
 108 289 l 1,26,-1
 104 300 l 1,27,-1
 108 311 l 1,28,-1
 132 319 l 1,29,-1
 180 326 l 1,30,-1
 212 326 l 1,31,-1
 224 322 l 1,32,-1
 276 311 l 1,33,-1
 288 308 l 1,34,-1
 292 296 l 1,35,-1
 288 285 l 1,36,-1
 280 285 l 1,37,-1
 240 293 l 1,38,-1
 228 296 l 1,39,-1
 212 296 l 1,40,-1
 200 293 l 1,41,-1
 196 282 l 1,42,-1
 196 237 l 1,43,-1
 200 226 l 1,44,-1
 212 223 l 1,45,-1
 308 223 l 1,46,-1
 320 219 l 1,47,-1
 324 208 l 1,48,-1
 320 197 l 1,49,-1
 308 193 l 1,50,-1
 276 193 l 1,51,-1
 264 189 l 1,52,-1
 215 187 l 1,53,-1
 203 183 l 1,54,-1
 201 164 l 1,55,-1
 200 123 l 1,56,-1
 212 60 l 1,57,-1
 216 49 l 1,58,-1
 228 45 l 1,59,-1
 292 45 l 1,60,-1
 304 42 l 1,61,-1
 304 34 l 1,62,-1
 298 23 l 1,63,-1
 282 23 l 1,64,-1
 270 20 l 1,65,-1
 244 16 l 1,66,-1
 171 14 l 1,67,-1
 159 18 l 1,68,-1
 152 34 l 1,69,-1
 152 42 l 1,70,-1
 176 49 l 1,71,-1
 175 65 l 1,72,-1
 168 93 l 1,73,-1
 166.436817473 120.74648986 l 1,10,-1
EndSplineSet
EndChar
StartChar: eth
Encoding: 240 240 156
AltUni2: 000111.ffffffff.0
Width: 256
GlyphClass: 2
Flags: W
LayerCount: 2
Fore
SplineSet
95 185 m 1,0,-1
 43 188 l 5,1,-1
 35 190 l 5,2,-1
 21 189 l 5,3,-1
 8 190 l 5,4,-1
 7 203 l 1,5,-1
 13 210 l 1,6,-1
 25 212 l 1,7,-1
 41 209 l 1,8,-1
 49 209 l 1,9,-1
 88 212 l 1,10,-1
 95 212 l 1,11,-1
 134 216 l 1,12,-1
 146 212 l 1,13,-1
 145 198 l 1,14,-1
 127 192 l 1,15,-1
 115 188 l 1,16,-1
 108 186 l 1,17,-1
 102 185 l 1,18,-1
 95 185 l 1,0,-1
EndSplineSet
Refer: 68 100 N 1 0 0 1 0 0 2
EndChar
StartChar: divide
Encoding: 247 247 163
Width: 320
GlyphClass: 2
Flags: W
LayerCount: 2
Fore
SplineSet
295 205 m 1,0,-1
 273 193 l 1,1,-1
 256 189 l 1,2,-1
 188 187 l 1,3,-1
 172 186 l 1,4,-1
 99 177 l 1,5,-1
 71 167 l 1,6,-1
 54 164 l 1,7,-1
 31 164 l 1,8,-1
 15 167 l 1,9,-1
 9 177 l 1,10,-1
 15 186 l 1,11,-1
 31 189 l 1,12,-1
 51 192 l 1,13,-1
 68 195 l 1,14,-1
 82 199 l 1,15,-1
 99 202 l 1,16,-1
 172 212 l 1,17,-1
 188 213 l 1,18,-1
 278 215 l 1,19,-1
 295 212 l 1,20,-1
 295 205 l 1,0,-1
153 246 m 1,21,-1
 147 239 l 1,22,-1
 137 236 l 1,23,-1
 127 239 l 1,24,-1
 114 253 l 1,25,-1
 110 263 l 1,26,-1
 114 273 l 1,27,-1
 120 279 l 1,28,-1
 127 299 l 1,29,-1
 140 313 l 1,30,-1
 147 313 l 1,31,-1
 160 299 l 1,32,-1
 163 289 l 1,33,-1
 163 263 l 1,34,-1
 160 253 l 1,35,-1
 153 246 l 1,21,-1
163 64 m 1,36,-1
 137 64 l 1,37,-1
 127 67 l 1,38,-1
 114 80 l 1,39,-1
 110 90 l 1,40,-1
 114 100 l 1,41,-1
 124 103 l 1,42,-1
 150 103 l 1,43,-1
 160 100 l 1,44,-1
 173 87 l 1,45,-1
 176 77 l 1,46,-1
 173 67 l 1,47,-1
 163 64 l 1,36,-1
EndSplineSet
EndChar
StartChar: thorn
Encoding: 254 254 291
Width: 112
Flags: W
LayerCount: 2
Fore
SplineSet
78 153 m 1,0,-1
 90 153 l 1,1,-1
 100 155 l 1,2,-1
 108 157 l 1,3,-1
 117 161 l 1,4,-1
 125 170 l 1,5,-1
 131 179 l 1,6,-1
 135 187 l 1,7,-1
 136 193 l 1,8,-1
 135 218 l 1,9,-1
 134 228 l 1,10,-1
 131 235 l 1,11,-1
 129 237 l 1,12,-1
 122 242 l 1,13,-1
 117 247 l 1,14,-1
 109 249 l 1,15,-1
 103 252 l 1,16,-1
 93 253 l 1,17,-1
 80 253 l 1,18,-1
 77 253.315429688 l 1,19,-1
 78 153 l 1,0,-1
64 32 m 1,20,-1
 48 32 l 1,21,-1
 38 43 l 1,22,-1
 38 117 l 1,23,-1
 38.068359375 126.646484375 l 1,24,-1
 34 127 l 1,25,-1
 30 132 l 1,26,-1
 26 140 l 1,27,-1
 26 150 l 1,28,-1
 31 155 l 1,29,-1
 35 156 l 1,30,-1
 37 153 l 1,31,-1
 40.2109375 153 l 1,32,-1
 44 180 l 1,33,-1
 44 188 l 1,34,-1
 46 237 l 1,35,-1
 46 260.559570312 l 1,36,-1
 37 262 l 1,37,-1
 35 268 l 1,38,-1
 35 274 l 1,39,-1
 42 279 l 1,40,-1
 46 278.727539062 l 1,41,-1
 46 301 l 1,42,-1
 42 313 l 1,43,-1
 34 321 l 1,44,-1
 34 329 l 1,45,-1
 50 345 l 1,46,-1
 58 345 l 1,47,-1
 74 329 l 1,48,-1
 78 317 l 1,49,-1
 78 276.545898438 l 1,50,-1
 102 275 l 1,51,-1
 124 269 l 1,52,-1
 139 262 l 1,53,-1
 150 253 l 1,54,-1
 156 239 l 1,55,-1
 158 228 l 1,56,-1
 159 220 l 1,57,-1
 161 195 l 1,58,-1
 154 168 l 1,59,-1
 143 152 l 1,60,-1
 128 137 l 1,61,-1
 123 134 l 1,62,-1
 112 131 l 1,63,-1
 88 126 l 1,64,-1
 78 125.677734375 l 1,65,-1
 80 48 l 1,66,-1
 76 36 l 1,67,-1
 64 32 l 1,20,-1
EndSplineSet
EndChar
StartChar: Hbar
Encoding: 294 294 415
Width: 400
Flags: W
LayerCount: 2
Fore
SplineSet
-9 402 m 29,0,-1
 2 399 l 29,1,-1
 105 404 l 1,2,-1
 228 406 l 1,3,-1
 343 392 l 25,4,-1
 356 397 l 25,5,-1
 361 399 l 25,6,-1
 370 397 l 25,7,-1
 382 395 l 25,8,-1
 384 385 l 25,9,-1
 386 371 l 25,10,-1
 383 361 l 25,11,-1
 371 355 l 25,12,-1
 365 360 l 25,13,-1
 360 362 l 25,14,-1
 332 366 l 25,15,-1
 251 368 l 1,16,-1
 216 372 l 25,17,-1
 164 373 l 25,18,-1
 105 366 l 1,19,-1
 10 364 l 29,20,-1
 -4 367 l 29,21,-1
 -10 376 l 29,22,-1
 -18 379 l 29,23,-1
 -18 394 l 29,24,-1
 -9 402 l 29,0,-1
EndSplineSet
Refer: 40 72 N 1 0 0 1 0 0 2
EndChar
StartChar: hbar
Encoding: 295 295 416
Width: 295
Flags: W
LayerCount: 2
Fore
SplineSet
11 246 m 1,0,-1
 29 249 l 25,1,-1
 66 244 l 25,2,-1
 163 251 l 25,3,-1
 229 261 l 25,4,-1
 253 253 l 25,5,-1
 264 236 l 1,6,-1
 254 219 l 1,7,-1
 236 221 l 1,8,-1
 138 222 l 5,9,-1
 46 207 l 1,10,-1
 26 197 l 25,11,-1
 11 206 l 25,12,-1
 3 215 l 1,13,-1
 0 233 l 1,14,-1
 11 246 l 1,0,-1
EndSplineSet
Refer: 72 104 N 1 0 0 1 0 0 2
EndChar
StartChar: Lslash
Encoding: 321 321 177
Width: 352
GlyphClass: 2
Flags: W
LayerCount: 2
Fore
SplineSet
38.5486284289 288.117206983 m 1,0,-1
 34 283 l 1,1,-1
 29 281 l 1,2,-1
 20 272 l 1,3,-1
 15 269 l 1,4,-1
 -12 246 l 1,5,-1
 -21 236 l 1,6,-1
 -35 225 l 1,7,-1
 -55 216 l 1,8,-1
 -61 218 l 1,9,-1
 -65 222 l 1,10,-1
 -63 228 l 1,11,-1
 -60 236 l 1,12,-1
 -56 241 l 1,13,-1
 -51 243 l 1,14,-1
 -42 253 l 1,15,-1
 -37 255 l 1,16,-1
 29 318 l 1,17,-1
 87.9618055556 370.34375 l 1,18,-1
 137 416 l 1,19,-1
 145 425 l 1,20,-1
 151 427 l 1,21,-1
 159 437 l 1,22,-1
 180 445 l 1,23,-1
 185 445 l 1,24,-1
 189 440 l 1,25,-1
 188 433 l 1,26,-1
 181 418 l 1,27,-1
 146 383 l 1,28,-1
 92 337 l 1,29,-1
 38.5486284289 288.117206983 l 1,0,-1
EndSplineSet
Refer: 44 76 N 1 0 0 1 0 0 2
EndChar
StartChar: lslash
Encoding: 322 322 178
Width: 272
GlyphClass: 2
Flags: W
LayerCount: 2
Fore
SplineSet
85 202 m 1,0,-1
 45 168 l 1,1,-1
 42 167 l 1,2,-1
 36 161 l 1,3,-1
 33 160 l 1,4,-1
 14 145 l 1,5,-1
 8 139 l 1,6,-1
 -1 132 l 1,7,-1
 -15 127 l 1,8,-1
 -19 127 l 1,9,-1
 -22 130 l 1,10,-1
 -21 134 l 1,11,-1
 -18 139 l 1,12,-1
 -15 142 l 1,13,-1
 -12 143 l 1,14,-1
 116 251 l 1,15,-1
 122 257 l 1,16,-1
 125 258 l 1,17,-1
 131 264 l 1,18,-1
 145 269 l 1,19,-1
 149 269 l 1,20,-1
 152 266 l 1,21,-1
 151 262 l 1,22,-1
 146 253 l 1,23,-1
 113 223 l 1,24,-1
 85 202 l 1,0,-1
EndSplineSet
Refer: 76 108 S 1 0 0 1 0 0 2
EndChar
StartChar: Eng
Encoding: 330 330 419
Width: 364
Flags: W
LayerCount: 2
Fore
SplineSet
259 95 m 1,0,-1
 280 115 l 1,1,-1
 292 185 l 1,2,-1
 294 288 l 5,3,-1
 280 378 l 1,4,-1
 263 441 l 9,5,-1
 252 464 l 25,6,-1
 226 480 l 25,7,-1
 191 485 l 25,8,-1
 160 482 l 1,9,-1
 137 474 l 1,10,-1
 116 435 l 1,11,-1
 98 411 l 25,12,-1
 95 390 l 1,13,-1
 76 335 l 25,14,-1
 65 218 l 25,15,-1
 70 148 l 25,16,-1
 71 91 l 1,17,-1
 64 71 l 1,18,-1
 51 64 l 1,19,-1
 40 66 l 25,20,-1
 30 81 l 25,21,-1
 23 141 l 25,22,-1
 31 399 l 25,23,-1
 28 503 l 25,24,-1
 35 528 l 25,25,-1
 51 538 l 25,26,-1
 64 530 l 1,27,-1
 71 509 l 25,28,-1
 71 451 l 25,29,-1
 87 492 l 25,30,-1
 123 516 l 25,31,-1
 170 529 l 1,32,-1
 246 520 l 25,33,-1
 291 490 l 25,34,-1
 315 425 l 25,35,-1
 323 385 l 25,36,-1
 323 348 l 17,37,-1
 334 270 l 1,38,-1
 334 204 l 9,39,-1
 315 94 l 25,40,-1
 284 57 l 25,41,-1
 238 45 l 1,42,-1
 192 50 l 25,43,-1
 174 60 l 1,44,-1
 159 63 l 1,45,-1
 151 77 l 1,46,-1
 147 90 l 1,47,-1
 152 108 l 9,48,-1
 172 138 l 1,49,-1
 188 134 l 25,50,-1
 202 118 l 25,51,-1
 208 103 l 25,52,-1
 226 95 l 25,53,-1
 259 95 l 1,0,-1
EndSplineSet
EndChar
StartChar: eng
Encoding: 331 331 420
Width: 247
Flags: W
LayerCount: 2
Fore
SplineSet
62 82 m 1,0,-1
 58 56 l 9,1,-1
 52 40 l 1,2,-1
 45 33 l 1,3,-1
 31 34 l 1,4,-1
 20 42 l 25,5,-1
 21 59 l 17,6,-1
 27 70 l 1,7,-1
 26 84 l 1,8,-1
 32 213 l 17,9,-1
 31 264 l 1,10,-1
 36 292 l 25,11,-1
 57 304 l 1,12,-1
 69 295 l 1,13,-1
 70 288 l 9,14,-1
 100 301 l 1,15,-1
 135 310 l 17,16,-1
 158 305 l 1,17,-1
 194 288 l 1,18,-1
 206 273 l 1,19,-1
 210 265 l 1,20,-1
 216 248 l 1,21,-1
 212 196 l 1,22,-1
 217 23 l 1,23,-1
 215 -3 l 1,24,-1
 202 -27 l 1,25,-1
 184 -44 l 9,26,-1
 144 -51 l 25,27,-1
 106 -37 l 25,28,-1
 97 -17 l 25,29,-1
 106 -6 l 25,30,-1
 124 0 l 25,31,-1
 132 -9 l 25,32,-1
 148 -13 l 25,33,-1
 165 -6 l 17,34,-1
 178 8 l 1,35,-1
 186 32 l 1,36,-1
 182 67 l 1,37,-1
 182 77 l 1,38,-1
 185 197 l 1,39,-1
 186 231 l 25,40,-1
 177 258 l 9,41,-1
 152 275 l 25,42,-1
 113 271 l 1,43,-1
 76 253 l 1,44,-1
 62 216 l 1,45,-1
 62 82 l 1,0,-1
EndSplineSet
EndChar
StartChar: OE
Encoding: 338 338 181
Width: 436
GlyphClass: 2
Flags: W
LayerCount: 2
Fore
SplineSet
394 67 m 1,0,-1
 367 50 l 1,1,-1
 295 50 l 1,2,-1
 258 47 l 1,3,-1
 243 46 l 1,4,-1
 211 47 l 1,5,-1
 178 46 l 1,6,-1
 166 55 l 1,7,-1
 157.111111111 75 l 1,8,-1
 101 75 l 1,9,-1
 85 81 l 1,10,-1
 53 99 l 1,11,-1
 7 145 l 1,12,-1
 1 163 l 1,13,-1
 1 366 l 1,14,-1
 11 438 l 1,15,-1
 18 453 l 1,16,-1
 101 535 l 1,17,-1
 119 541 l 1,18,-1
 142.428571429 541 l 1,19,-1
 154 550 l 1,20,-1
 162 558 l 1,21,-1
 215 554 l 1,22,-1
 247 562 l 1,23,-1
 259 566 l 1,24,-1
 323 566 l 1,25,-1
 335 562 l 1,26,-1
 339 550 l 1,27,-1
 335 538 l 1,28,-1
 323 534 l 1,29,-1
 307 534 l 1,30,-1
 295 530 l 1,31,-1
 253 522 l 1,32,-1
 230 519 l 1,33,-1
 218 515 l 1,34,-1
 213 506 l 1,35,-1
 209 494 l 1,36,-1
 211 368 l 1,37,-1
 215 356 l 1,38,-1
 231 340 l 1,39,-1
 263 340 l 1,40,-1
 313 338 l 1,41,-1
 335 340 l 1,42,-1
 367 332 l 1,43,-1
 371 320 l 1,44,-1
 367 308 l 1,45,-1
 355 304 l 1,46,-1
 327 300 l 1,47,-1
 311 300 l 1,48,-1
 260 301 l 1,49,-1
 237 300 l 1,50,-1
 225 296 l 1,51,-1
 220 287 l 1,52,-1
 222 220 l 1,53,-1
 227 192 l 1,54,-1
 227 110 l 1,55,-1
 231 98 l 1,56,-1
 244 86 l 1,57,-1
 371 93 l 1,58,-1
 391 106 l 1,59,-1
 399 106 l 1,60,-1
 403 94 l 1,61,-1
 394 67 l 1,0,-1
166 494.378378378 m 1,62,-1
 154 496 l 1,63,-1
 116 484 l 1,64,-1
 97 477 l 1,65,-1
 71 452 l 1,66,-1
 65 432 l 1,67,-1
 53 353 l 1,68,-1
 48 332 l 1,69,-1
 45 299 l 1,70,-1
 45 260 l 1,71,-1
 41 231 l 1,72,-1
 45 210 l 1,73,-1
 48 185 l 1,74,-1
 54 165 l 1,75,-1
 71 133 l 1,76,-1
 102 113 l 1,77,-1
 123 108 l 1,78,-1
 135 108 l 1,79,-1
 170 125.156862745 l 1,80,-1
 170 273 l 1,81,-1
 166 285 l 1,82,-1
 158 299 l 1,83,-1
 152 304 l 1,84,-1
 146 303 l 1,85,-1
 134 307 l 1,86,-1
 130 319 l 1,87,-1
 134 331 l 1,88,-1
 146 335 l 1,89,-1
 156 335 l 1,90,-1
 162 338 l 1,91,-1
 166 350 l 1,92,-1
 166 494.378378378 l 1,62,-1
EndSplineSet
EndChar
StartChar: oe
Encoding: 339 339 182
Width: 362
GlyphClass: 2
Flags: W
LayerCount: 2
Fore
SplineSet
313 189 m 1,0,-1
 281 189 l 1,1,-1
 269 185 l 1,2,-1
 220 183 l 1,3,-1
 208 179 l 1,4,-1
 206 160 l 1,5,-1
 205 119 l 1,6,-1
 217 56 l 1,7,-1
 221 45 l 1,8,-1
 233 41 l 1,9,-1
 297 41 l 1,10,-1
 309 38 l 1,11,-1
 309 30 l 1,12,-1
 303 19 l 1,13,-1
 287 19 l 1,14,-1
 275 16 l 1,15,-1
 249 12 l 1,16,-1
 176 10 l 1,17,-1
 167 22 l 1,18,-1
 150.715633423 25.7870619946 l 1,19,-1
 111 23 l 1,20,-1
 97 26 l 1,21,-1
 77 31 l 1,22,-1
 45 52 l 1,23,-1
 32 71 l 1,24,-1
 28 87 l 1,25,-1
 25 120 l 1,26,-1
 33 152 l 1,27,-1
 41 171 l 1,28,-1
 54 194 l 1,29,-1
 122 285 l 1,30,-1
 137 292 l 1,31,-1
 150 295 l 1,32,-1
 155.47826087 299.793478261 l 1,33,-1
 159 313 l 1,34,-1
 185 322 l 1,35,-1
 217 322 l 1,36,-1
 229 318 l 1,37,-1
 281 307 l 1,38,-1
 293 304 l 1,39,-1
 297 292 l 1,40,-1
 293 281 l 1,41,-1
 285 281 l 1,42,-1
 245 289 l 1,43,-1
 233 292 l 1,44,-1
 217 292 l 1,45,-1
 205 289 l 1,46,-1
 201 278 l 1,47,-1
 201 233 l 1,48,-1
 205 222 l 1,49,-1
 217 219 l 1,50,-1
 313 219 l 1,51,-1
 325 215 l 1,52,-1
 329 204 l 1,53,-1
 325 193 l 1,54,-1
 313 189 l 1,0,-1
173 89 m 21,55,-1
 169 160 l 1,56,-1
 167 176 l 1,57,-1
 152 182 l 1,58,-1
 148 203 l 1,59,-1
 152 214 l 1,60,-1
 161 220 l 1,61,-1
 161 237 l 1,62,-1
 157.330097087 257.184466019 l 1,63,-1
 152 256 l 1,64,-1
 128 239 l 1,65,-1
 111 223 l 1,66,-1
 100 205 l 1,67,-1
 88 180 l 1,68,-1
 79 163 l 1,69,-1
 68 135 l 1,70,-1
 62 116 l 1,71,-1
 60 100 l 1,72,-1
 66 82 l 1,73,-1
 86 61 l 1,74,-1
 102 56 l 1,75,-1
 144 56 l 1,76,-1
 161 66 l 1,77,-1
 174 81 l 9,78,-1
 173 89 l 21,55,-1
EndSplineSet
EndChar
StartChar: Tbar
Encoding: 358 358 417
Width: 453
Flags: W
LayerCount: 2
Fore
SplineSet
151 355 m 29,0,-1
 273 363 l 25,1,-1
 323 358 l 25,2,-1
 349 360 l 25,3,-1
 356 342 l 25,4,-1
 349 323 l 25,5,-1
 329 318 l 25,6,-1
 292 322 l 25,7,-1
 178 316 l 25,8,-1
 144 300 l 25,9,-1
 128 306 l 25,10,-1
 112 320 l 25,11,-1
 111 335 l 25,12,-1
 124 347 l 25,13,-1
 151 355 l 29,0,-1
EndSplineSet
Refer: 52 84 N 1 0 0 1 0 0 2
EndChar
StartChar: tbar
Encoding: 359 359 418
Width: 302
Flags: W
LayerCount: 2
Fore
SplineSet
98 154 m 29,0,-1
 126 161 l 25,1,-1
 224 169 l 25,2,-1
 244 162 l 25,3,-1
 250 150 l 25,4,-1
 247 136 l 25,5,-1
 222 132 l 25,6,-1
 88 120 l 25,7,-1
 69 128 l 25,8,-1
 71 148 l 25,9,-1
 85 154 l 25,10,-1
 98 154 l 29,0,-1
EndSplineSet
Refer: 84 116 N 1 0 0 1 0 0 2
EndChar
StartChar: circumflex
Encoding: 710 710 194
Width: 160
GlyphClass: 2
Flags: W
LayerCount: 2
Fore
SplineSet
69 491 m 1,0,-1
 57 467 l 1,1,-1
 51 467 l 1,2,-1
 48 476 l 1,3,-1
 48 488 l 1,4,-1
 57 503 l 1,5,-1
 63 522 l 1,6,-1
 69 522 l 1,7,-1
 72 512 l 1,8,-1
 72 500 l 1,9,-1
 69 491 l 1,0,-1
132 476 m 1,10,-1
 123 479 l 1,11,-1
 117 497 l 1,12,-1
 93 522 l 1,13,-1
 75 528 l 1,14,-1
 72 537 l 1,15,-1
 72 549 l 1,16,-1
 75 558 l 1,17,-1
 84 561 l 1,18,-1
 93 558 l 1,19,-1
 99 540 l 1,20,-1
 141 497 l 1,21,-1
 144 488 l 1,22,-1
 141 479 l 1,23,-1
 132 476 l 1,10,-1
EndSplineSet
EndChar
StartChar: caron
Encoding: 711 711 292
Width: 160
Flags: W
LayerCount: 2
Fore
SplineSet
131.630859375 531.540039062 m 1,0,-1
 141.630859375 541.540039062 l 1,1,-1
 147.630859375 539.540039062 l 1,2,-1
 146.630859375 531.540039062 l 1,3,-1
 143.630859375 521.540039062 l 1,4,-1
 130.630859375 509.540039062 l 1,5,-1
 119.630859375 495.540039062 l 1,6,-1
 114.630859375 497.540039062 l 1,7,-1
 113.630859375 506.540039062 l 1,8,-1
 118.630859375 517.540039062 l 1,9,-1
 123.630859375 524.540039062 l 1,10,-1
 131.630859375 531.540039062 l 1,0,-1
72.630859375 557.540039062 m 1,11,-1
 80.630859375 551.540039062 l 1,12,-1
 79.630859375 533.540039062 l 1,13,-1
 93.630859375 505.540039062 l 1,14,-1
 107.630859375 494.540039062 l 1,15,-1
 106.630859375 484.540039062 l 1,16,-1
 104.630859375 474.540039062 l 1,17,-1
 96.630859375 467.540039062 l 1,18,-1
 89.630859375 467.540039062 l 1,19,-1
 81.630859375 473.540039062 l 1,20,-1
 82.630859375 490.540039062 l 1,21,-1
 58.630859375 541.540039062 l 1,22,-1
 57.630859375 550.540039062 l 1,23,-1
 63.630859375 556.540039062 l 1,24,-1
 72.630859375 557.540039062 l 1,11,-1
EndSplineSet
EndChar
StartChar: breve
Encoding: 728 728 290
Width: 212
Flags: W
LayerCount: 2
Fore
SplineSet
159 614 m 1,0,-1
 161 607 l 1,1,-1
 159 593 l 1,2,-1
 153 592 l 1,3,-1
 150 582 l 1,4,-1
 133 554 l 1,5,-1
 122 534 l 1,6,-1
 115 527 l 1,7,-1
 109 522 l 1,8,-1
 98 523 l 1,9,-1
 85 525 l 1,10,-1
 65 556 l 1,11,-1
 54 579 l 1,12,-1
 49 582 l 1,13,-1
 44 597 l 1,14,-1
 45 606 l 1,15,-1
 47 613 l 1,16,-1
 54 614 l 1,17,-1
 59 612 l 1,18,-1
 59 603 l 1,19,-1
 75 569 l 1,20,-1
 94 541 l 1,21,-1
 99 538 l 1,22,-1
 107 539 l 1,23,-1
 113 549 l 1,24,-1
 125 573 l 1,25,-1
 137 614 l 1,26,-1
 146 623 l 1,27,-1
 150 623 l 1,28,-1
 155 622 l 1,29,-1
 159 614 l 1,0,-1
EndSplineSet
EndChar
StartChar: dotaccent
Encoding: 729 729 288
Width: 146
Flags: W
LayerCount: 2
Fore
SplineSet
48 501 m 1,0,-1
 38 489 l 1,1,-1
 33 489 l 1,2,-1
 15 499 l 1,3,-1
 10 517 l 1,4,-1
 13 525 l 1,5,-1
 27 531 l 1,6,-1
 33 545 l 1,7,-1
 41 548 l 1,8,-1
 48 545 l 1,9,-1
 51 538 l 1,10,-1
 57 520 l 1,11,-1
 54 506 l 1,12,-1
 48 501 l 1,0,-1
EndSplineSet
EndChar
StartChar: ogonek
Encoding: 731 731 293
Width: 161
Flags: W
LayerCount: 2
Fore
SplineSet
109 -50 m 1,0,-1
 121 -43 l 1,1,-1
 128 -43 l 1,2,-1
 134 -50 l 1,3,-1
 133 -62 l 1,4,-1
 123 -69 l 1,5,-1
 116 -73 l 1,6,-1
 97 -76 l 1,7,-1
 81 -73 l 1,8,-1
 61 -51 l 1,9,-1
 58 -41 l 1,10,-1
 53 -28 l 1,11,-1
 54 -18 l 1,12,-1
 54 -3 l 1,13,-1
 61 6 l 1,14,-1
 67 10 l 1,15,-1
 72 17 l 1,16,-1
 81 20 l 1,17,-1
 89 21 l 1,18,-1
 105 21 l 1,19,-1
 113 16 l 1,20,-1
 103 6 l 1,21,-1
 90 0 l 1,22,-1
 79 -9 l 1,23,-1
 79 -17 l 1,24,-1
 80 -22 l 1,25,-1
 82 -27 l 1,26,-1
 89 -41 l 1,27,-1
 98 -49 l 1,28,-1
 109 -50 l 1,0,-1
EndSplineSet
EndChar
StartChar: tilde
Encoding: 732 732 195
Width: 242
GlyphClass: 2
Flags: W
LayerCount: 2
Fore
SplineSet
181 541 m 1,0,-1
 161 521 l 1,1,-1
 153 519 l 1,2,-1
 146 521 l 1,3,-1
 119 553 l 1,4,-1
 107 570 l 1,5,-1
 86 594 l 1,6,-1
 75 597 l 1,7,-1
 67 592 l 1,8,-1
 58 572 l 1,9,-1
 57 561 l 1,10,-1
 57 550 l 1,11,-1
 45 552 l 1,12,-1
 43 559 l 1,13,-1
 43 579 l 1,14,-1
 45 587 l 1,15,-1
 51 598 l 1,16,-1
 65 612 l 1,17,-1
 75 617 l 1,18,-1
 83 618 l 1,19,-1
 90 617 l 1,20,-1
 120 584 l 1,21,-1
 131 567 l 1,22,-1
 136 558 l 1,23,-1
 143 550 l 1,24,-1
 153 549 l 1,25,-1
 165 558 l 1,26,-1
 167 574 l 1,27,-1
 166 601 l 1,28,-1
 165 611 l 1,29,-1
 166 617 l 1,30,-1
 172 623 l 1,31,-1
 177 623 l 1,32,-1
 180 616 l 1,33,-1
 184 557 l 1,34,-1
 181 541 l 1,0,-1
EndSplineSet
EndChar
StartChar: uni0326
Encoding: 806 806 295
Width: 0
Flags: W
AnchorPoint: "bottom" -30.75 -0.25 mark 0
LayerCount: 2
Fore
SplineSet
-7.5 -85 m 1,0,-1
 -19.5 -97 l 1,1,-1
 -37.5 -103 l 1,2,-1
 -51 -102.25 l 1,3,-1
 -73.5 -93.25 l 1,4,-1
 -76.5 -84.25 l 1,5,-1
 -70.5 -75.25 l 1,6,-1
 -57 -78.25 l 1,7,-1
 -43.5 -79 l 1,8,-1
 -35.25 -75.25 l 1,9,-1
 -33 -66.25 l 1,10,-1
 -30 -58.75 l 1,11,-1
 -33 -50.5 l 1,12,-1
 -33.75 -43 l 1,13,-1
 -24 -36.25 l 1,14,-1
 -30 -24.25 l 1,15,-1
 -33.75 -18.25 l 1,16,-1
 -39.75 -18.25 l 1,17,-1
 -45.75 -24.25 l 1,18,-1
 -54 -37 l 1,19,-1
 -66 -36.25 l 1,20,-1
 -72.75 -33.25 l 1,21,-1
 -75.75 -24.25 l 1,22,-1
 -72.75 -15.25 l 1,23,-1
 -60.75 -3.25 l 1,24,-1
 -51.75 -0.25 l 1,25,-1
 -15.75 -0.25 l 1,26,-1
 -6.75 -3.25 l 1,27,-1
 -3.75 -12.25 l 1,28,-1
 0 -25 l 1,29,-1
 0 -56.5 l 1,30,-1
 -4.5 -76 l 1,31,-1
 -7.5 -85 l 1,0,-1
EndSplineSet
EndChar
StartChar: uni0394
Encoding: 916 916 269
Width: 349
Flags: W
LayerCount: 2
Fore
SplineSet
251.934570312 76.97265625 m 1,0,-1
 272.921875 81.9697265625 l 1,1,-1
 278.91796875 90.96484375 l 1,2,-1
 271.922851562 155.923828125 l 1,3,-1
 259.9296875 207.891601562 l 1,4,-1
 255.932617188 219.883789062 l 1,5,-1
 239.942382812 315.82421875 l 1,6,-1
 227.950195312 399.771484375 l 1,7,-1
 225.951171875 422.756835938 l 1,8,-1
 217.956054688 487.715820312 l 1,9,-1
 158.993164062 306.829101562 l 1,10,-1
 144.002929688 267.853515625 l 1,11,-1
 140.004882812 255.861328125 l 1,12,-1
 130.01171875 232.875976562 l 1,13,-1
 123.015625 213.887695312 l 1,14,-1
 100.030273438 167.916015625 l 1,15,-1
 72.0478515625 93.962890625 l 1,16,-1
 76.044921875 84.9677734375 l 1,17,-1
 90.0361328125 80.970703125 l 1,18,-1
 138 77 l 1,19,-1
 157 77 l 1,20,-1
 217.956054688 77.97265625 l 1,21,-1
 251.934570312 76.97265625 l 1,0,-1
42.06640625 40.99609375 m 1,22,-1
 28.0751953125 41.9951171875 l 1,23,-1
 16.08203125 45.9921875 l 1,24,-1
 12.0849609375 57.9853515625 l 1,25,-1
 28.0751953125 105.955078125 l 1,26,-1
 52.0595703125 167.916015625 l 1,27,-1
 83.041015625 258.859375 l 1,28,-1
 101.029296875 302.83203125 l 1,29,-1
 127.012695312 380.783203125 l 1,30,-1
 159.9921875 459.733398438 l 1,31,-1
 188.974609375 547.678710938 l 1,32,-1
 210.9609375 601.64453125 l 1,33,-1
 218.956054688 601.64453125 l 1,34,-1
 251.934570312 583.65625 l 1,35,-1
 255.932617188 571.6640625 l 1,36,-1
 267.924804688 471.7265625 l 1,37,-1
 270.922851562 396.7734375 l 1,38,-1
 275.919921875 367.791015625 l 1,39,-1
 280.916992188 333.8125 l 1,40,-1
 282.916015625 309.827148438 l 1,41,-1
 294.908203125 252.86328125 l 1,42,-1
 303.90234375 219.883789062 l 1,43,-1
 306.900390625 191.901367188 l 1,44,-1
 307.900390625 175.911132812 l 1,45,-1
 325.888671875 59.9833984375 l 1,46,-1
 321.891601562 42.994140625 l 1,47,-1
 311.897460938 34.9990234375 l 1,48,-1
 248.936523438 31.001953125 l 1,49,-1
 147 33 l 1,50,-1
 42.06640625 40.99609375 l 1,22,-1
EndSplineSet
EndChar
StartChar: Theta
Encoding: 920 920 270
Width: 350
Flags: W
LayerCount: 2
Fore
SplineSet
268 331 m 1,0,-1
 265 379 l 1,1,-1
 250 429 l 1,2,-1
 236 452 l 1,3,-1
 191 491 l 1,4,-1
 154 496 l 1,5,-1
 116 484 l 1,6,-1
 97 477 l 1,7,-1
 71 452 l 1,8,-1
 65 432 l 1,9,-1
 53 353 l 1,10,-1
 48 332 l 1,11,-1
 45 299 l 1,12,-1
 45 260 l 1,13,-1
 41 231 l 1,14,-1
 45 210 l 1,15,-1
 48 185 l 1,16,-1
 54 165 l 1,17,-1
 71 133 l 1,18,-1
 102 113 l 1,19,-1
 123 108 l 1,20,-1
 135 108 l 1,21,-1
 186 133 l 1,22,-1
 236 185 l 1,23,-1
 243 204 l 1,24,-1
 254 270 l 1,25,-1
 261 289 l 1,26,-1
 262 312 l 1,27,-1
 268 331 l 1,0,-1
285 180 m 1,28,-1
 278 169 l 1,29,-1
 207 99 l 1,30,-1
 179 81 l 1,31,-1
 160 75 l 1,32,-1
 101 75 l 1,33,-1
 85 81 l 1,34,-1
 53 99 l 1,35,-1
 7 145 l 1,36,-1
 1 163 l 1,37,-1
 1 366 l 1,38,-1
 11 438 l 1,39,-1
 18 453 l 1,40,-1
 101 535 l 1,41,-1
 119 541 l 1,42,-1
 166 541 l 1,43,-1
 184 535 l 1,44,-1
 237 517 l 1,45,-1
 257 504 l 1,46,-1
 294 462 l 1,47,-1
 301 444 l 1,48,-1
 315 291 l 1,49,-1
 312 275 l 1,50,-1
 285 180 l 1,28,-1
233 307 m 1,51,-1
 217 291 l 1,52,-1
 205 287 l 1,53,-1
 191 288 l 1,54,-1
 179 284 l 1,55,-1
 171 281 l 1,56,-1
 159 277 l 1,57,-1
 128 275 l 1,58,-1
 116 271 l 1,59,-1
 106 269 l 1,60,-1
 95 268 l 1,61,-1
 79 268 l 1,62,-1
 67 272 l 1,63,-1
 62 281 l 1,64,-1
 67 296 l 1,65,-1
 79 300 l 1,66,-1
 95 300 l 1,67,-1
 106 301 l 1,68,-1
 116 303 l 1,69,-1
 128 307 l 1,70,-1
 159 309 l 1,71,-1
 171 313 l 1,72,-1
 179 316 l 1,73,-1
 192 318 l 1,74,-1
 210 316 l 1,75,-1
 214 323 l 1,76,-1
 223 320 l 1,77,-1
 233 315 l 1,78,-1
 233 307 l 1,51,-1
EndSplineSet
EndChar
StartChar: Lambda
Encoding: 923 923 271
Width: 352
Flags: W
LayerCount: 2
Fore
SplineSet
330 46 m 1,0,-1
 323 34 l 1,1,-1
 315 34 l 1,2,-1
 298 41 l 1,3,-1
 289 56 l 1,4,-1
 285 68 l 1,5,-1
 283 79 l 1,6,-1
 279 91 l 1,7,-1
 272 156 l 1,8,-1
 260 208 l 1,9,-1
 256 220 l 1,10,-1
 240 316 l 1,11,-1
 228 400 l 1,12,-1
 226 423 l 1,13,-1
 218 488 l 1,14,-1
 159 307 l 1,15,-1
 144 268 l 1,16,-1
 140 256 l 1,17,-1
 130 233 l 1,18,-1
 123 214 l 1,19,-1
 100 168 l 1,20,-1
 92 144 l 1,21,-1
 76 112 l 1,22,-1
 60 96 l 1,23,-1
 48 92 l 1,24,-1
 36 96 l 1,25,-1
 32 108 l 1,26,-1
 83 259 l 1,27,-1
 101 303 l 1,28,-1
 127 381 l 1,29,-1
 160 460 l 1,30,-1
 189 548 l 1,31,-1
 211 602 l 1,32,-1
 219 602 l 1,33,-1
 252 584 l 1,34,-1
 256 572 l 1,35,-1
 268 472 l 1,36,-1
 271 397 l 1,37,-1
 276 368 l 1,38,-1
 281 334 l 1,39,-1
 283 310 l 1,40,-1
 295 253 l 1,41,-1
 304 220 l 1,42,-1
 307 192 l 1,43,-1
 308 176 l 1,44,-1
 330 46 l 1,0,-1
EndSplineSet
EndChar
StartChar: Xi
Encoding: 926 926 272
Width: 284
Flags: W
LayerCount: 2
Fore
SplineSet
235 548 m 1,0,-1
 219 532 l 1,1,-1
 207 528 l 1,2,-1
 193 529 l 1,3,-1
 181 525 l 1,4,-1
 161 522 l 1,5,-1
 149 518 l 1,6,-1
 118 516 l 1,7,-1
 106 512 l 1,8,-1
 96 510 l 1,9,-1
 85 509 l 1,10,-1
 69 509 l 1,11,-1
 57 513 l 1,12,-1
 52 522 l 1,13,-1
 57 537 l 1,14,-1
 69 541 l 1,15,-1
 85 541 l 1,16,-1
 96 542 l 1,17,-1
 106 544 l 1,18,-1
 118 548 l 1,19,-1
 149 550 l 1,20,-1
 161 554 l 1,21,-1
 194 559 l 1,22,-1
 201 559 l 1,23,-1
 210 564 l 1,24,-1
 216 564 l 1,25,-1
 225 561 l 1,26,-1
 235 556 l 1,27,-1
 235 548 l 1,0,-1
252 92 m 1,28,-1
 236 76 l 1,29,-1
 219 70 l 1,30,-1
 205 71 l 1,31,-1
 192 73 l 1,32,-1
 172 71 l 1,33,-1
 157 71 l 1,34,-1
 116 74 l 1,35,-1
 104 70 l 1,36,-1
 94 68 l 1,37,-1
 83 67 l 1,38,-1
 67 67 l 1,39,-1
 55 71 l 1,40,-1
 50 80 l 1,41,-1
 55 95 l 1,42,-1
 67 99 l 1,43,-1
 83 99 l 1,44,-1
 94 100 l 1,45,-1
 104 102 l 1,46,-1
 116 104 l 1,47,-1
 157 103 l 1,48,-1
 172 103 l 1,49,-1
 192 105 l 1,50,-1
 207 103 l 1,51,-1
 214 103 l 1,52,-1
 227 108 l 1,53,-1
 233 108 l 1,54,-1
 242 105 l 1,55,-1
 252 100 l 1,56,-1
 252 92 l 1,28,-1
154 296 m 1,57,-1
 135 292 l 1,58,-1
 120 294 l 1,59,-1
 103 296 l 1,60,-1
 91 300 l 1,61,-1
 86 309 l 1,62,-1
 91 324 l 1,63,-1
 103 328 l 1,64,-1
 120 326 l 1,65,-1
 135 324 l 1,66,-1
 145 326 l 1,67,-1
 160 326 l 1,68,-1
 174 328 l 1,69,-1
 181 328 l 1,70,-1
 193 332 l 1,71,-1
 199 332 l 1,72,-1
 208 329 l 1,73,-1
 217 321 l 1,74,-1
 217 313 l 1,75,-1
 209 305 l 1,76,-1
 200 298 l 1,77,-1
 186 295 l 1,78,-1
 172 296 l 1,79,-1
 154 296 l 1,57,-1
EndSplineSet
EndChar
StartChar: Sigma
Encoding: 931 931 273
Width: 337
Flags: W
LayerCount: 2
Fore
SplineSet
244 334 m 1,0,-1
 250 312 l 1,1,-1
 244 298 l 1,2,-1
 233 287 l 1,3,-1
 222 286 l 1,4,-1
 212 279 l 1,5,-1
 156 179 l 1,6,-1
 128 110 l 1,7,-1
 132 98 l 1,8,-1
 145 86 l 1,9,-1
 272 93 l 1,10,-1
 292 106 l 1,11,-1
 300 106 l 1,12,-1
 304 94 l 1,13,-1
 295 67 l 1,14,-1
 268 50 l 1,15,-1
 196 50 l 1,16,-1
 159 47 l 1,17,-1
 144 46 l 1,18,-1
 112 47 l 1,19,-1
 79 46 l 1,20,-1
 67 55 l 1,21,-1
 67 83 l 1,22,-1
 102 172 l 1,23,-1
 116 196 l 1,24,-1
 170 298 l 1,25,-1
 184 314 l 1,26,-1
 190 320 l 1,27,-1
 180 339 l 1,28,-1
 136 397 l 1,29,-1
 80 474 l 1,30,-1
 67 500 l 1,31,-1
 63 512 l 1,32,-1
 55 520 l 1,33,-1
 51 538 l 1,34,-1
 55 550 l 1,35,-1
 63 558 l 1,36,-1
 116 554 l 1,37,-1
 148 562 l 1,38,-1
 160 566 l 1,39,-1
 224 566 l 1,40,-1
 236 562 l 1,41,-1
 240 550 l 1,42,-1
 236 538 l 1,43,-1
 224 534 l 1,44,-1
 208 534 l 1,45,-1
 196 530 l 1,46,-1
 154 522 l 1,47,-1
 131 519 l 1,48,-1
 119 515 l 1,49,-1
 114 506 l 1,50,-1
 110 494 l 1,51,-1
 168 424 l 1,52,-1
 231 344 l 1,53,-1
 244 334 l 1,0,-1
EndSplineSet
EndChar
StartChar: Psi
Encoding: 936 936 274
Width: 337
Flags: W
LayerCount: 2
Fore
SplineSet
184 75 m 1,0,-1
 168 75 l 1,1,-1
 156 79 l 1,2,-1
 155 97 l 1,3,-1
 153 144 l 1,4,-1
 150 172 l 1,5,-1
 149 195 l 1,6,-1
 145 252 l 1,7,-1
 119 253 l 1,8,-1
 97 268 l 1,9,-1
 77 292 l 1,10,-1
 69 322 l 1,11,-1
 60 385 l 1,12,-1
 58 447 l 1,13,-1
 60 471 l 1,14,-1
 60 493 l 1,15,-1
 61 511 l 1,16,-1
 75 517 l 1,17,-1
 83 507 l 1,18,-1
 91 490 l 1,19,-1
 94 471 l 1,20,-1
 91 445 l 1,21,-1
 98 400 l 1,22,-1
 103 354 l 1,23,-1
 103 333 l 1,24,-1
 110 306 l 1,25,-1
 124 295 l 1,26,-1
 141.358398438 296 l 1,27,-1
 145 354 l 1,28,-1
 145 388 l 1,29,-1
 144 406 l 1,30,-1
 144 534 l 1,31,-1
 148 546 l 1,32,-1
 156 546 l 1,33,-1
 172 530 l 1,34,-1
 176 518 l 1,35,-1
 184 372 l 1,36,-1
 185 296 l 1,37,-1
 198.779296875 302 l 1,38,-1
 211.779296875 320 l 1,39,-1
 231.779296875 367 l 1,40,-1
 235.779296875 402 l 1,41,-1
 237.779296875 412 l 1,42,-1
 236.779296875 422 l 1,43,-1
 235.779296875 441 l 1,44,-1
 238.779296875 455 l 1,45,-1
 245.779296875 474 l 1,46,-1
 238.779296875 486 l 1,47,-1
 240.779296875 502 l 1,48,-1
 253.779296875 513 l 1,49,-1
 269.779296875 507 l 1,50,-1
 276.779296875 499 l 1,51,-1
 280.779296875 484 l 1,52,-1
 279.779296875 470 l 1,53,-1
 276.779296875 460 l 1,54,-1
 274.779296875 447 l 1,55,-1
 275.779296875 422 l 1,56,-1
 273.779296875 379 l 1,57,-1
 269.779296875 347 l 1,58,-1
 257.779296875 319 l 1,59,-1
 249.779296875 297 l 1,60,-1
 223.779296875 274 l 1,61,-1
 185.779296875 257 l 1,62,-1
 187 234 l 1,63,-1
 190 211 l 1,64,-1
 192 185 l 1,65,-1
 193 154 l 1,66,-1
 197 129 l 1,67,-1
 199 109 l 1,68,-1
 200 91 l 1,69,-1
 196 79 l 1,70,-1
 184 75 l 1,0,-1
EndSplineSet
EndChar
StartChar: uni03A9
Encoding: 937 937 275
AltUni2: 00038f.ffffffff.0
Width: 387
Flags: W
LayerCount: 2
Fore
SplineSet
243 79 m 1,0,-1
 229 72 l 1,1,-1
 211 74 l 1,2,-1
 204 79 l 1,3,-1
 208 105 l 1,4,-1
 215 121 l 1,5,-1
 238 135 l 1,6,-1
 273 185 l 1,7,-1
 280 204 l 1,8,-1
 291 270 l 1,9,-1
 298 289 l 1,10,-1
 299 312 l 1,11,-1
 305 331 l 1,12,-1
 302 379 l 1,13,-1
 287 429 l 1,14,-1
 273 452 l 1,15,-1
 228 491 l 1,16,-1
 191 496 l 1,17,-1
 153 484 l 1,18,-1
 134 477 l 1,19,-1
 108 452 l 1,20,-1
 102 432 l 1,21,-1
 90 353 l 1,22,-1
 85 332 l 1,23,-1
 82 299 l 1,24,-1
 82 260 l 1,25,-1
 78 231 l 1,26,-1
 82 210 l 1,27,-1
 85 185 l 1,28,-1
 91 165 l 1,29,-1
 108 133 l 1,30,-1
 139 113 l 1,31,-1
 149 92 l 1,32,-1
 142 67 l 1,33,-1
 115 57 l 1,34,-1
 43 62 l 1,35,-1
 34 57 l 1,36,-1
 26 51 l 1,37,-1
 12 51 l 1,38,-1
 0 78 l 1,39,-1
 1 88 l 1,40,-1
 14 96 l 1,41,-1
 60 97 l 1,42,-1
 77 92 l 1,43,-1
 85 94 l 1,44,-1
 90 99 l 1,45,-1
 66 116 l 1,46,-1
 44 145 l 1,47,-1
 38 163 l 1,48,-1
 38 366 l 1,49,-1
 48 438 l 1,50,-1
 55 453 l 1,51,-1
 138 535 l 1,52,-1
 156 541 l 1,53,-1
 203 541 l 1,54,-1
 221 535 l 1,55,-1
 274 517 l 1,56,-1
 294 504 l 1,57,-1
 331 462 l 1,58,-1
 338 444 l 1,59,-1
 352 291 l 1,60,-1
 349 275 l 1,61,-1
 322 180 l 1,62,-1
 315 169 l 1,63,-1
 258 118 l 1,64,-1
 256 114 l 1,65,-1
 259 111 l 1,66,-1
 274 109 l 1,67,-1
 283 112 l 1,68,-1
 352 112 l 1,69,-1
 358 107 l 1,70,-1
 361 93 l 1,71,-1
 357 82 l 1,72,-1
 348 68 l 1,73,-1
 331 67 l 1,74,-1
 323 67 l 1,75,-1
 319 70 l 1,76,-1
 286 73 l 1,77,-1
 279 74.44140625 l 1,78,-1
 243 79 l 1,0,-1
EndSplineSet
EndChar
StartChar: delta
Encoding: 948 948 277
Width: 209
Flags: W
LayerCount: 2
Fore
SplineSet
152 122 m 1,0,-1
 144 204 l 1,1,-1
 140 216 l 1,2,-1
 124 225 l 1,3,-1
 116 216 l 1,4,-1
 100 168 l 1,5,-1
 84 136 l 1,6,-1
 67 89 l 1,7,-1
 66 74 l 1,8,-1
 68 67 l 1,9,-1
 76 64 l 1,10,-1
 154 70 l 1,11,-1
 155 76 l 1,12,-1
 160 80 l 1,13,-1
 162 87 l 1,14,-1
 152 122 l 1,0,-1
47 32 m 1,15,-1
 39 32 l 1,16,-1
 35 35 l 1,17,-1
 30 44 l 1,18,-1
 49 114 l 1,19,-1
 84 216 l 1,20,-1
 90 225 l 1,21,-1
 116 280 l 1,22,-1
 128 284 l 1,23,-1
 140 280 l 1,24,-1
 153 257 l 1,25,-1
 172 200 l 1,26,-1
 174 188 l 1,27,-1
 182 108 l 1,28,-1
 189 56 l 1,29,-1
 185 50 l 1,30,-1
 176 44 l 1,31,-1
 47 32 l 1,15,-1
EndSplineSet
EndChar
StartChar: theta
Encoding: 952 952 278
Width: 281
Flags: W
LayerCount: 2
Fore
SplineSet
208 202 m 1,0,-1
 207 223 l 1,1,-1
 202 239 l 1,2,-1
 192 254 l 1,3,-1
 181 260 l 1,4,-1
 170 260 l 1,5,-1
 152 256 l 1,6,-1
 128 239 l 1,7,-1
 111 223 l 1,8,-1
 100 205 l 1,9,-1
 88 180 l 1,10,-1
 79 163 l 1,11,-1
 68 135 l 1,12,-1
 62 116 l 1,13,-1
 60 100 l 1,14,-1
 66 82 l 1,15,-1
 86 61 l 1,16,-1
 102 56 l 1,17,-1
 144 56 l 1,18,-1
 161 66 l 1,19,-1
 174 81 l 1,20,-1
 187 101 l 1,21,-1
 195 116 l 1,22,-1
 205 142 l 1,23,-1
 211 183 l 1,24,-1
 208 202 l 1,0,-1
243 145 m 1,25,-1
 233 112 l 1,26,-1
 228 98 l 1,27,-1
 213 73 l 1,28,-1
 187 40 l 1,29,-1
 178 32 l 1,30,-1
 168 27 l 1,31,-1
 111 23 l 1,32,-1
 97 26 l 1,33,-1
 77 31 l 1,34,-1
 45 52 l 1,35,-1
 32 71 l 1,36,-1
 28 87 l 1,37,-1
 25 120 l 1,38,-1
 33 152 l 1,39,-1
 41 171 l 1,40,-1
 54 194 l 1,41,-1
 122 285 l 1,42,-1
 137 292 l 1,43,-1
 153 295 l 1,44,-1
 171 291 l 1,45,-1
 217 273 l 1,46,-1
 229 262 l 1,47,-1
 239 239 l 1,48,-1
 246 219 l 1,49,-1
 246 159 l 1,50,-1
 243 145 l 1,25,-1
152 147 m 1,51,-1
 139 148 l 1,52,-1
 130 148 l 1,53,-1
 119 146 l 1,54,-1
 103 146 l 1,55,-1
 91 150 l 1,56,-1
 87 162 l 1,57,-1
 91 169 l 1,58,-1
 103 173 l 1,59,-1
 119 173 l 1,60,-1
 130 175 l 1,61,-1
 139 175 l 1,62,-1
 152 174 l 1,63,-1
 178 171 l 1,64,-1
 193 163 l 1,65,-1
 195 156 l 1,66,-1
 191 149 l 1,67,-1
 183 146 l 1,68,-1
 171 142 l 1,69,-1
 152 147 l 1,51,-1
EndSplineSet
EndChar
StartChar: lambda
Encoding: 955 955 279
Width: 209
Flags: W
LayerCount: 2
Fore
SplineSet
189 56 m 1,0,-1
 185 50 l 1,1,-1
 176 44 l 1,2,-1
 164 48 l 1,3,-1
 160 60 l 1,4,-1
 151 115 l 1,5,-1
 149 201 l 1,6,-1
 142 261 l 1,7,-1
 137 282 l 1,8,-1
 132 280 l 5,9,-1
 129 275 l 1,10,-1
 104 182 l 1,11,-1
 73 83 l 1,12,-1
 60 46 l 1,13,-1
 47 32 l 1,14,-1
 39 32 l 1,15,-1
 35 35 l 1,16,-1
 30 44 l 1,17,-1
 27 57 l 1,18,-1
 32 62 l 1,19,-1
 38 64 l 1,20,-1
 49 114 l 1,21,-1
 75 202 l 1,22,-1
 88 256 l 1,23,-1
 121 333 l 1,24,-1
 133 337 l 1,25,-1
 145 333 l 1,26,-1
 158 310 l 1,27,-1
 177 253 l 1,28,-1
 179 241 l 1,29,-1
 184 184 l 1,30,-1
 182 108 l 1,31,-1
 189 56 l 1,0,-1
EndSplineSet
EndChar
StartChar: xi
Encoding: 958 958 280
Width: 284
Flags: W
LayerCount: 2
Fore
SplineSet
223 294 m 1,0,-1
 207 278 l 1,1,-1
 195 274 l 1,2,-1
 181 275 l 1,3,-1
 169 271 l 1,4,-1
 149 268 l 1,5,-1
 137 264 l 1,6,-1
 106 262 l 1,7,-1
 94 258 l 1,8,-1
 84 256 l 1,9,-1
 73 255 l 1,10,-1
 57 255 l 1,11,-1
 45 259 l 1,12,-1
 40 268 l 1,13,-1
 45 283 l 1,14,-1
 57 287 l 1,15,-1
 73 287 l 1,16,-1
 84 288 l 1,17,-1
 94 290 l 1,18,-1
 106 294 l 1,19,-1
 137 296 l 1,20,-1
 149 300 l 1,21,-1
 182 305 l 1,22,-1
 189 305 l 1,23,-1
 198 310 l 1,24,-1
 204 310 l 1,25,-1
 213 307 l 1,26,-1
 223 302 l 1,27,-1
 223 294 l 1,0,-1
240 41 m 1,28,-1
 224 25 l 1,29,-1
 207 19 l 1,30,-1
 193 20 l 1,31,-1
 180 22 l 1,32,-1
 160 20 l 1,33,-1
 145 20 l 1,34,-1
 104 23 l 1,35,-1
 92 19 l 1,36,-1
 82 17 l 1,37,-1
 71 16 l 1,38,-1
 55 16 l 1,39,-1
 43 20 l 1,40,-1
 38 29 l 1,41,-1
 43 44 l 1,42,-1
 55 48 l 1,43,-1
 71 48 l 1,44,-1
 82 49 l 1,45,-1
 92 51 l 1,46,-1
 104 53 l 1,47,-1
 145 52 l 1,48,-1
 160 52 l 1,49,-1
 180 54 l 1,50,-1
 195 52 l 1,51,-1
 202 52 l 1,52,-1
 215 57 l 1,53,-1
 221 57 l 1,54,-1
 230 54 l 1,55,-1
 240 49 l 1,56,-1
 240 41 l 1,28,-1
140 126 m 1,57,-1
 121 122 l 1,58,-1
 106 124 l 1,59,-1
 89 126 l 1,60,-1
 77 130 l 1,61,-1
 72 139 l 1,62,-1
 77 154 l 1,63,-1
 89 158 l 1,64,-1
 106 156 l 1,65,-1
 121 154 l 1,66,-1
 131 156 l 1,67,-1
 146 156 l 1,68,-1
 160 158 l 1,69,-1
 167 158 l 1,70,-1
 179 162 l 1,71,-1
 185 162 l 1,72,-1
 194 159 l 1,73,-1
 203 151 l 1,74,-1
 203 143 l 1,75,-1
 195 135 l 1,76,-1
 186 128 l 1,77,-1
 172 125 l 1,78,-1
 158 126 l 1,79,-1
 140 126 l 1,57,-1
EndSplineSet
EndChar
StartChar: sigma
Encoding: 963 963 281
AltUni2: 0003c2.ffffffff.0
Width: 256
Flags: W
LayerCount: 2
Fore
SplineSet
139 180 m 1,0,-1
 88 225 l 1,1,-1
 57 270 l 1,2,-1
 52 285 l 1,3,-1
 54 317 l 1,4,-1
 80 326 l 1,5,-1
 112 326 l 1,6,-1
 124 322 l 1,7,-1
 176 311 l 1,8,-1
 188 308 l 1,9,-1
 192 296 l 1,10,-1
 188 285 l 1,11,-1
 180 285 l 1,12,-1
 140 293 l 1,13,-1
 128 296 l 1,14,-1
 112 296 l 1,15,-1
 100 293 l 1,16,-1
 96 282 l 1,17,-1
 102 270 l 1,18,-1
 133 232 l 1,19,-1
 170 193 l 1,20,-1
 180 192 l 1,21,-1
 187 186 l 1,22,-1
 192 172 l 1,23,-1
 187 158 l 1,24,-1
 156 110 l 1,25,-1
 114 64 l 1,26,-1
 116 49 l 1,27,-1
 128 45 l 1,28,-1
 192 45 l 1,29,-1
 204 42 l 1,30,-1
 204 34 l 1,31,-1
 198 23 l 1,32,-1
 182 23 l 1,33,-1
 170 20 l 1,34,-1
 144 16 l 1,35,-1
 71 14 l 1,36,-1
 59 18 l 1,37,-1
 52 34 l 1,38,-1
 52 42 l 1,39,-1
 56 50 l 1,40,-1
 67 68 l 1,41,-1
 126 137 l 1,42,-1
 138 152 l 1,43,-1
 143 166 l 1,44,-1
 139 180 l 1,0,-1
EndSplineSet
EndChar
StartChar: psi
Encoding: 968 968 282
Width: 231
Flags: W
LayerCount: 2
Fore
SplineSet
30 210 m 1,0,-1
 25 277 l 1,1,-1
 29 299 l 1,2,-1
 30 317 l 1,3,-1
 40 323 l 1,4,-1
 52 313 l 1,5,-1
 60 296 l 1,6,-1
 59 277 l 1,7,-1
 61 251 l 1,8,-1
 61.6416015625 217 l 1,9,-1
 68.6416015625 190 l 1,10,-1
 82.6416015625 179 l 1,11,-1
 94 179 l 1,12,-1
 94 188 l 1,13,-1
 96 224 l 1,14,-1
 98 240 l 1,15,-1
 98 288 l 1,16,-1
 94 300 l 1,17,-1
 86 308 l 1,18,-1
 86 316 l 1,19,-1
 102 332 l 1,20,-1
 110 332 l 1,21,-1
 126 316 l 1,22,-1
 130 304 l 1,23,-1
 134 221 l 1,24,-1
 130 179 l 1,25,-1
 145 183 l 1,26,-1
 165 204 l 1,27,-1
 172 243 l 1,28,-1
 173 280 l 1,29,-1
 168.715820312 305 l 1,30,-1
 170.715820312 321 l 1,31,-1
 182 328 l 1,32,-1
 196 329 l 1,33,-1
 204 319 l 1,34,-1
 205 302 l 1,35,-1
 201 294 l 1,36,-1
 202 284 l 1,37,-1
 201 258 l 1,38,-1
 197 226 l 1,39,-1
 195 200 l 1,40,-1
 187 178 l 1,41,-1
 162 160 l 1,42,-1
 132 149 l 1,43,-1
 130 48 l 1,44,-1
 126 36 l 1,45,-1
 114 32 l 1,46,-1
 98 32 l 1,47,-1
 88 43 l 1,48,-1
 88 123 l 1,49,-1
 92 147 l 1,50,-1
 69.6416015625 152 l 1,51,-1
 47.6416015625 167 l 1,52,-1
 38 181 l 1,53,-1
 30 210 l 1,0,-1
EndSplineSet
EndChar
StartChar: omega
Encoding: 969 969 283
AltUni2: 0003ce.ffffffff.0
Width: 324
Flags: W
LayerCount: 2
Fore
SplineSet
181 51 m 1,0,-1
 197 67 l 1,1,-1
 210 82 l 1,2,-1
 223 102 l 1,3,-1
 231 117 l 1,4,-1
 241 143 l 1,5,-1
 247 184 l 1,6,-1
 244 203 l 1,7,-1
 243 224 l 1,8,-1
 238 240 l 1,9,-1
 228 255 l 1,10,-1
 217 261 l 1,11,-1
 206 261 l 1,12,-1
 188 257 l 1,13,-1
 164 240 l 1,14,-1
 147 224 l 1,15,-1
 136 206 l 1,16,-1
 124 181 l 1,17,-1
 115 164 l 1,18,-1
 104 136 l 1,19,-1
 98 117 l 1,20,-1
 96 101 l 1,21,-1
 102 83 l 1,22,-1
 122 62 l 1,23,-1
 138 57 l 1,24,-1
 150 48 l 1,25,-1
 150 28 l 1,26,-1
 142 23 l 1,27,-1
 127 20 l 1,28,-1
 109 20 l 1,29,-1
 74 17 l 1,30,-1
 71 12 l 1,31,-1
 67 8 l 1,32,-1
 53 9 l 1,33,-1
 45 12 l 1,34,-1
 36 17 l 1,35,-1
 38 34 l 1,36,-1
 45 41 l 1,37,-1
 55 42 l 1,38,-1
 67 40 l 1,39,-1
 102 42 l 1,40,-1
 81 53 l 1,41,-1
 68 72 l 1,42,-1
 64 88 l 1,43,-1
 61 121 l 1,44,-1
 69 153 l 1,45,-1
 77 172 l 1,46,-1
 90 195 l 1,47,-1
 158 286 l 1,48,-1
 173 293 l 1,49,-1
 189 296 l 1,50,-1
 207 292 l 1,51,-1
 253 274 l 1,52,-1
 265 263 l 1,53,-1
 275 240 l 1,54,-1
 282 220 l 1,55,-1
 282 160 l 1,56,-1
 279 146 l 1,57,-1
 269 113 l 1,58,-1
 264 99 l 1,59,-1
 249 74 l 1,60,-1
 217 44 l 1,61,-1
 216 41 l 1,62,-1
 234 40 l 1,63,-1
 254 40 l 1,64,-1
 278 37 l 1,65,-1
 287 33 l 1,66,-1
 291 17 l 1,67,-1
 285 11 l 1,68,-1
 272 10 l 1,69,-1
 267 11 l 1,70,-1
 268 15 l 1,71,-1
 242 18 l 1,72,-1
 213 17 l 1,73,-1
 202 15 l 1,74,-1
 185 20 l 1,75,-1
 178 34 l 1,76,-1
 181 51 l 1,0,-1
EndSplineSet
EndChar
StartChar: uni0411
Encoding: 1041 1041 220
Width: 352
Flags: W
LayerCount: 2
Fore
SplineSet
276 286 m 1,0,-1
 268 310 l 1,1,-1
 252 326 l 1,2,-1
 240 336 l 1,3,-1
 196 352 l 1,4,-1
 184 356 l 1,5,-1
 130 367 l 1,6,-1
 116 364 l 1,7,-1
 112 352 l 1,8,-1
 119 253 l 1,9,-1
 120 230 l 1,10,-1
 122 211 l 1,11,-1
 125 190 l 1,12,-1
 129 147 l 1,13,-1
 133 135 l 1,14,-1
 141 135 l 1,15,-1
 157 137 l 1,16,-1
 181 143 l 1,17,-1
 203 156 l 1,18,-1
 234 183 l 1,19,-1
 268 233 l 1,20,-1
 276 262 l 1,21,-1
 276 286 l 1,0,-1
316 244 m 1,22,-1
 284 180 l 1,23,-1
 246 142 l 1,24,-1
 188 100 l 1,25,-1
 156 84 l 1,26,-1
 144 80 l 1,27,-1
 112 80 l 1,28,-1
 100 84 l 1,29,-1
 96 96 l 1,30,-1
 80 288 l 1,31,-1
 73 352 l 1,32,-1
 69 364 l 1,33,-1
 48 368 l 1,34,-1
 36 372 l 1,35,-1
 32 384 l 1,36,-1
 36 396 l 1,37,-1
 48 400 l 1,38,-1
 64 400 l 1,39,-1
 70 404 l 1,40,-1
 74 416 l 1,41,-1
 74 512 l 1,42,-1
 70 524 l 1,43,-1
 60 540 l 1,44,-1
 36 548 l 1,45,-1
 32 560 l 1,46,-1
 36 572 l 1,47,-1
 48 576 l 1,48,-1
 109 576 l 1,49,-1
 217 577 l 1,50,-1
 258 579 l 1,51,-1
 278 584 l 1,52,-1
 299 579 l 1,53,-1
 304 558 l 1,54,-1
 298 544 l 1,55,-1
 285 534 l 1,56,-1
 270 533 l 1,57,-1
 256 539 l 1,58,-1
 216 535 l 1,59,-1
 121 537 l 1,60,-1
 113 517 l 1,61,-1
 108 406 l 1,62,-1
 224 384 l 1,63,-1
 236 380 l 1,64,-1
 280 358 l 1,65,-1
 295 345 l 1,66,-1
 317 309 l 1,67,-1
 321 290 l 1,68,-1
 320 256 l 1,69,-1
 316 244 l 1,22,-1
EndSplineSet
EndChar
StartChar: uni0413
Encoding: 1043 1043 221
AltUni2: 000393.ffffffff.0
Width: 352
Flags: W
LayerCount: 2
Fore
SplineSet
316 551 m 1,0,-1
 320 539 l 1,1,-1
 316 527 l 1,2,-1
 304 523 l 1,3,-1
 176 523 l 1,4,-1
 164 527 l 1,5,-1
 111 531 l 1,6,-1
 99 527 l 1,7,-1
 95 515 l 1,8,-1
 90 315 l 1,9,-1
 90 267 l 1,10,-1
 88 241 l 1,11,-1
 86 223 l 1,12,-1
 81 198 l 1,13,-1
 77 186 l 1,14,-1
 74 91 l 1,15,-1
 78 79 l 1,16,-1
 79 66 l 1,17,-1
 79 58 l 1,18,-1
 70 47 l 1,19,-1
 41 44 l 1,20,-1
 29 48 l 1,21,-1
 25 60 l 1,22,-1
 27 125 l 1,23,-1
 28 141 l 1,24,-1
 28 174 l 1,25,-1
 29 196 l 1,26,-1
 38 296 l 1,27,-1
 39 345 l 1,28,-1
 39 360 l 1,29,-1
 43 510 l 1,30,-1
 42 530 l 1,31,-1
 36 543 l 1,32,-1
 36 551 l 1,33,-1
 42 563 l 1,34,-1
 68 567 l 1,35,-1
 76 567 l 1,36,-1
 118 563 l 1,37,-1
 133 563 l 1,38,-1
 304 555 l 1,39,-1
 316 551 l 1,0,-1
EndSplineSet
EndChar
StartChar: uni0414
Encoding: 1044 1044 222
Width: 486
Flags: W
LayerCount: 2
Fore
SplineSet
366 28 m 1,0,-1
 367 37 l 1,1,-1
 374 66 l 1,2,-1
 373 80 l 1,3,-1
 360 69 l 1,4,-1
 356 70 l 1,5,-1
 341 70 l 1,6,-1
 328 72 l 1,7,-1
 323 78 l 1,8,-1
 219 71 l 1,9,-1
 108 80 l 1,10,-1
 99 82 l 1,11,-1
 92 70 l 1,12,-1
 94 52 l 1,13,-1
 102 37 l 1,14,-1
 107 19 l 1,15,-1
 102 5 l 1,16,-1
 92 3 l 1,17,-1
 68 0 l 1,18,-1
 60 7 l 1,19,-1
 58 17 l 1,20,-1
 53 51 l 1,21,-1
 50 90 l 1,22,-1
 57 121 l 1,23,-1
 71 123 l 1,24,-1
 84 122 l 1,25,-1
 98 129 l 1,26,-1
 145 287 l 1,27,-1
 154 379 l 1,28,-1
 158 464 l 1,29,-1
 159 484 l 1,30,-1
 155 498 l 1,31,-1
 147 511 l 1,32,-1
 146 529 l 1,33,-1
 154 540 l 1,34,-1
 175 556 l 1,35,-1
 192 554 l 1,36,-1
 206 548 l 1,37,-1
 296 550 l 1,38,-1
 321 554 l 1,39,-1
 361 548 l 1,40,-1
 374 536 l 1,41,-1
 378 496 l 1,42,-1
 380 416 l 1,43,-1
 378 316 l 1,44,-1
 376 228 l 1,45,-1
 384 183 l 1,46,-1
 383 172 l 1,47,-1
 380 160 l 1,48,-1
 375 135 l 1,49,-1
 380 125 l 1,50,-1
 390 124 l 1,51,-1
 410 120 l 1,52,-1
 415 85 l 1,53,-1
 408 61 l 1,54,-1
 411 46 l 1,55,-1
 418 40 l 1,56,-1
 418 20 l 1,57,-1
 406 12 l 1,58,-1
 377 11 l 1,59,-1
 366 28 l 1,0,-1
207 344 m 1,60,-1
 192 257 l 1,61,-1
 175 215 l 1,62,-1
 146 133 l 1,63,-1
 152 122 l 1,64,-1
 198 117 l 1,65,-1
 273 116 l 1,66,-1
 318 121 l 1,67,-1
 329 136 l 1,68,-1
 331 153 l 1,69,-1
 332 175 l 1,70,-1
 329 200 l 1,71,-1
 331 261 l 1,72,-1
 328 338 l 1,73,-1
 325 439 l 1,74,-1
 321 488 l 1,75,-1
 317 496 l 1,76,-1
 309 495.971679688 l 1,77,-1
 282 506 l 1,78,-1
 241 512 l 1,79,-1
 220 508 l 1,80,-1
 205 495 l 1,81,-1
 207 344 l 1,60,-1
EndSplineSet
EndChar
StartChar: uni0416
Encoding: 1046 1046 223
Width: 499
Flags: W
LayerCount: 2
Fore
SplineSet
290 392 m 1,0,-1
 313 425 l 1,1,-1
 367 464 l 1,2,-1
 375 478 l 1,3,-1
 402 510 l 1,4,-1
 435 538 l 1,5,-1
 453 544 l 1,6,-1
 473 540 l 1,7,-1
 473 532 l 1,8,-1
 469 522 l 1,9,-1
 463 510 l 1,10,-1
 453 496 l 1,11,-1
 446 484 l 1,12,-1
 326 348 l 1,13,-1
 308 329 l 1,14,-1
 398 207 l 1,15,-1
 443 140 l 1,16,-1
 473 106 l 1,17,-1
 487 85 l 1,18,-1
 494 73 l 1,19,-1
 499 58 l 1,20,-1
 479 46 l 1,21,-1
 428 77 l 1,22,-1
 379 154 l 1,23,-1
 340 204 l 1,24,-1
 315 240 l 1,25,-1
 278 285 l 1,26,-1
 278 273 l 1,27,-1
 279 238 l 1,28,-1
 275 206 l 1,29,-1
 273 158 l 1,30,-1
 290 52 l 1,31,-1
 287 36 l 1,32,-1
 277 34 l 1,33,-1
 258 35 l 1,34,-1
 252 46 l 1,35,-1
 228 133 l 1,36,-1
 225 166 l 1,37,-1
 236 286 l 1,38,-1
 226 270 l 1,39,-1
 66 101 l 1,40,-1
 39 99 l 1,41,-1
 32 110 l 1,42,-1
 42 131 l 1,43,-1
 71 171 l 1,44,-1
 114 219 l 1,45,-1
 171 278 l 1,46,-1
 192 302 l 1,47,-1
 210 328 l 1,48,-1
 219 344 l 1,49,-1
 206 358 l 1,50,-1
 187 390 l 1,51,-1
 148 438 l 1,52,-1
 109 481 l 1,53,-1
 94 506 l 1,54,-1
 114 528 l 1,55,-1
 127 528 l 1,56,-1
 166 488 l 1,57,-1
 202 455 l 1,58,-1
 230 410 l 1,59,-1
 241 394 l 1,60,-1
 241 436 l 1,61,-1
 251 489 l 1,62,-1
 250 556 l 1,63,-1
 256 577 l 1,64,-1
 268 595 l 1,65,-1
 289 602 l 1,66,-1
 302 601 l 1,67,-1
 308 590 l 1,68,-1
 306 577 l 1,69,-1
 300 568 l 1,70,-1
 298 536 l 1,71,-1
 292 479 l 1,72,-1
 287 425 l 1,73,-1
 290 392 l 1,0,-1
EndSplineSet
EndChar
StartChar: uni0417
Encoding: 1047 1047 224
Width: 256
Flags: W
LayerCount: 2
Fore
SplineSet
224 180 m 1,0,-1
 191 117 l 1,1,-1
 178 95 l 1,2,-1
 146 54 l 1,3,-1
 118 39 l 1,4,-1
 54 35 l 1,5,-1
 36 38 l 1,6,-1
 32 50 l 1,7,-1
 32 66 l 1,8,-1
 38 72 l 1,9,-1
 50 76 l 1,10,-1
 82 76 l 1,11,-1
 94 80 l 1,12,-1
 126 96 l 1,13,-1
 142 112 l 1,14,-1
 176 158 l 1,15,-1
 188 198 l 1,16,-1
 189 213 l 1,17,-1
 189 235 l 1,18,-1
 185 253 l 1,19,-1
 177 265 l 1,20,-1
 166 276 l 1,21,-1
 111 282 l 1,22,-1
 67 276 l 1,23,-1
 52 278 l 1,24,-1
 48 290 l 1,25,-1
 52 302 l 1,26,-1
 89 320 l 1,27,-1
 109 351 l 1,28,-1
 117 375 l 1,29,-1
 128 414 l 1,30,-1
 128 429 l 1,31,-1
 127 436 l 1,32,-1
 118 449 l 1,33,-1
 106 448 l 1,34,-1
 63 426 l 1,35,-1
 49 423 l 1,36,-1
 37 427 l 1,37,-1
 33 439 l 1,38,-1
 32 450 l 1,39,-1
 36 462 l 1,40,-1
 96 482 l 1,41,-1
 112 482 l 1,42,-1
 124 478 l 1,43,-1
 145 466 l 1,44,-1
 160 445 l 1,45,-1
 164 433 l 1,46,-1
 164 417 l 1,47,-1
 163 396 l 1,48,-1
 150 353 l 1,49,-1
 132 326 l 1,50,-1
 156 318 l 1,51,-1
 188 302 l 1,52,-1
 204 286 l 1,53,-1
 220 254 l 1,54,-1
 224 242 l 1,55,-1
 228 192 l 1,56,-1
 224 180 l 1,0,-1
EndSplineSet
EndChar
StartChar: uni0418
Encoding: 1048 1048 225
Width: 385
Flags: W
LayerCount: 2
Fore
SplineSet
47 96 m 1,0,-1
 35.99609375 100 l 1,1,-1
 32 112.000976562 l 1,2,-1
 32 128.000976562 l 1,3,-1
 35.99609375 139.999023438 l 1,4,-1
 48.00390625 284.000976562 l 1,5,-1
 50.0009765625 305.000976562 l 1,6,-1
 53.9990234375 336.000976562 l 1,7,-1
 55.99609375 362.999023438 l 1,8,-1
 57 485 l 1,9,-1
 60.99609375 497.000976562 l 1,10,-1
 75.99609375 510 l 1,11,-1
 95.99609375 512.000976562 l 1,12,-1
 108.00390625 507.999023438 l 1,13,-1
 112 496.000976562 l 1,14,-1
 112 480 l 1,15,-1
 108.00390625 468 l 1,16,-1
 102 447 l 1,17,-1
 98.00390625 435 l 1,18,-1
 95.99609375 288 l 1,19,-1
 95.0009765625 258.999023438 l 1,20,-1
 92 243.999023438 l 1,21,-1
 85.0009765625 224 l 1,22,-1
 83.9990234375 211.999023438 l 1,23,-1
 92 211.999023438 l 1,24,-1
 120.000976562 248.000976562 l 1,25,-1
 195.99609375 364 l 1,26,-1
 292 492.000976562 l 1,27,-1
 315.99609375 516 l 1,28,-1
 323.00390625 525 l 1,29,-1
 335.000976562 531 l 1,30,-1
 343.00390625 531 l 1,31,-1
 350.99609375 528.999023438 l 1,32,-1
 352 432 l 1,33,-1
 352 414.000976562 l 1,34,-1
 348.999023438 381 l 1,35,-1
 347 364 l 1,36,-1
 335.99609375 175.999023438 l 1,37,-1
 332 164.000976562 l 1,38,-1
 330.000976562 132 l 1,39,-1
 325.99609375 120 l 1,40,-1
 320.000976562 80 l 1,41,-1
 315.99609375 68 l 1,42,-1
 303.999023438 64 l 1,43,-1
 292 68 l 1,44,-1
 288.00390625 80 l 1,45,-1
 288.00390625 191.999023438 l 1,46,-1
 290.000976562 208 l 1,47,-1
 292 227.999023438 l 1,48,-1
 292 236 l 1,49,-1
 298.00390625 261 l 1,50,-1
 298.999023438 293 l 1,51,-1
 305.000976562 403.000976562 l 1,52,-1
 300.99609375 414.999023438 l 1,53,-1
 288.999023438 421 l 1,54,-1
 273.00390625 404.999023438 l 1,55,-1
 232 346.000976562 l 1,56,-1
 183.999023438 282 l 1,57,-1
 108.999023438 172 l 1,58,-1
 95.0009765625 144.000976562 l 1,59,-1
 80.99609375 123.000976562 l 1,60,-1
 62 98.9990234375 l 1,61,-1
 47 96 l 1,0,-1
EndSplineSet
EndChar
StartChar: uni041B
Encoding: 1051 1051 227
Width: 445
Flags: W
LayerCount: 2
Fore
SplineSet
163 301 m 17,0,-1
 163 353 l 1,1,-1
 159 375 l 1,2,-1
 152 450 l 1,3,-1
 151 528 l 1,4,-1
 147 540 l 1,5,-1
 142 580 l 1,6,-1
 150 588 l 1,7,-1
 162 592 l 1,8,-1
 178 592 l 1,9,-1
 190 588 l 1,10,-1
 214 588 l 1,11,-1
 226 592 l 1,12,-1
 339 592 l 1,13,-1
 403 589 l 1,14,-1
 403 579 l 1,15,-1
 401 560 l 1,16,-1
 395 551 l 1,17,-1
 385 552 l 1,18,-1
 375 531 l 1,19,-1
 385 343 l 1,20,-1
 391 216 l 1,21,-1
 398 171 l 1,22,-1
 402 159 l 1,23,-1
 405 113 l 1,24,-1
 409 101 l 1,25,-1
 417 71 l 1,26,-1
 421 59 l 1,27,-1
 417 47 l 1,28,-1
 405 43 l 1,29,-1
 382 42 l 1,30,-1
 370 46 l 1,31,-1
 366 58 l 1,32,-1
 360 108 l 1,33,-1
 354 142 l 1,34,-1
 350 154 l 1,35,-1
 338 299 l 1,36,-1
 339 325 l 1,37,-1
 335 344 l 1,38,-1
 334 362 l 1,39,-1
 335 527 l 1,40,-1
 328 549 l 1,41,-1
 227 551 l 1,42,-1
 215 547 l 1,43,-1
 211 535 l 1,44,-1
 210 480 l 1,45,-1
 204 396 l 1,46,-1
 209 261 l 1,47,-1
 204 168 l 1,48,-1
 199 144 l 1,49,-1
 180 124 l 1,50,-1
 156 110 l 1,51,-1
 137 107 l 1,52,-1
 114 99 l 1,53,-1
 98 98 l 1,54,-1
 78 106 l 1,55,-1
 66 113 l 9,56,-1
 43 126 l 17,57,-1
 28 137 l 1,58,-1
 24 143 l 1,59,-1
 22 156 l 1,60,-1
 29 164 l 1,61,-1
 36 173 l 1,62,-1
 46 176 l 9,63,-1
 63 175 l 1,64,-1
 78 160 l 17,65,-1
 100 149 l 1,66,-1
 108 149 l 9,67,-1
 137 156 l 17,68,-1
 144 164 l 1,69,-1
 158 224 l 9,70,-1
 160 255 l 25,71,-1
 163 301 l 17,0,-1
EndSplineSet
EndChar
StartChar: uni041F
Encoding: 1055 1055 228
AltUni2: 0003a0.ffffffff.0
Width: 365
Flags: W
LayerCount: 2
Fore
SplineSet
79 588 m 1,0,-1
 103 588 l 1,1,-1
 115 592 l 1,2,-1
 259 592 l 1,3,-1
 323 589 l 1,4,-1
 323 579 l 1,5,-1
 321 560 l 1,6,-1
 315 551 l 1,7,-1
 305 552 l 1,8,-1
 295 531 l 1,9,-1
 305 343 l 1,10,-1
 311 216 l 1,11,-1
 318 171 l 1,12,-1
 322 159 l 1,13,-1
 325 113 l 1,14,-1
 329 101 l 1,15,-1
 337 71 l 1,16,-1
 341 59 l 1,17,-1
 337 47 l 1,18,-1
 325 43 l 1,19,-1
 302 42 l 1,20,-1
 290 46 l 1,21,-1
 286 58 l 1,22,-1
 280 108 l 1,23,-1
 274 142 l 1,24,-1
 270 154 l 1,25,-1
 258 299 l 1,26,-1
 259 325 l 1,27,-1
 255 344 l 1,28,-1
 254 362 l 1,29,-1
 255 527 l 1,30,-1
 248 549 l 1,31,-1
 116 551 l 1,32,-1
 104 547 l 1,33,-1
 100 535 l 1,34,-1
 99 480 l 1,35,-1
 99 400 l 1,36,-1
 107 174 l 1,37,-1
 113 112 l 1,38,-1
 115 96 l 1,39,-1
 115 64 l 1,40,-1
 111 52 l 1,41,-1
 95 36 l 1,42,-1
 87 36 l 1,43,-1
 65 53 l 1,44,-1
 60 97 l 1,45,-1
 60 112 l 1,46,-1
 52 301 l 1,47,-1
 52 353 l 1,48,-1
 48 375 l 1,49,-1
 41 450 l 1,50,-1
 40 528 l 1,51,-1
 36 540 l 1,52,-1
 31 580 l 1,53,-1
 39 588 l 1,54,-1
 51 592 l 1,55,-1
 67 592 l 1,56,-1
 79 588 l 1,0,-1
EndSplineSet
EndChar
StartChar: uni0423
Encoding: 1059 1059 229
Width: 368
Flags: W
LayerCount: 2
Fore
SplineSet
324 572 m 1,0,-1
 320 532 l 1,1,-1
 302 480 l 1,2,-1
 287 428 l 1,3,-1
 280 387 l 1,4,-1
 266 355 l 1,5,-1
 251 312 l 1,6,-1
 248 286 l 1,7,-1
 242 252 l 1,8,-1
 239 219 l 1,9,-1
 231 173 l 1,10,-1
 217 116 l 1,11,-1
 190 86 l 1,12,-1
 135 68 l 1,13,-1
 84 66 l 1,14,-1
 58 80 l 1,15,-1
 54 101 l 1,16,-1
 52 139 l 1,17,-1
 57 157 l 1,18,-1
 62 163 l 1,19,-1
 77 170 l 1,20,-1
 93 168 l 1,21,-1
 100 153 l 1,22,-1
 91 136 l 1,23,-1
 100 110 l 1,24,-1
 117 108 l 1,25,-1
 137 111 l 1,26,-1
 163 134 l 1,27,-1
 181 162 l 1,28,-1
 189 190 l 1,29,-1
 202 222 l 1,30,-1
 209 310 l 1,31,-1
 209 339 l 1,32,-1
 149 406 l 1,33,-1
 132 422 l 1,34,-1
 68 500 l 1,35,-1
 36 548 l 1,36,-1
 32 560 l 1,37,-1
 36 572 l 1,38,-1
 48 576 l 1,39,-1
 60 572 l 1,40,-1
 87 541 l 1,41,-1
 108 508 l 1,42,-1
 164 436 l 1,43,-1
 198 401 l 1,44,-1
 230 390 l 1,45,-1
 242 453 l 1,46,-1
 261 504 l 1,47,-1
 273 570 l 1,48,-1
 282 589 l 1,49,-1
 298 605 l 1,50,-1
 320 608 l 1,51,-1
 332 604 l 1,52,-1
 336 592 l 1,53,-1
 332 580 l 1,54,-1
 324 572 l 1,0,-1
EndSplineSet
EndChar
StartChar: uni0424
Encoding: 1060 1060 339
AltUni2: 0003a6.ffffffff.0
Width: 442
Flags: W
LayerCount: 2
Fore
SplineSet
158 484.842274333 m 1,0,-1
 124.399414062 475 l 1,1,-1
 91 450 l 1,2,-1
 74 431 l 1,3,-1
 59.599609375 352 l 1,4,-1
 53.599609375 331 l 1,5,-1
 50 298 l 1,6,-1
 50 259 l 1,7,-1
 45.19921875 230 l 1,8,-1
 50 209 l 1,9,-1
 53.599609375 184 l 1,10,-1
 60.7998046875 164 l 1,11,-1
 81.19921875 132 l 1,12,-1
 130.399414062 111 l 1,13,-1
 155.599609375 106 l 1,14,-1
 170 106 l 1,15,-1
 190.946851728 114.55682971 l 1,16,-1
 184 171 l 1,17,-1
 180 183 l 1,18,-1
 162 369 l 1,19,-1
 163 395 l 1,20,-1
 159 414 l 1,21,-1
 158 432 l 1,22,-1
 158 484.842274333 l 1,0,-1
338.400390625 329 m 1,23,-1
 334.80078125 377 l 1,24,-1
 316.80078125 427 l 1,25,-1
 291.19921875 450 l 1,26,-1
 237.19921875 489 l 1,27,-1
 195.042773611 493.747410076 l 1,28,-1
 202 412 l 1,29,-1
 208 285 l 1,30,-1
 221 199 l 1,31,-1
 225 187 l 1,32,-1
 228.702589475 129.980122081 l 1,33,-1
 231.19921875 131 l 1,34,-1
 300 183 l 1,35,-1
 308.400390625 202 l 1,36,-1
 321.600585938 268 l 1,37,-1
 330 287 l 1,38,-1
 331.200195312 310 l 1,39,-1
 338.400390625 329 l 1,23,-1
350 178 m 1,40,-1
 341.599609375 167 l 1,41,-1
 256.399414062 97 l 1,42,-1
 237.033288235 86.6251691199 l 1,43,-1
 242 68 l 1,44,-1
 246 56 l 1,45,-1
 242 44 l 1,46,-1
 230 40 l 1,47,-1
 214 40 l 1,48,-1
 202 44 l 1,49,-1
 198 56 l 1,50,-1
 195.96 73 l 1,51,-1
 129.19921875 73 l 1,52,-1
 110 79 l 1,53,-1
 71.599609375 97 l 1,54,-1
 16.3994140625 143 l 1,55,-1
 9.19921875 161 l 1,56,-1
 9.19921875 364 l 1,57,-1
 21.19921875 436 l 1,58,-1
 29.599609375 451 l 1,59,-1
 129.19921875 533 l 1,60,-1
 150.799804688 539 l 1,61,-1
 158 539 l 1,62,-1
 158 569 l 1,63,-1
 162 581 l 1,64,-1
 170 581 l 1,65,-1
 186 565 l 1,66,-1
 190 553 l 1,67,-1
 191.191489362 539 l 1,68,-1
 207.19921875 539 l 1,69,-1
 228.799804688 533 l 1,70,-1
 292.399414062 515 l 1,71,-1
 316.399414062 502 l 1,72,-1
 360.799804688 460 l 1,73,-1
 369.19921875 442 l 1,74,-1
 386 289 l 1,75,-1
 382.399414062 273 l 1,76,-1
 350 178 l 1,40,-1
EndSplineSet
EndChar
StartChar: uni0426
Encoding: 1062 1062 231
Width: 352
Flags: W
LayerCount: 2
Fore
SplineSet
257 108 m 1,0,-1
 254 268 l 1,1,-1
 258 375 l 1,2,-1
 259 400 l 1,3,-1
 264 427 l 1,4,-1
 260 449 l 1,5,-1
 262 505 l 1,6,-1
 256 528 l 1,7,-1
 263 542 l 1,8,-1
 280 549 l 1,9,-1
 301 552 l 1,10,-1
 318 548 l 1,11,-1
 322 524 l 1,12,-1
 313 377 l 1,13,-1
 314 264 l 1,14,-1
 318 176 l 1,15,-1
 311 83 l 1,16,-1
 341 73 l 1,17,-1
 346 67 l 1,18,-1
 350 42 l 1,19,-1
 348 13 l 1,20,-1
 346 -8 l 1,21,-1
 338 -19 l 1,22,-1
 328 -25 l 1,23,-1
 317 -24 l 1,24,-1
 304 -20 l 1,25,-1
 298 -10 l 1,26,-1
 296 5 l 1,27,-1
 308 18 l 1,28,-1
 314 42 l 1,29,-1
 307 48 l 1,30,-1
 293 43 l 1,31,-1
 273 43 l 1,32,-1
 264 47.5057471264 l 1,33,-1
 133 46 l 1,34,-1
 118 46 l 1,35,-1
 76 43 l 1,36,-1
 68 43 l 1,37,-1
 42 46 l 1,38,-1
 36 58 l 1,39,-1
 36 66 l 1,40,-1
 42 78 l 1,41,-1
 43 97 l 1,42,-1
 39 241 l 1,43,-1
 39 255 l 1,44,-1
 38 302 l 1,45,-1
 29 398 l 1,46,-1
 28 419 l 1,47,-1
 28 450 l 1,48,-1
 27 466 l 1,49,-1
 25 528 l 1,50,-1
 29 539 l 1,51,-1
 41 543 l 1,52,-1
 70 540 l 1,53,-1
 79 530 l 1,54,-1
 79 522 l 1,55,-1
 78 510 l 1,56,-1
 74 498 l 1,57,-1
 77 407 l 1,58,-1
 81 396 l 1,59,-1
 86 372 l 1,60,-1
 88 355 l 1,61,-1
 90 330 l 1,62,-1
 90 284 l 1,63,-1
 95 92 l 1,64,-1
 99 81 l 1,65,-1
 111 77 l 1,66,-1
 164 81 l 1,67,-1
 176 85 l 1,68,-1
 258 85 l 1,69,-1
 257 108 l 1,0,-1
EndSplineSet
EndChar
StartChar: uni0427
Encoding: 1063 1063 232
Width: 428
Flags: W
LayerCount: 2
Fore
SplineSet
348 491 m 1,0,-1
 349 484 l 1,1,-1
 348.394045534 476.880035026 l 1,2,-1
 354 276 l 1,3,-1
 349 153 l 1,4,-1
 349 83 l 1,5,-1
 353 70 l 1,6,-1
 360.803921569 67 l 1,7,-1
 363 51 l 1,8,-1
 351 37 l 1,9,-1
 335 26 l 1,10,-1
 316 28 l 1,11,-1
 307 37 l 1,12,-1
 310 161 l 1,13,-1
 316 185 l 1,14,-1
 324 278 l 1,15,-1
 325.613528336 330.170749543 l 1,16,-1
 253 300 l 1,17,-1
 236 291 l 1,18,-1
 177 291 l 1,19,-1
 159 295 l 1,20,-1
 106 323 l 1,21,-1
 64 358 l 1,22,-1
 46 407 l 1,23,-1
 40 440 l 1,24,-1
 38 476 l 1,25,-1
 41 519 l 1,26,-1
 48 533 l 1,27,-1
 59 541 l 1,28,-1
 70 541 l 1,29,-1
 78 534 l 1,30,-1
 85 521 l 1,31,-1
 81 506 l 1,32,-1
 74 498 l 1,33,-1
 76 464 l 1,34,-1
 82 439 l 1,35,-1
 106 381 l 1,36,-1
 150 346 l 1,37,-1
 169 337 l 1,38,-1
 228 339 l 1,39,-1
 246 346 l 1,40,-1
 277 365 l 1,41,-1
 297 388 l 1,42,-1
 310 425 l 1,43,-1
 314 446 l 1,44,-1
 313 485 l 1,45,-1
 317 506 l 1,46,-1
 330 513 l 1,47,-1
 345 505 l 1,48,-1
 348 500 l 1,49,-1
 348 491 l 1,0,-1
EndSplineSet
EndChar
StartChar: uni0428
Encoding: 1064 1064 233
Width: 587
Flags: W
LayerCount: 2
Fore
SplineSet
523 102 m 1,0,-1
 507 78 l 1,1,-1
 471 56 l 1,2,-1
 456 55 l 1,3,-1
 314 59 l 1,4,-1
 314 51 l 1,5,-1
 310 45 l 1,6,-1
 286 46 l 1,7,-1
 264 50 l 1,8,-1
 256 55 l 1,9,-1
 129 59 l 1,10,-1
 114 59 l 1,11,-1
 72 56 l 1,12,-1
 64 56 l 1,13,-1
 38 59 l 1,14,-1
 32 71 l 1,15,-1
 32 79 l 1,16,-1
 38 91 l 1,17,-1
 39 110 l 1,18,-1
 39 255 l 1,19,-1
 38 302 l 1,20,-1
 29 398 l 1,21,-1
 28 419 l 1,22,-1
 28 450 l 1,23,-1
 27 466 l 1,24,-1
 25 528 l 1,25,-1
 29 539 l 1,26,-1
 41 543 l 1,27,-1
 70 540 l 1,28,-1
 79 530 l 1,29,-1
 79 522 l 1,30,-1
 78 510 l 1,31,-1
 74 498 l 1,32,-1
 77 407 l 1,33,-1
 81 396 l 1,34,-1
 86 372 l 1,35,-1
 88 355 l 1,36,-1
 90 330 l 1,37,-1
 90 284 l 1,38,-1
 91 105 l 1,39,-1
 95 94 l 1,40,-1
 107 90 l 1,41,-1
 160 94 l 1,42,-1
 172 98 l 1,43,-1
 254 97 l 1,44,-1
 249 163 l 1,45,-1
 250 271 l 1,46,-1
 252 313 l 1,47,-1
 254 329 l 1,48,-1
 253 340 l 1,49,-1
 250 440 l 1,50,-1
 251 478 l 1,51,-1
 262 488 l 1,52,-1
 288 500 l 1,53,-1
 301 500 l 1,54,-1
 308 491 l 1,55,-1
 310 477 l 1,56,-1
 313 448 l 1,57,-1
 307 420 l 1,58,-1
 304 411 l 1,59,-1
 308 268 l 1,60,-1
 305 244 l 1,61,-1
 305 164 l 1,62,-1
 309 94 l 1,63,-1
 391 93 l 1,64,-1
 415 93 l 1,65,-1
 439 97 l 1,66,-1
 456 107 l 1,67,-1
 453 128 l 1,68,-1
 455 263 l 1,69,-1
 459 370 l 1,70,-1
 460 395 l 1,71,-1
 465 422 l 1,72,-1
 461 444 l 1,73,-1
 463 500 l 1,74,-1
 457 523 l 1,75,-1
 464 537 l 1,76,-1
 481 544 l 1,77,-1
 502 547 l 1,78,-1
 519 543 l 1,79,-1
 523 519 l 1,80,-1
 514 372 l 1,81,-1
 515 259 l 1,82,-1
 519 171 l 1,83,-1
 515 124 l 1,84,-1
 523 102 l 1,0,-1
EndSplineSet
EndChar
